<ttFont>
    <TTGlyph name=".notdef" xMin="228" yMin="0" xMax="1644" yMax="1416">
      <contour>
        <pt x="1644" y="1416" on="1"/>
        <pt x="1644" y="0" on="1"/>
        <pt x="228" y="0" on="1"/>
        <pt x="228" y="1416" on="1"/>
      </contour>
      <contour>
        <pt x="933" y="587" on="1"/>
        <pt x="1295" y="219" on="1"/>
        <pt x="1417" y="341" on="1"/>
        <pt x="1054" y="709" on="1"/>
        <pt x="1417" y="1067" on="1"/>
        <pt x="1289" y="1191" on="1"/>
        <pt x="937" y="825" on="1"/>
        <pt x="580" y="1193" on="1"/>
        <pt x="457" y="1068" on="1"/>
        <pt x="816" y="705" on="1"/>
        <pt x="458" y="363" on="1"/>
        <pt x="586" y="219" on="1"/>
      </contour>
    </TTGlyph>
    <TTGlyph name="A" xMin="-142" yMin="0" xMax="1365" yMax="1522">
      <contour>
        <pt x="956" y="1522" on="1"/>
        <pt x="1206" y="129" on="1"/>
        <pt x="1365" y="97" on="1"/>
        <pt x="1358" y="0" on="1"/>
        <pt x="749" y="0" on="1"/>
        <pt x="754" y="97" on="1"/>
        <pt x="910" y="126" on="1"/>
        <pt x="866" y="425" on="1"/>
        <pt x="343" y="425" on="1"/>
        <pt x="210" y="127" on="1"/>
        <pt x="385" y="97" on="1"/>
        <pt x="378" y="0" on="1"/>
        <pt x="-142" y="0" on="1"/>
        <pt x="-134" y="97" on="1"/>
        <pt x="-4" y="126" on="1"/>
        <pt x="674" y="1522" on="1"/>
      </contour>
      <contour>
        <pt x="845" y="563" on="1"/>
        <pt x="756" y="1170" on="1"/>
        <pt x="746" y="1329" on="1"/>
        <pt x="404" y="563" on="1"/>
      </contour>
    </TTGlyph>
    <TTGlyph name="AE" xMin="-187" yMin="0" xMax="1872" yMax="1522">
      <contour>
        <pt x="825" y="127" on="1"/>
        <pt x="864" y="442" on="1"/>
        <pt x="390" y="442" on="1"/>
        <pt x="227" y="127" on="1"/>
        <pt x="416" y="97" on="1"/>
        <pt x="409" y="0" on="1"/>
        <pt x="-187" y="0" on="1"/>
        <pt x="-176" y="97" on="1"/>
        <pt x="-20" y="127" on="1"/>
        <pt x="695" y="1387" on="1"/>
        <pt x="403" y="1411" on="1"/>
        <pt x="418" y="1522" on="1"/>
        <pt x="1872" y="1522" on="1"/>
        <pt x="1849" y="1188" on="1"/>
        <pt x="1678" y="1188" on="1"/>
        <pt x="1638" y="1387" on="1"/>
        <pt x="1272" y="1407" on="1"/>
        <pt x="1199" y="858" on="1"/>
        <pt x="1629" y="891" on="1"/>
        <pt x="1604" y="691" on="1"/>
        <pt x="1184" y="716" on="1"/>
        <pt x="1108" y="127" on="1"/>
        <pt x="1593" y="157" on="1"/>
        <pt x="1701" y="405" on="1"/>
        <pt x="1865" y="384" on="1"/>
        <pt x="1798" y="0" on="1"/>
        <pt x="671" y="0" on="1"/>
        <pt x="683" y="97" on="1"/>
      </contour>
      <contour>
        <pt x="461" y="580" on="1"/>
        <pt x="881" y="580" on="1"/>
        <pt x="983" y="1397" on="1"/>
        <pt x="885" y="1399" on="1"/>
      </contour>
    </TTGlyph>
    <TTGlyph name="AEacute" xMin="-187" yMin="0" xMax="1872" yMax="2008">
      <component glyphName="acute.cap" x="1117" y="0" flags="0x0"/>
      <component glyphName="AE" x="0" y="0" flags="0x0"/>
    </TTGlyph>
    <TTGlyph name="Aacute" xMin="-142" yMin="0" xMax="1365" yMax="2008">
      <component glyphName="A" x="0" y="0" flags="0x0"/>
      <component glyphName="acute.cap" x="698" y="0" flags="0x0"/>
    </TTGlyph>
    <TTGlyph name="Abreve" xMin="-142" yMin="0" xMax="1365" yMax="1999">
      <component glyphName="A" x="0" y="0" flags="0x0"/>
      <component glyphName="breve.cap" x="482" y="0" flags="0x0"/>
    </TTGlyph>
    <TTGlyph name="Acircumflex" xMin="-142" yMin="0" xMax="1365" yMax="2008">
      <component glyphName="A" x="0" y="0" flags="0x0"/>
      <component glyphName="circumflex.cap" x="437" y="0" flags="0x0"/>
    </TTGlyph>
    <TTGlyph name="Adieresis" xMin="-142" yMin="0" xMax="1365" yMax="1987">
      <component glyphName="A" x="0" y="0" flags="0x0"/>
      <component glyphName="dieresis.cap" x="446" y="0" flags="0x0"/>
    </TTGlyph>
    <TTGlyph name="Agrave" xMin="-142" yMin="0" xMax="1365" yMax="2008">
      <component glyphName="A" x="0" y="0" flags="0x0"/>
      <component glyphName="grave.cap" x="458" y="0" flags="0x0"/>
    </TTGlyph>
    <TTGlyph name="Amacron" xMin="-142" yMin="0" xMax="1365" yMax="1899">
      <component glyphName="A" x="0" y="0" flags="0x0"/>
      <component glyphName="macron.cap" x="511" y="0" flags="0x0"/>
    </TTGlyph>
    <TTGlyph name="Aogonek" xMin="-142" yMin="-452" xMax="1365" yMax="1522">
      <contour>
        <pt x="956" y="1522" on="1"/>
        <pt x="1206" y="129" on="1"/>
        <pt x="1365" y="97" on="1"/>
        <pt x="1358" y="0" on="1"/>
        <pt x="1148" y="0" on="1"/>
        <pt x="1064" y="-62" on="0"/>
        <pt x="970" y="-165" on="0"/>
        <pt x="969" y="-209" on="1"/>
        <pt x="968" y="-251" on="0"/>
        <pt x="1003" y="-287" on="0"/>
        <pt x="1030" y="-287" on="1"/>
        <pt x="1063" y="-287" on="0"/>
        <pt x="1128" y="-254" on="0"/>
        <pt x="1173" y="-219" on="1"/>
        <pt x="1204" y="-324" on="1"/>
        <pt x="1147" y="-381" on="0"/>
        <pt x="994" y="-452" on="0"/>
        <pt x="902" y="-452" on="1"/>
        <pt x="817" y="-452" on="0"/>
        <pt x="726" y="-364" on="0"/>
        <pt x="726" y="-297" on="1"/>
        <pt x="726" y="-269" on="0"/>
        <pt x="750" y="-198" on="0"/>
        <pt x="769" y="-171" on="1"/>
        <pt x="815" y="-107" on="0"/>
        <pt x="913" y="-32" on="0"/>
        <pt x="976" y="0" on="1"/>
        <pt x="749" y="0" on="1"/>
        <pt x="754" y="97" on="1"/>
        <pt x="910" y="126" on="1"/>
        <pt x="866" y="425" on="1"/>
        <pt x="343" y="425" on="1"/>
        <pt x="210" y="127" on="1"/>
        <pt x="385" y="97" on="1"/>
        <pt x="378" y="0" on="1"/>
        <pt x="-142" y="0" on="1"/>
        <pt x="-134" y="97" on="1"/>
        <pt x="-4" y="126" on="1"/>
        <pt x="674" y="1522" on="1"/>
      </contour>
      <contour>
        <pt x="845" y="563" on="1"/>
        <pt x="756" y="1170" on="1"/>
        <pt x="746" y="1329" on="1"/>
        <pt x="404" y="563" on="1"/>
      </contour>
    </TTGlyph>
    <TTGlyph name="Aring" xMin="-142" yMin="0" xMax="1365" yMax="2008">
      <contour>
        <pt x="590" y="1538" on="0"/>
        <pt x="503" y="1646" on="0"/>
        <pt x="503" y="1725" on="1"/>
        <pt x="503" y="1821" on="0"/>
        <pt x="619" y="1948" on="0"/>
        <pt x="792" y="2008" on="0"/>
        <pt x="879" y="2008" on="1"/>
        <pt x="966" y="2008" on="0"/>
        <pt x="1101" y="1955" on="0"/>
        <pt x="1175" y="1855" on="0"/>
        <pt x="1175" y="1787" on="1"/>
        <pt x="1175" y="1683" on="0"/>
        <pt x="1054" y="1546" on="0"/>
        <pt x="957" y="1516" on="1"/>
        <pt x="1206" y="129" on="1"/>
        <pt x="1365" y="97" on="1"/>
        <pt x="1358" y="0" on="1"/>
        <pt x="749" y="0" on="1"/>
        <pt x="754" y="97" on="1"/>
        <pt x="910" y="126" on="1"/>
        <pt x="866" y="425" on="1"/>
        <pt x="343" y="425" on="1"/>
        <pt x="210" y="127" on="1"/>
        <pt x="385" y="97" on="1"/>
        <pt x="378" y="0" on="1"/>
        <pt x="-142" y="0" on="1"/>
        <pt x="-134" y="97" on="1"/>
        <pt x="-4" y="126" on="1"/>
        <pt x="670" y="1513" on="1"/>
      </contour>
      <contour>
        <pt x="1005" y="1803" on="0"/>
        <pt x="965" y="1861" on="0"/>
        <pt x="897" y="1893" on="0"/>
        <pt x="858" y="1893" on="1"/>
        <pt x="812" y="1893" on="0"/>
        <pt x="728" y="1861" on="0"/>
        <pt x="674" y="1793" on="0"/>
        <pt x="674" y="1742" on="1"/>
        <pt x="674" y="1704" on="0"/>
        <pt x="715" y="1643" on="0"/>
        <pt x="784" y="1609" on="0"/>
        <pt x="824" y="1609" on="1"/>
        <pt x="901" y="1609" on="0"/>
        <pt x="1005" y="1682" on="0"/>
        <pt x="1005" y="1767" on="1"/>
      </contour>
      <contour>
        <pt x="845" y="563" on="1"/>
        <pt x="756" y="1170" on="1"/>
        <pt x="746" y="1329" on="1"/>
        <pt x="404" y="563" on="1"/>
      </contour>
    </TTGlyph>
    <TTGlyph name="Atilde" xMin="-142" yMin="0" xMax="1365" yMax="1970">
      <component glyphName="A" x="0" y="0" flags="0x0"/>
      <component glyphName="tilde.cap" x="446" y="0" flags="0x0"/>
    </TTGlyph>
    <TTGlyph name="B" xMin="6" yMin="-17" xMax="1280" yMax="1538">
      <contour>
        <pt x="158" y="127" on="1"/>
        <pt x="323" y="1391" on="1"/>
        <pt x="183" y="1416" on="1"/>
        <pt x="196" y="1522" on="1"/>
        <pt x="490" y="1522" on="1"/>
        <pt x="539" y="1522" on="0"/>
        <pt x="639" y="1530" on="1"/>
        <pt x="753" y="1538" on="0"/>
        <pt x="817" y="1538" on="1"/>
        <pt x="1070" y="1538" on="0"/>
        <pt x="1280" y="1347" on="0"/>
        <pt x="1280" y="1199" on="1"/>
        <pt x="1280" y="1046" on="0"/>
        <pt x="1107" y="853" on="0"/>
        <pt x="939" y="806" on="1"/>
        <pt x="1038" y="802" on="0"/>
        <pt x="1190" y="717" on="0"/>
        <pt x="1272" y="576" on="0"/>
        <pt x="1272" y="492" on="1"/>
        <pt x="1272" y="227" on="0"/>
        <pt x="902" y="-17" on="0"/>
        <pt x="567" y="-17" on="1"/>
        <pt x="511" y="-17" on="0"/>
        <pt x="417" y="-8" on="1"/>
        <pt x="315" y="0" on="0"/>
        <pt x="276" y="0" on="1"/>
        <pt x="6" y="0" on="1"/>
        <pt x="15" y="97" on="1"/>
      </contour>
      <contour>
        <pt x="527" y="855" on="1"/>
        <pt x="569" y="853" on="0"/>
        <pt x="589" y="853" on="1"/>
        <pt x="674" y="854" on="1"/>
        <pt x="769" y="854" on="0"/>
        <pt x="920" y="921" on="0"/>
        <pt x="1009" y="1065" on="0"/>
        <pt x="1009" y="1175" on="1"/>
        <pt x="1009" y="1296" on="0"/>
        <pt x="885" y="1416" on="0"/>
        <pt x="753" y="1416" on="1"/>
        <pt x="725" y="1416" on="0"/>
        <pt x="631" y="1409" on="0"/>
        <pt x="599" y="1403" on="1"/>
      </contour>
      <contour>
        <pt x="432" y="127" on="1"/>
        <pt x="466" y="118" on="0"/>
        <pt x="575" y="106" on="0"/>
        <pt x="610" y="106" on="1"/>
        <pt x="973" y="106" on="0"/>
        <pt x="973" y="446" on="1"/>
        <pt x="973" y="589" on="0"/>
        <pt x="836" y="722" on="0"/>
        <pt x="679" y="722" on="1"/>
        <pt x="581" y="722" on="0"/>
        <pt x="509" y="716" on="1"/>
      </contour>
    </TTGlyph>
    <TTGlyph name="C" xMin="75" yMin="-16" xMax="1289" yMax="1540">
      <contour>
        <pt x="1014" y="1540" on="0"/>
        <pt x="1158" y="1518" on="0"/>
        <pt x="1227" y="1500" on="1"/>
        <pt x="1233" y="1498" on="0"/>
        <pt x="1253" y="1493" on="1"/>
        <pt x="1289" y="1483" on="1"/>
        <pt x="1225" y="1097" on="1"/>
        <pt x="1032" y="1097" on="1"/>
        <pt x="1000" y="1384" on="1"/>
        <pt x="932" y="1416" on="0"/>
        <pt x="854" y="1416" on="1"/>
        <pt x="692" y="1416" on="0"/>
        <pt x="478" y="1179" on="0"/>
        <pt x="381" y="827" on="0"/>
        <pt x="385" y="653" on="1"/>
        <pt x="391" y="409" on="0"/>
        <pt x="539" y="126" on="0"/>
        <pt x="691" y="126" on="1"/>
        <pt x="757" y="126" on="0"/>
        <pt x="890" y="164" on="0"/>
        <pt x="930" y="213" on="1"/>
        <pt x="944" y="228" on="0"/>
        <pt x="991" y="363" on="0"/>
        <pt x="1005" y="412" on="1"/>
        <pt x="1171" y="412" on="1"/>
        <pt x="1129" y="107" on="1"/>
        <pt x="1048" y="57" on="0"/>
        <pt x="818" y="-16" on="0"/>
        <pt x="644" y="-16" on="1"/>
        <pt x="445" y="-16" on="0"/>
        <pt x="190" y="167" on="0"/>
        <pt x="75" y="465" on="0"/>
        <pt x="75" y="645" on="1"/>
        <pt x="75" y="916" on="0"/>
        <pt x="286" y="1322" on="0"/>
        <pt x="660" y="1540" on="0"/>
        <pt x="896" y="1540" on="1"/>
      </contour>
    </TTGlyph>
    <TTGlyph name="Cacute" xMin="75" yMin="-16" xMax="1289" yMax="2008">
      <component glyphName="C" x="0" y="0" flags="0x0"/>
      <component glyphName="acute.cap" x="744" y="0" flags="0x0"/>
    </TTGlyph>
    <TTGlyph name="Ccaron" xMin="75" yMin="-16" xMax="1297" yMax="2008">
      <component glyphName="C" x="0" y="0" flags="0x0"/>
      <component glyphName="caron.cap" x="483" y="0" flags="0x0"/>
    </TTGlyph>
    <TTGlyph name="Ccedilla" xMin="75" yMin="-473" xMax="1289" yMax="1540">
      <contour>
        <pt x="692" y="1416" on="0"/>
        <pt x="478" y="1179" on="0"/>
        <pt x="381" y="827" on="0"/>
        <pt x="385" y="653" on="1"/>
        <pt x="391" y="409" on="0"/>
        <pt x="539" y="126" on="0"/>
        <pt x="691" y="126" on="1"/>
        <pt x="757" y="126" on="0"/>
        <pt x="890" y="164" on="0"/>
        <pt x="930" y="213" on="1"/>
        <pt x="944" y="228" on="0"/>
        <pt x="991" y="363" on="0"/>
        <pt x="1005" y="412" on="1"/>
        <pt x="1171" y="412" on="1"/>
        <pt x="1129" y="107" on="1"/>
        <pt x="975" y="11" on="0"/>
        <pt x="766" y="-10" on="1"/>
        <pt x="777" y="-45" on="0"/>
        <pt x="791" y="-138" on="0"/>
        <pt x="791" y="-180" on="1"/>
        <pt x="791" y="-322" on="0"/>
        <pt x="643" y="-473" on="0"/>
        <pt x="500" y="-473" on="1"/>
        <pt x="457" y="-473" on="0"/>
        <pt x="349" y="-456" on="0"/>
        <pt x="333" y="-445" on="1"/>
        <pt x="359" y="-293" on="1"/>
        <pt x="372" y="-300" on="0"/>
        <pt x="419" y="-308" on="0"/>
        <pt x="443" y="-308" on="1"/>
        <pt x="529" y="-308" on="0"/>
        <pt x="626" y="-197" on="0"/>
        <pt x="626" y="-87" on="1"/>
        <pt x="626" y="-58" on="0"/>
        <pt x="622" y="-16" on="1"/>
        <pt x="431" y="-10" on="0"/>
        <pt x="186" y="175" on="0"/>
        <pt x="75" y="469" on="0"/>
        <pt x="75" y="645" on="1"/>
        <pt x="75" y="916" on="0"/>
        <pt x="286" y="1322" on="0"/>
        <pt x="660" y="1540" on="0"/>
        <pt x="896" y="1540" on="1"/>
        <pt x="1014" y="1540" on="0"/>
        <pt x="1158" y="1518" on="0"/>
        <pt x="1227" y="1500" on="1"/>
        <pt x="1233" y="1498" on="0"/>
        <pt x="1253" y="1493" on="1"/>
        <pt x="1289" y="1483" on="1"/>
        <pt x="1225" y="1097" on="1"/>
        <pt x="1032" y="1097" on="1"/>
        <pt x="1000" y="1384" on="1"/>
        <pt x="932" y="1416" on="0"/>
        <pt x="854" y="1416" on="1"/>
      </contour>
    </TTGlyph>
    <TTGlyph name="Ccircumflex" xMin="75" yMin="-16" xMax="1289" yMax="2008">
      <component glyphName="C" x="0" y="0" flags="0x0"/>
      <component glyphName="circumflex.cap" x="483" y="0" flags="0x0"/>
    </TTGlyph>
    <TTGlyph name="Cdotaccent" xMin="75" yMin="-16" xMax="1289" yMax="1966">
      <component glyphName="dotaccent.cap" x="697" y="0" flags="0x0"/>
      <component glyphName="C" x="0" y="0" flags="0x0"/>
    </TTGlyph>
    <TTGlyph name="D" xMin="-7" yMin="-16" xMax="1439" yMax="1538">
      <contour>
        <pt x="157" y="127" on="1"/>
        <pt x="323" y="1391" on="1"/>
        <pt x="184" y="1416" on="1"/>
        <pt x="195" y="1522" on="1"/>
        <pt x="504" y="1522" on="1"/>
        <pt x="550" y="1522" on="0"/>
        <pt x="652" y="1530" on="1"/>
        <pt x="764" y="1538" on="0"/>
        <pt x="823" y="1538" on="1"/>
        <pt x="1146" y="1538" on="0"/>
        <pt x="1439" y="1201" on="0"/>
        <pt x="1439" y="907" on="1"/>
        <pt x="1439" y="638" on="0"/>
        <pt x="1249" y="221" on="0"/>
        <pt x="873" y="-16" on="0"/>
        <pt x="604" y="-16" on="1"/>
        <pt x="586" y="-16" on="0"/>
        <pt x="523" y="-12" on="0"/>
        <pt x="502" y="-9" on="1"/>
        <pt x="458" y="-5" on="0"/>
        <pt x="336" y="0" on="0"/>
        <pt x="293" y="0" on="1"/>
        <pt x="-7" y="0" on="1"/>
        <pt x="4" y="97" on="1"/>
      </contour>
      <contour>
        <pt x="442" y="134" on="1"/>
        <pt x="477" y="122" on="0"/>
        <pt x="589" y="107" on="0"/>
        <pt x="629" y="107" on="1"/>
        <pt x="804" y="113" on="0"/>
        <pt x="1033" y="343" on="0"/>
        <pt x="1139" y="693" on="0"/>
        <pt x="1139" y="884" on="1"/>
        <pt x="1139" y="1079" on="0"/>
        <pt x="1064" y="1312" on="0"/>
        <pt x="905" y="1416" on="0"/>
        <pt x="775" y="1416" on="1"/>
        <pt x="728" y="1416" on="0"/>
        <pt x="630" y="1402" on="0"/>
        <pt x="605" y="1394" on="1"/>
      </contour>
    </TTGlyph>
    <TTGlyph name="Dcaron" xMin="-11" yMin="-16" xMax="1435" yMax="2008">
      <component glyphName="caron.cap" x="464" y="0" flags="0x0"/>
      <component glyphName="D" x="-4" y="0" flags="0x0"/>
    </TTGlyph>
    <TTGlyph name="Dcroat" xMin="-11" yMin="-14" xMax="1435" yMax="1540">
      <contour>
        <pt x="249" y="863" on="1"/>
        <pt x="319" y="1393" on="1"/>
        <pt x="180" y="1418" on="1"/>
        <pt x="191" y="1524" on="1"/>
        <pt x="500" y="1524" on="1"/>
        <pt x="546" y="1524" on="0"/>
        <pt x="648" y="1532" on="1"/>
        <pt x="760" y="1540" on="0"/>
        <pt x="819" y="1540" on="1"/>
        <pt x="1142" y="1540" on="0"/>
        <pt x="1435" y="1203" on="0"/>
        <pt x="1435" y="909" on="1"/>
        <pt x="1435" y="640" on="0"/>
        <pt x="1245" y="223" on="0"/>
        <pt x="869" y="-14" on="0"/>
        <pt x="600" y="-14" on="1"/>
        <pt x="582" y="-14" on="0"/>
        <pt x="519" y="-10" on="0"/>
        <pt x="498" y="-7" on="1"/>
        <pt x="454" y="-3" on="0"/>
        <pt x="332" y="2" on="0"/>
        <pt x="289" y="2" on="1"/>
        <pt x="-11" y="2" on="1"/>
        <pt x="0" y="99" on="1"/>
        <pt x="153" y="129" on="1"/>
        <pt x="229" y="711" on="1"/>
        <pt x="86" y="711" on="1"/>
        <pt x="108" y="863" on="1"/>
      </contour>
      <contour>
        <pt x="438" y="136" on="1"/>
        <pt x="473" y="124" on="0"/>
        <pt x="585" y="109" on="0"/>
        <pt x="625" y="109" on="1"/>
        <pt x="800" y="115" on="0"/>
        <pt x="1029" y="345" on="0"/>
        <pt x="1135" y="695" on="0"/>
        <pt x="1135" y="886" on="1"/>
        <pt x="1135" y="1081" on="0"/>
        <pt x="1060" y="1314" on="0"/>
        <pt x="901" y="1418" on="0"/>
        <pt x="771" y="1418" on="1"/>
        <pt x="724" y="1418" on="0"/>
        <pt x="626" y="1404" on="0"/>
        <pt x="601" y="1396" on="1"/>
        <pt x="532" y="863" on="1"/>
        <pt x="869" y="863" on="1"/>
        <pt x="848" y="711" on="1"/>
        <pt x="512" y="711" on="1"/>
      </contour>
    </TTGlyph>
    <TTGlyph name="E" xMin="-8" yMin="0" xMax="1227" yMax="1522">
      <contour>
        <pt x="159" y="127" on="1"/>
        <pt x="321" y="1391" on="1"/>
        <pt x="182" y="1416" on="1"/>
        <pt x="193" y="1522" on="1"/>
        <pt x="1227" y="1522" on="1"/>
        <pt x="1204" y="1178" on="1"/>
        <pt x="1033" y="1178" on="1"/>
        <pt x="993" y="1387" on="1"/>
        <pt x="609" y="1407" on="1"/>
        <pt x="536" y="862" on="1"/>
        <pt x="990" y="891" on="1"/>
        <pt x="964" y="693" on="1"/>
        <pt x="520" y="716" on="1"/>
        <pt x="440" y="127" on="1"/>
        <pt x="942" y="157" on="1"/>
        <pt x="1060" y="415" on="1"/>
        <pt x="1225" y="393" on="1"/>
        <pt x="1146" y="0" on="1"/>
        <pt x="-8" y="0" on="1"/>
        <pt x="4" y="97" on="1"/>
      </contour>
    </TTGlyph>
    <TTGlyph name="Eacute" xMin="-8" yMin="0" xMax="1227" yMax="2008">
      <component glyphName="acute.cap" x="671" y="0" flags="0x0"/>
      <component glyphName="E" x="0" y="0" flags="0x0"/>
    </TTGlyph>
    <TTGlyph name="Ebreve" xMin="-8" yMin="0" xMax="1227" yMax="1999">
      <component glyphName="breve.cap" x="455" y="0" flags="0x0"/>
      <component glyphName="E" x="0" y="0" flags="0x0"/>
    </TTGlyph>
    <TTGlyph name="Ecaron" xMin="-8" yMin="0" xMax="1227" yMax="2008">
      <component glyphName="caron.cap" x="410" y="0" flags="0x0"/>
      <component glyphName="E" x="0" y="0" flags="0x0"/>
    </TTGlyph>
    <TTGlyph name="Ecircumflex" xMin="-8" yMin="0" xMax="1227" yMax="2008">
      <component glyphName="E" x="0" y="0" flags="0x0"/>
      <component glyphName="circumflex.cap" x="411" y="0" flags="0x0"/>
    </TTGlyph>
    <TTGlyph name="Edieresis" xMin="-8" yMin="0" xMax="1227" yMax="1987">
      <component glyphName="dieresis.cap" x="419" y="0" flags="0x0"/>
      <component glyphName="E" x="0" y="0" flags="0x0"/>
    </TTGlyph>
    <TTGlyph name="Edotaccent" xMin="-8" yMin="0" xMax="1227" yMax="1966">
      <component glyphName="dotaccent.cap" x="625" y="0" flags="0x0"/>
      <component glyphName="E" x="0" y="0" flags="0x0"/>
    </TTGlyph>
    <TTGlyph name="Egrave" xMin="-8" yMin="0" xMax="1227" yMax="2008">
      <component glyphName="grave.cap" x="431" y="0" flags="0x0"/>
      <component glyphName="E" x="0" y="0" flags="0x0"/>
    </TTGlyph>
    <TTGlyph name="Emacron" xMin="-8" yMin="0" xMax="1227" yMax="1899">
      <component glyphName="macron.cap" x="484" y="0" flags="0x0"/>
      <component glyphName="E" x="0" y="0" flags="0x0"/>
    </TTGlyph>
    <TTGlyph name="Eng" xMin="2" yMin="-432" xMax="1602" yMax="1526">
      <contour>
        <pt x="153" y="126" on="1"/>
        <pt x="331" y="1396" on="1"/>
        <pt x="169" y="1420" on="1"/>
        <pt x="186" y="1526" on="1"/>
        <pt x="648" y="1526" on="1"/>
        <pt x="1076" y="531" on="1"/>
        <pt x="1143" y="306" on="1"/>
        <pt x="1271" y="1396" on="1"/>
        <pt x="1113" y="1420" on="1"/>
        <pt x="1125" y="1526" on="1"/>
        <pt x="1602" y="1526" on="1"/>
        <pt x="1592" y="1420" on="1"/>
        <pt x="1459" y="1396" on="1"/>
        <pt x="1256" y="0" on="1"/>
        <pt x="1239" y="-117" on="0"/>
        <pt x="1099" y="-304" on="0"/>
        <pt x="883" y="-419" on="0"/>
        <pt x="755" y="-432" on="1"/>
        <pt x="712" y="-327" on="1"/>
        <pt x="783" y="-308" on="0"/>
        <pt x="920" y="-218" on="0"/>
        <pt x="1011" y="-82" on="0"/>
        <pt x="1012" y="0" on="1"/>
        <pt x="540" y="1054" on="1"/>
        <pt x="472" y="1277" on="1"/>
        <pt x="351" y="127" on="1"/>
        <pt x="525" y="98" on="1"/>
        <pt x="516" y="0" on="1"/>
        <pt x="2" y="0" on="1"/>
        <pt x="10" y="97" on="1"/>
      </contour>
    </TTGlyph>
    <TTGlyph name="Eogonek" xMin="-8" yMin="-452" xMax="1227" yMax="1522">
      <contour>
        <pt x="159" y="127" on="1"/>
        <pt x="321" y="1391" on="1"/>
        <pt x="182" y="1416" on="1"/>
        <pt x="193" y="1522" on="1"/>
        <pt x="1227" y="1522" on="1"/>
        <pt x="1204" y="1178" on="1"/>
        <pt x="1033" y="1178" on="1"/>
        <pt x="993" y="1387" on="1"/>
        <pt x="609" y="1407" on="1"/>
        <pt x="536" y="862" on="1"/>
        <pt x="990" y="891" on="1"/>
        <pt x="964" y="693" on="1"/>
        <pt x="520" y="716" on="1"/>
        <pt x="440" y="127" on="1"/>
        <pt x="942" y="157" on="1"/>
        <pt x="1060" y="415" on="1"/>
        <pt x="1225" y="393" on="1"/>
        <pt x="1146" y="0" on="1"/>
        <pt x="1052" y="0" on="1"/>
        <pt x="968" y="-62" on="0"/>
        <pt x="874" y="-165" on="0"/>
        <pt x="873" y="-209" on="1"/>
        <pt x="872" y="-250" on="0"/>
        <pt x="906" y="-287" on="0"/>
        <pt x="933" y="-287" on="1"/>
        <pt x="966" y="-287" on="0"/>
        <pt x="1031" y="-255" on="0"/>
        <pt x="1076" y="-219" on="1"/>
        <pt x="1108" y="-324" on="1"/>
        <pt x="1051" y="-381" on="0"/>
        <pt x="898" y="-452" on="0"/>
        <pt x="805" y="-452" on="1"/>
        <pt x="720" y="-452" on="0"/>
        <pt x="630" y="-364" on="0"/>
        <pt x="630" y="-297" on="1"/>
        <pt x="630" y="-269" on="0"/>
        <pt x="654" y="-198" on="0"/>
        <pt x="673" y="-171" on="1"/>
        <pt x="719" y="-107" on="0"/>
        <pt x="817" y="-32" on="0"/>
        <pt x="880" y="0" on="1"/>
        <pt x="-8" y="0" on="1"/>
        <pt x="4" y="97" on="1"/>
      </contour>
    </TTGlyph>
    <TTGlyph name="Eth" xMin="-11" yMin="-14" xMax="1435" yMax="1540">
      <contour>
        <pt x="249" y="863" on="1"/>
        <pt x="319" y="1393" on="1"/>
        <pt x="180" y="1418" on="1"/>
        <pt x="191" y="1524" on="1"/>
        <pt x="500" y="1524" on="1"/>
        <pt x="546" y="1524" on="0"/>
        <pt x="648" y="1532" on="1"/>
        <pt x="760" y="1540" on="0"/>
        <pt x="819" y="1540" on="1"/>
        <pt x="1142" y="1540" on="0"/>
        <pt x="1435" y="1203" on="0"/>
        <pt x="1435" y="909" on="1"/>
        <pt x="1435" y="640" on="0"/>
        <pt x="1245" y="223" on="0"/>
        <pt x="869" y="-14" on="0"/>
        <pt x="600" y="-14" on="1"/>
        <pt x="582" y="-14" on="0"/>
        <pt x="519" y="-10" on="0"/>
        <pt x="498" y="-7" on="1"/>
        <pt x="454" y="-3" on="0"/>
        <pt x="332" y="2" on="0"/>
        <pt x="289" y="2" on="1"/>
        <pt x="-11" y="2" on="1"/>
        <pt x="0" y="99" on="1"/>
        <pt x="153" y="129" on="1"/>
        <pt x="229" y="711" on="1"/>
        <pt x="86" y="711" on="1"/>
        <pt x="108" y="863" on="1"/>
      </contour>
      <contour>
        <pt x="438" y="136" on="1"/>
        <pt x="473" y="124" on="0"/>
        <pt x="585" y="109" on="0"/>
        <pt x="625" y="109" on="1"/>
        <pt x="800" y="115" on="0"/>
        <pt x="1029" y="345" on="0"/>
        <pt x="1135" y="695" on="0"/>
        <pt x="1135" y="886" on="1"/>
        <pt x="1135" y="1081" on="0"/>
        <pt x="1060" y="1314" on="0"/>
        <pt x="901" y="1418" on="0"/>
        <pt x="771" y="1418" on="1"/>
        <pt x="724" y="1418" on="0"/>
        <pt x="626" y="1404" on="0"/>
        <pt x="601" y="1396" on="1"/>
        <pt x="532" y="863" on="1"/>
        <pt x="869" y="863" on="1"/>
        <pt x="848" y="711" on="1"/>
        <pt x="512" y="711" on="1"/>
      </contour>
    </TTGlyph>
    <TTGlyph name="Euro" xMin="33" yMin="-16" xMax="1367" yMax="1542">
      <contour>
        <pt x="292" y="1041" on="1"/>
        <pt x="349" y="1202" on="0"/>
        <pt x="553" y="1428" on="0"/>
        <pt x="817" y="1542" on="0"/>
        <pt x="964" y="1542" on="1"/>
        <pt x="1036" y="1542" on="0"/>
        <pt x="1149" y="1526" on="0"/>
        <pt x="1220" y="1507" on="0"/>
        <pt x="1278" y="1488" on="1"/>
        <pt x="1288" y="1485" on="0"/>
        <pt x="1330" y="1476" on="0"/>
        <pt x="1342" y="1473" on="1"/>
        <pt x="1367" y="1468" on="1"/>
        <pt x="1306" y="1175" on="1"/>
        <pt x="1184" y="1175" on="1"/>
        <pt x="1161" y="1336" on="1"/>
        <pt x="1123" y="1372" on="0"/>
        <pt x="1007" y="1412" on="0"/>
        <pt x="915" y="1412" on="1"/>
        <pt x="790" y="1412" on="0"/>
        <pt x="609" y="1218" on="0"/>
        <pt x="560" y="1041" on="1"/>
        <pt x="1051" y="1041" on="1"/>
        <pt x="1032" y="900" on="1"/>
        <pt x="530" y="900" on="1"/>
        <pt x="514" y="800" on="0"/>
        <pt x="510" y="695" on="1"/>
        <pt x="979" y="695" on="1"/>
        <pt x="966" y="553" on="1"/>
        <pt x="510" y="553" on="1"/>
        <pt x="518" y="347" on="0"/>
        <pt x="652" y="127" on="0"/>
        <pt x="773" y="127" on="1"/>
        <pt x="861" y="127" on="0"/>
        <pt x="985" y="173" on="0"/>
        <pt x="1018" y="216" on="1"/>
        <pt x="1089" y="381" on="1"/>
        <pt x="1220" y="380" on="1"/>
        <pt x="1172" y="70" on="1"/>
        <pt x="1106" y="65" on="0"/>
        <pt x="1027" y="44" on="1"/>
        <pt x="1001" y="35" on="1"/>
        <pt x="923" y="10" on="0"/>
        <pt x="803" y="-16" on="0"/>
        <pt x="721" y="-16" on="1"/>
        <pt x="565" y="-16" on="0"/>
        <pt x="355" y="133" on="0"/>
        <pt x="245" y="389" on="0"/>
        <pt x="233" y="553" on="1"/>
        <pt x="33" y="553" on="1"/>
        <pt x="48" y="695" on="1"/>
        <pt x="230" y="695" on="1"/>
        <pt x="234" y="800" on="0"/>
        <pt x="253" y="900" on="1"/>
        <pt x="100" y="900" on="1"/>
        <pt x="119" y="1041" on="1"/>
      </contour>
    </TTGlyph>
    <TTGlyph name="F" xMin="6" yMin="0" xMax="1256" yMax="1522">
      <contour>
        <pt x="159" y="127" on="1"/>
        <pt x="321" y="1391" on="1"/>
        <pt x="182" y="1416" on="1"/>
        <pt x="195" y="1522" on="1"/>
        <pt x="1256" y="1522" on="1"/>
        <pt x="1223" y="1171" on="1"/>
        <pt x="1046" y="1171" on="1"/>
        <pt x="1016" y="1384" on="1"/>
        <pt x="608" y="1406" on="1"/>
        <pt x="536" y="857" on="1"/>
        <pt x="1012" y="875" on="1"/>
        <pt x="990" y="680" on="1"/>
        <pt x="520" y="710" on="1"/>
        <pt x="443" y="128" on="1"/>
        <pt x="717" y="98" on="1"/>
        <pt x="709" y="0" on="1"/>
        <pt x="6" y="0" on="1"/>
        <pt x="16" y="98" on="1"/>
      </contour>
    </TTGlyph>
    <TTGlyph name="G" xMin="78" yMin="-16" xMax="1343" yMax="1540">
      <contour>
        <pt x="1008" y="1540" on="0"/>
        <pt x="1181" y="1512" on="0"/>
        <pt x="1265" y="1489" on="1"/>
        <pt x="1292" y="1482" on="1"/>
        <pt x="1343" y="1471" on="1"/>
        <pt x="1282" y="1154" on="1"/>
        <pt x="1091" y="1154" on="1"/>
        <pt x="1076" y="1364" on="1"/>
        <pt x="994" y="1416" on="0"/>
        <pt x="864" y="1416" on="1"/>
        <pt x="688" y="1416" on="0"/>
        <pt x="472" y="1199" on="0"/>
        <pt x="379" y="860" on="0"/>
        <pt x="379" y="663" on="1"/>
        <pt x="379" y="514" on="0"/>
        <pt x="443" y="269" on="0"/>
        <pt x="580" y="120" on="0"/>
        <pt x="685" y="120" on="1"/>
        <pt x="765" y="120" on="0"/>
        <pt x="887" y="141" on="0"/>
        <pt x="936" y="168" on="1"/>
        <pt x="992" y="590" on="1"/>
        <pt x="776" y="607" on="1"/>
        <pt x="792" y="740" on="1"/>
        <pt x="1298" y="740" on="1"/>
        <pt x="1208" y="88" on="1"/>
        <pt x="1140" y="81" on="0"/>
        <pt x="1046" y="55" on="1"/>
        <pt x="959" y="31" on="0"/>
        <pt x="851" y="5" on="0"/>
        <pt x="702" y="-16" on="0"/>
        <pt x="621" y="-16" on="1"/>
        <pt x="433" y="-16" on="0"/>
        <pt x="190" y="171" on="0"/>
        <pt x="78" y="474" on="0"/>
        <pt x="78" y="652" on="1"/>
        <pt x="78" y="917" on="0"/>
        <pt x="274" y="1319" on="0"/>
        <pt x="635" y="1540" on="0"/>
        <pt x="873" y="1540" on="1"/>
      </contour>
    </TTGlyph>
    <TTGlyph name="Gbreve" xMin="78" yMin="-16" xMax="1343" yMax="1999">
      <component glyphName="breve.cap" x="529" y="0" flags="0x0"/>
      <component glyphName="G" x="0" y="0" flags="0x0"/>
    </TTGlyph>
    <TTGlyph name="Gcaron" xMin="78" yMin="-16" xMax="1343" yMax="2008">
      <component glyphName="G" x="0" y="0" flags="0x0"/>
      <component glyphName="caron.cap" x="484" y="0" flags="0x0"/>
    </TTGlyph>
    <TTGlyph name="Gcircumflex" xMin="78" yMin="-16" xMax="1343" yMax="2008">
      <component glyphName="G" x="0" y="0" flags="0x0"/>
      <component glyphName="circumflex.cap" x="484" y="0" flags="0x0"/>
    </TTGlyph>
    <TTGlyph name="Gcommaaccent" xMin="78" yMin="-560" xMax="1343" yMax="1540">
      <component glyphName="uni0326" x="875" y="0" flags="0x0"/>
      <component glyphName="G" x="0" y="0" flags="0x0"/>
    </TTGlyph>
    <TTGlyph name="Gdotaccent" xMin="78" yMin="-16" xMax="1343" yMax="1966">
      <component glyphName="dotaccent.cap" x="699" y="0" flags="0x0"/>
      <component glyphName="G" x="0" y="0" flags="0x0"/>
    </TTGlyph>
    <TTGlyph name="Gtilde" xMin="78" yMin="-16" xMax="1343" yMax="1970">
      <component glyphName="G" x="0" y="0" flags="0x0"/>
      <component glyphName="tilde.cap" x="493" y="0" flags="0x0"/>
    </TTGlyph>
    <TTGlyph name="H" xMin="9" yMin="0" xMax="1649" yMax="1522">
      <contour>
        <pt x="1043" y="128" on="1"/>
        <pt x="1118" y="708" on="1"/>
        <pt x="520" y="708" on="1"/>
        <pt x="445" y="127" on="1"/>
        <pt x="612" y="98" on="1"/>
        <pt x="604" y="0" on="1"/>
        <pt x="9" y="0" on="1"/>
        <pt x="19" y="97" on="1"/>
        <pt x="161" y="127" on="1"/>
        <pt x="325" y="1391" on="1"/>
        <pt x="185" y="1416" on="1"/>
        <pt x="198" y="1522" on="1"/>
        <pt x="789" y="1522" on="1"/>
        <pt x="777" y="1416" on="1"/>
        <pt x="609" y="1391" on="1"/>
        <pt x="538" y="844" on="1"/>
        <pt x="1135" y="844" on="1"/>
        <pt x="1206" y="1391" on="1"/>
        <pt x="1041" y="1416" on="1"/>
        <pt x="1052" y="1522" on="1"/>
        <pt x="1649" y="1522" on="1"/>
        <pt x="1637" y="1416" on="1"/>
        <pt x="1490" y="1391" on="1"/>
        <pt x="1327" y="128" on="1"/>
        <pt x="1482" y="97" on="1"/>
        <pt x="1471" y="0" on="1"/>
        <pt x="853" y="0" on="1"/>
        <pt x="864" y="98" on="1"/>
      </contour>
    </TTGlyph>
    <TTGlyph name="Hbar" xMin="5" yMin="0" xMax="1642" yMax="1526">
      <contour>
        <pt x="1040" y="128" on="1"/>
        <pt x="1102" y="623" on="1"/>
        <pt x="505" y="623" on="1"/>
        <pt x="442" y="127" on="1"/>
        <pt x="609" y="98" on="1"/>
        <pt x="601" y="0" on="1"/>
        <pt x="5" y="0" on="1"/>
        <pt x="16" y="97" on="1"/>
        <pt x="158" y="127" on="1"/>
        <pt x="266" y="986" on="1"/>
        <pt x="84" y="986" on="1"/>
        <pt x="98" y="1122" on="1"/>
        <pt x="283" y="1122" on="1"/>
        <pt x="318" y="1396" on="1"/>
        <pt x="179" y="1420" on="1"/>
        <pt x="192" y="1526" on="1"/>
        <pt x="782" y="1526" on="1"/>
        <pt x="771" y="1420" on="1"/>
        <pt x="603" y="1396" on="1"/>
        <pt x="568" y="1122" on="1"/>
        <pt x="1165" y="1122" on="1"/>
        <pt x="1200" y="1396" on="1"/>
        <pt x="1034" y="1420" on="1"/>
        <pt x="1046" y="1526" on="1"/>
        <pt x="1642" y="1526" on="1"/>
        <pt x="1630" y="1420" on="1"/>
        <pt x="1483" y="1396" on="1"/>
        <pt x="1448" y="1122" on="1"/>
        <pt x="1637" y="1122" on="1"/>
        <pt x="1623" y="986" on="1"/>
        <pt x="1431" y="986" on="1"/>
        <pt x="1324" y="128" on="1"/>
        <pt x="1478" y="97" on="1"/>
        <pt x="1468" y="0" on="1"/>
        <pt x="849" y="0" on="1"/>
        <pt x="861" y="98" on="1"/>
      </contour>
      <contour>
        <pt x="1119" y="758" on="1"/>
        <pt x="1148" y="986" on="1"/>
        <pt x="551" y="986" on="1"/>
        <pt x="522" y="758" on="1"/>
      </contour>
    </TTGlyph>
    <TTGlyph name="Hcircumflex" xMin="9" yMin="0" xMax="1649" yMax="2008">
      <component glyphName="H" x="0" y="0" flags="0x0"/>
      <component glyphName="circumflex.cap" x="557" y="0" flags="0x0"/>
    </TTGlyph>
    <TTGlyph name="I" xMin="3" yMin="0" xMax="786" yMax="1522">
      <contour>
        <pt x="163" y="127" on="1"/>
        <pt x="327" y="1391" on="1"/>
        <pt x="186" y="1416" on="1"/>
        <pt x="198" y="1522" on="1"/>
        <pt x="786" y="1522" on="1"/>
        <pt x="775" y="1416" on="1"/>
        <pt x="611" y="1391" on="1"/>
        <pt x="448" y="127" on="1"/>
        <pt x="615" y="98" on="1"/>
        <pt x="607" y="0" on="1"/>
        <pt x="3" y="0" on="1"/>
        <pt x="14" y="97" on="1"/>
      </contour>
    </TTGlyph>
    <TTGlyph name="IJ" xMin="3" yMin="-345" xMax="1517" yMax="1522">
      <component glyphName="I" x="0" y="0" flags="0x0"/>
      <component glyphName="J" x="740" y="0" flags="0x0"/>
    </TTGlyph>
    <TTGlyph name="IJ_acutecomb" xMin="3" yMin="-345" xMax="1609" yMax="2012">
      <contour>
        <pt x="1449" y="2012" on="1"/>
        <pt x="1609" y="1856" on="1"/>
        <pt x="1585" y="1807" on="0"/>
        <pt x="1461" y="1699" on="0"/>
        <pt x="1317" y="1612" on="0"/>
        <pt x="1266" y="1593" on="1"/>
        <pt x="1173" y="1670" on="1"/>
      </contour>
      <contour>
        <pt x="709" y="2008" on="1"/>
        <pt x="869" y="1852" on="1"/>
        <pt x="845" y="1803" on="0"/>
        <pt x="721" y="1695" on="0"/>
        <pt x="577" y="1608" on="0"/>
        <pt x="526" y="1589" on="1"/>
        <pt x="433" y="1666" on="1"/>
      </contour>
      <contour>
        <pt x="163" y="127" on="1"/>
        <pt x="327" y="1391" on="1"/>
        <pt x="186" y="1416" on="1"/>
        <pt x="198" y="1522" on="1"/>
        <pt x="786" y="1522" on="1"/>
        <pt x="775" y="1416" on="1"/>
        <pt x="611" y="1391" on="1"/>
        <pt x="448" y="127" on="1"/>
        <pt x="615" y="98" on="1"/>
        <pt x="607" y="0" on="1"/>
        <pt x="3" y="0" on="1"/>
        <pt x="14" y="97" on="1"/>
      </contour>
      <contour>
        <pt x="933" y="1416" on="1"/>
        <pt x="948" y="1522" on="1"/>
        <pt x="1517" y="1522" on="1"/>
        <pt x="1506" y="1416" on="1"/>
        <pt x="1357" y="1392" on="1"/>
        <pt x="1353" y="1354" on="1"/>
        <pt x="1283" y="752" on="0"/>
        <pt x="1206" y="137" on="0"/>
        <pt x="1185" y="75" on="1"/>
        <pt x="1145" y="-45" on="0"/>
        <pt x="971" y="-221" on="0"/>
        <pt x="741" y="-326" on="0"/>
        <pt x="613" y="-345" on="1"/>
        <pt x="569" y="-246" on="1"/>
        <pt x="665" y="-217" on="0"/>
        <pt x="807" y="-112" on="0"/>
        <pt x="891" y="18" on="0"/>
        <pt x="905" y="86" on="1"/>
        <pt x="947" y="294" on="0"/>
        <pt x="1007" y="752" on="0"/>
        <pt x="1049" y="1131" on="1"/>
        <pt x="1055" y="1187" on="0"/>
        <pt x="1069" y="1317" on="0"/>
        <pt x="1078" y="1391" on="1"/>
      </contour>
    </TTGlyph>
    <TTGlyph name="Iacute" xMin="3" yMin="0" xMax="869" yMax="2008">
      <component glyphName="I" x="0" y="0" flags="0x0"/>
      <component glyphName="acute.cap" x="397" y="0" flags="0x0"/>
    </TTGlyph>
    <TTGlyph name="Ibreve" xMin="3" yMin="0" xMax="875" yMax="1999">
      <component glyphName="I" x="0" y="0" flags="0x0"/>
      <component glyphName="breve.cap" x="181" y="0" flags="0x0"/>
    </TTGlyph>
    <TTGlyph name="Icircumflex" xMin="3" yMin="0" xMax="903" yMax="2008">
      <component glyphName="I" x="0" y="0" flags="0x0"/>
      <component glyphName="circumflex.cap" x="136" y="0" flags="0x0"/>
    </TTGlyph>
    <TTGlyph name="Idieresis" xMin="3" yMin="0" xMax="914" yMax="1987">
      <component glyphName="I" x="0" y="0" flags="0x0"/>
      <component glyphName="dieresis.cap" x="145" y="0" flags="0x0"/>
    </TTGlyph>
    <TTGlyph name="Idotaccent" xMin="3" yMin="0" xMax="786" yMax="1966">
      <component glyphName="I" x="0" y="0" flags="0x0"/>
      <component glyphName="dotaccent.cap" x="351" y="0" flags="0x0"/>
    </TTGlyph>
    <TTGlyph name="Igrave" xMin="3" yMin="0" xMax="786" yMax="2008">
      <component glyphName="I" x="0" y="0" flags="0x0"/>
      <component glyphName="grave.cap" x="157" y="0" flags="0x0"/>
    </TTGlyph>
    <TTGlyph name="Imacron" xMin="3" yMin="0" xMax="819" yMax="1899">
      <component glyphName="I" x="0" y="0" flags="0x0"/>
      <component glyphName="macron.cap" x="210" y="0" flags="0x0"/>
    </TTGlyph>
    <TTGlyph name="Iogonek" xMin="-23" yMin="-452" xMax="786" yMax="1522">
      <contour>
        <pt x="163" y="127" on="1"/>
        <pt x="327" y="1391" on="1"/>
        <pt x="186" y="1416" on="1"/>
        <pt x="198" y="1522" on="1"/>
        <pt x="786" y="1522" on="1"/>
        <pt x="775" y="1416" on="1"/>
        <pt x="611" y="1391" on="1"/>
        <pt x="448" y="127" on="1"/>
        <pt x="615" y="98" on="1"/>
        <pt x="607" y="0" on="1"/>
        <pt x="399" y="0" on="1"/>
        <pt x="315" y="-62" on="0"/>
        <pt x="221" y="-165" on="0"/>
        <pt x="220" y="-209" on="1"/>
        <pt x="219" y="-251" on="0"/>
        <pt x="254" y="-287" on="0"/>
        <pt x="281" y="-287" on="1"/>
        <pt x="314" y="-287" on="0"/>
        <pt x="379" y="-254" on="0"/>
        <pt x="424" y="-219" on="1"/>
        <pt x="455" y="-324" on="1"/>
        <pt x="398" y="-381" on="0"/>
        <pt x="245" y="-452" on="0"/>
        <pt x="153" y="-452" on="1"/>
        <pt x="68" y="-452" on="0"/>
        <pt x="-23" y="-364" on="0"/>
        <pt x="-23" y="-297" on="1"/>
        <pt x="-23" y="-269" on="0"/>
        <pt x="1" y="-198" on="0"/>
        <pt x="20" y="-171" on="1"/>
        <pt x="66" y="-107" on="0"/>
        <pt x="164" y="-32" on="0"/>
        <pt x="227" y="0" on="1"/>
        <pt x="3" y="0" on="1"/>
        <pt x="14" y="97" on="1"/>
      </contour>
    </TTGlyph>
    <TTGlyph name="Itilde" xMin="3" yMin="0" xMax="930" yMax="1970">
      <component glyphName="I" x="0" y="0" flags="0x0"/>
      <component glyphName="tilde.cap" x="145" y="0" flags="0x0"/>
    </TTGlyph>
    <TTGlyph name="J" xMin="-171" yMin="-345" xMax="777" yMax="1522">
      <contour>
        <pt x="193" y="1416" on="1"/>
        <pt x="208" y="1522" on="1"/>
        <pt x="777" y="1522" on="1"/>
        <pt x="766" y="1416" on="1"/>
        <pt x="617" y="1392" on="1"/>
        <pt x="613" y="1354" on="1"/>
        <pt x="543" y="752" on="0"/>
        <pt x="466" y="137" on="0"/>
        <pt x="445" y="75" on="1"/>
        <pt x="405" y="-45" on="0"/>
        <pt x="231" y="-221" on="0"/>
        <pt x="1" y="-326" on="0"/>
        <pt x="-127" y="-345" on="1"/>
        <pt x="-171" y="-246" on="1"/>
        <pt x="-75" y="-217" on="0"/>
        <pt x="67" y="-112" on="0"/>
        <pt x="151" y="18" on="0"/>
        <pt x="165" y="86" on="1"/>
        <pt x="207" y="294" on="0"/>
        <pt x="267" y="752" on="0"/>
        <pt x="309" y="1131" on="1"/>
        <pt x="315" y="1187" on="0"/>
        <pt x="329" y="1317" on="0"/>
        <pt x="338" y="1391" on="1"/>
      </contour>
    </TTGlyph>
    <TTGlyph name="Jcircumflex" xMin="-171" yMin="-345" xMax="884" yMax="2008">
      <component glyphName="J" x="0" y="0" flags="0x0"/>
      <component glyphName="circumflex.cap" x="117" y="0" flags="0x0"/>
    </TTGlyph>
    <TTGlyph name="K" xMin="1" yMin="0" xMax="1484" yMax="1522">
      <contour>
        <pt x="809" y="396" on="1"/>
        <pt x="717" y="609" on="0"/>
        <pt x="676" y="688" on="1"/>
        <pt x="490" y="495" on="1"/>
        <pt x="443" y="127" on="1"/>
        <pt x="610" y="98" on="1"/>
        <pt x="601" y="0" on="1"/>
        <pt x="1" y="0" on="1"/>
        <pt x="12" y="97" on="1"/>
        <pt x="159" y="127" on="1"/>
        <pt x="322" y="1391" on="1"/>
        <pt x="183" y="1416" on="1"/>
        <pt x="196" y="1522" on="1"/>
        <pt x="786" y="1522" on="1"/>
        <pt x="775" y="1416" on="1"/>
        <pt x="606" y="1391" on="1"/>
        <pt x="517" y="705" on="1"/>
        <pt x="1135" y="1391" on="1"/>
        <pt x="1008" y="1417" on="1"/>
        <pt x="1020" y="1522" on="1"/>
        <pt x="1484" y="1522" on="1"/>
        <pt x="1470" y="1416" on="1"/>
        <pt x="1354" y="1392" on="1"/>
        <pt x="861" y="880" on="1"/>
        <pt x="900" y="815" on="0"/>
        <pt x="1016" y="591" on="1"/>
        <pt x="1092" y="447" on="1"/>
        <pt x="1102" y="429" on="1"/>
        <pt x="1189" y="271" on="0"/>
        <pt x="1264" y="154" on="0"/>
        <pt x="1294" y="137" on="1"/>
        <pt x="1417" y="100" on="1"/>
        <pt x="1404" y="0" on="1"/>
        <pt x="1042" y="0" on="1"/>
        <pt x="1003" y="5" on="0"/>
        <pt x="922" y="140" on="0"/>
        <pt x="864" y="272" on="1"/>
      </contour>
    </TTGlyph>
    <TTGlyph name="Kcommaaccent" xMin="-3" yMin="-558" xMax="1480" yMax="1522">
      <component glyphName="uni0326" x="913" y="2" flags="0x4"/>
      <component glyphName="K" x="-4" y="0" flags="0x0"/>
    </TTGlyph>
    <TTGlyph name="L" xMin="6" yMin="0" xMax="1180" yMax="1522">
      <contour>
        <pt x="159" y="127" on="1"/>
        <pt x="322" y="1391" on="1"/>
        <pt x="182" y="1416" on="1"/>
        <pt x="195" y="1522" on="1"/>
        <pt x="803" y="1522" on="1"/>
        <pt x="791" y="1416" on="1"/>
        <pt x="606" y="1391" on="1"/>
        <pt x="443" y="123" on="1"/>
        <pt x="850" y="139" on="1"/>
        <pt x="1028" y="536" on="1"/>
        <pt x="1180" y="513" on="1"/>
        <pt x="1080" y="0" on="1"/>
        <pt x="6" y="0" on="1"/>
        <pt x="17" y="98" on="1"/>
      </contour>
    </TTGlyph>
    <TTGlyph name="Lacute" xMin="6" yMin="0" xMax="1180" yMax="2010">
      <component glyphName="acute.cap" x="419" y="2" flags="0x4"/>
      <component glyphName="L" x="0" y="0" flags="0x0"/>
    </TTGlyph>
    <TTGlyph name="Lcaron" xMin="6" yMin="0" xMax="1190" yMax="1650">
      <component glyphName="L" x="0" y="0" flags="0x0"/>
      <component glyphName="caronvertical" x="730" y="-30" flags="0x4"/>
    </TTGlyph>
    <TTGlyph name="Lcommaaccent" xMin="6" yMin="-558" xMax="1180" yMax="1522">
      <component glyphName="uni0326" x="743" y="2" flags="0x4"/>
      <component glyphName="L" x="0" y="0" flags="0x0"/>
    </TTGlyph>
    <TTGlyph name="Ldot" xMin="6" yMin="0" xMax="1233" yMax="1522">
      <component glyphName="L" x="0" y="0" flags="0x0"/>
      <component glyphName="period" x="848" y="757" flags="0x4"/>
    </TTGlyph>
    <TTGlyph name="Lslash" xMin="6" yMin="2" xMax="1180" yMax="1524">
      <contour>
        <pt x="231" y="687" on="1"/>
        <pt x="322" y="1393" on="1"/>
        <pt x="182" y="1418" on="1"/>
        <pt x="195" y="1524" on="1"/>
        <pt x="803" y="1524" on="1"/>
        <pt x="791" y="1418" on="1"/>
        <pt x="606" y="1393" on="1"/>
        <pt x="531" y="812" on="1"/>
        <pt x="878" y="957" on="1"/>
        <pt x="913" y="830" on="1"/>
        <pt x="512" y="667" on="1"/>
        <pt x="443" y="125" on="1"/>
        <pt x="850" y="141" on="1"/>
        <pt x="1028" y="538" on="1"/>
        <pt x="1180" y="515" on="1"/>
        <pt x="1080" y="2" on="1"/>
        <pt x="6" y="2" on="1"/>
        <pt x="17" y="100" on="1"/>
        <pt x="159" y="129" on="1"/>
        <pt x="212" y="544" on="1"/>
        <pt x="61" y="483" on="1"/>
        <pt x="25" y="601" on="1"/>
      </contour>
    </TTGlyph>
    <TTGlyph name="M" xMin="-73" yMin="-18" xMax="1956" yMax="1522">
      <contour>
        <pt x="99" y="127" on="1"/>
        <pt x="421" y="1391" on="1"/>
        <pt x="242" y="1416" on="1"/>
        <pt x="256" y="1522" on="1"/>
        <pt x="836" y="1522" on="1"/>
        <pt x="964" y="588" on="1"/>
        <pt x="982" y="418" on="1"/>
        <pt x="1042" y="588" on="1"/>
        <pt x="1160" y="871" on="1"/>
        <pt x="1432" y="1522" on="1"/>
        <pt x="1956" y="1522" on="1"/>
        <pt x="1944" y="1416" on="1"/>
        <pt x="1773" y="1391" on="1"/>
        <pt x="1740" y="128" on="1"/>
        <pt x="1909" y="98" on="1"/>
        <pt x="1900" y="0" on="1"/>
        <pt x="1269" y="0" on="1"/>
        <pt x="1278" y="99" on="1"/>
        <pt x="1461" y="127" on="1"/>
        <pt x="1509" y="1001" on="1"/>
        <pt x="1534" y="1401" on="1"/>
        <pt x="1394" y="1049" on="1"/>
        <pt x="940" y="-3" on="1"/>
        <pt x="797" y="-18" on="1"/>
        <pt x="644" y="1025" on="1"/>
        <pt x="587" y="1401" on="1"/>
        <pt x="507" y="1015" on="1"/>
        <pt x="297" y="127" on="1"/>
        <pt x="504" y="98" on="1"/>
        <pt x="495" y="0" on="1"/>
        <pt x="-73" y="0" on="1"/>
        <pt x="-61" y="98" on="1"/>
      </contour>
    </TTGlyph>
    <TTGlyph name="N" xMin="4" yMin="0" xMax="1609" yMax="1522">
      <contour>
        <pt x="156" y="126" on="1"/>
        <pt x="334" y="1391" on="1"/>
        <pt x="175" y="1416" on="1"/>
        <pt x="191" y="1522" on="1"/>
        <pt x="652" y="1522" on="1"/>
        <pt x="1066" y="484" on="1"/>
        <pt x="1141" y="252" on="1"/>
        <pt x="1280" y="1392" on="1"/>
        <pt x="1118" y="1416" on="1"/>
        <pt x="1129" y="1522" on="1"/>
        <pt x="1609" y="1522" on="1"/>
        <pt x="1598" y="1416" on="1"/>
        <pt x="1465" y="1391" on="1"/>
        <pt x="1257" y="0" on="1"/>
        <pt x="974" y="0" on="1"/>
        <pt x="547" y="1058" on="1"/>
        <pt x="476" y="1298" on="1"/>
        <pt x="351" y="127" on="1"/>
        <pt x="527" y="98" on="1"/>
        <pt x="518" y="0" on="1"/>
        <pt x="4" y="0" on="1"/>
        <pt x="12" y="97" on="1"/>
      </contour>
    </TTGlyph>
    <TTGlyph name="Nacute" xMin="4" yMin="0" xMax="1609" yMax="2008">
      <component glyphName="acute.cap" x="777" y="0" flags="0x0"/>
      <component glyphName="N" x="0" y="0" flags="0x0"/>
    </TTGlyph>
    <TTGlyph name="Ncaron" xMin="4" yMin="0" xMax="1609" yMax="2008">
      <component glyphName="caron.cap" x="516" y="0" flags="0x0"/>
      <component glyphName="N" x="0" y="0" flags="0x0"/>
    </TTGlyph>
    <TTGlyph name="Ncommaaccent" xMin="4" yMin="-560" xMax="1609" yMax="1522">
      <component glyphName="uni0326" x="890" y="0" flags="0x0"/>
      <component glyphName="N" x="0" y="0" flags="0x0"/>
    </TTGlyph>
    <TTGlyph name="Ntilde" xMin="4" yMin="0" xMax="1609" yMax="1970">
      <component glyphName="tilde.cap" x="525" y="0" flags="0x0"/>
      <component glyphName="N" x="0" y="0" flags="0x0"/>
    </TTGlyph>
    <TTGlyph name="O" xMin="87" yMin="-20" xMax="1377" yMax="1542">
      <contour>
        <pt x="1019" y="1542" on="0"/>
        <pt x="1263" y="1367" on="0"/>
        <pt x="1377" y="1073" on="0"/>
        <pt x="1377" y="890" on="1"/>
        <pt x="1377" y="642" on="0"/>
        <pt x="1204" y="227" on="0"/>
        <pt x="866" y="-20" on="0"/>
        <pt x="631" y="-20" on="1"/>
        <pt x="447" y="-20" on="0"/>
        <pt x="203" y="152" on="0"/>
        <pt x="87" y="450" on="0"/>
        <pt x="87" y="640" on="1"/>
        <pt x="87" y="887" on="0"/>
        <pt x="265" y="1299" on="0"/>
        <pt x="603" y="1542" on="0"/>
        <pt x="833" y="1542" on="1"/>
      </contour>
      <contour>
        <pt x="1072" y="1128" on="0"/>
        <pt x="940" y="1418" on="0"/>
        <pt x="803" y="1418" on="1"/>
        <pt x="681" y="1418" on="0"/>
        <pt x="492" y="1213" on="0"/>
        <pt x="389" y="865" on="0"/>
        <pt x="389" y="659" on="1"/>
        <pt x="389" y="414" on="0"/>
        <pt x="517" y="101" on="0"/>
        <pt x="660" y="101" on="1"/>
        <pt x="786" y="101" on="0"/>
        <pt x="973" y="300" on="0"/>
        <pt x="1072" y="646" on="0"/>
        <pt x="1072" y="863" on="1"/>
      </contour>
    </TTGlyph>
    <TTGlyph name="OE" xMin="79" yMin="-20" xMax="2166" yMax="1541">
      <contour>
        <pt x="995" y="1541" on="0"/>
        <pt x="1206" y="1405" on="0"/>
        <pt x="1263" y="1283" on="1"/>
        <pt x="1293" y="1522" on="1"/>
        <pt x="2166" y="1522" on="1"/>
        <pt x="2143" y="1187" on="1"/>
        <pt x="1972" y="1187" on="1"/>
        <pt x="1932" y="1387" on="1"/>
        <pt x="1567" y="1407" on="1"/>
        <pt x="1493" y="858" on="1"/>
        <pt x="1924" y="893" on="1"/>
        <pt x="1896" y="689" on="1"/>
        <pt x="1478" y="716" on="1"/>
        <pt x="1401" y="127" on="1"/>
        <pt x="1886" y="157" on="1"/>
        <pt x="1994" y="405" on="1"/>
        <pt x="2159" y="384" on="1"/>
        <pt x="2091" y="0" on="1"/>
        <pt x="1105" y="0" on="1"/>
        <pt x="1130" y="203" on="1"/>
        <pt x="1041" y="96" on="0"/>
        <pt x="794" y="-20" on="0"/>
        <pt x="636" y="-20" on="1"/>
        <pt x="455" y="-20" on="0"/>
        <pt x="204" y="145" on="0"/>
        <pt x="79" y="442" on="0"/>
        <pt x="79" y="640" on="1"/>
        <pt x="79" y="888" on="0"/>
        <pt x="260" y="1299" on="0"/>
        <pt x="604" y="1541" on="0"/>
        <pt x="836" y="1541" on="1"/>
      </contour>
      <contour>
        <pt x="1088" y="1139" on="0"/>
        <pt x="951" y="1416" on="0"/>
        <pt x="806" y="1416" on="1"/>
        <pt x="681" y="1416" on="0"/>
        <pt x="485" y="1217" on="0"/>
        <pt x="377" y="883" on="0"/>
        <pt x="377" y="689" on="1"/>
        <pt x="377" y="420" on="0"/>
        <pt x="505" y="102" on="0"/>
        <pt x="665" y="101" on="1"/>
        <pt x="795" y="101" on="0"/>
        <pt x="986" y="300" on="0"/>
        <pt x="1088" y="646" on="0"/>
        <pt x="1088" y="862" on="1"/>
      </contour>
    </TTGlyph>
    <TTGlyph name="Oacute" xMin="89" yMin="-20" xMax="1379" yMax="2008">
      <component glyphName="acute.cap" x="717" y="0" flags="0x0"/>
      <component glyphName="O" x="2" y="0" flags="0x0"/>
    </TTGlyph>
    <TTGlyph name="Obreve" xMin="89" yMin="-20" xMax="1379" yMax="1999">
      <component glyphName="breve.cap" x="501" y="0" flags="0x0"/>
      <component glyphName="O" x="2" y="0" flags="0x0"/>
    </TTGlyph>
    <TTGlyph name="Ocircumflex" xMin="87" yMin="-20" xMax="1377" yMax="2008">
      <component glyphName="O" x="0" y="0" flags="0x0"/>
      <component glyphName="circumflex.cap" x="455" y="0" flags="0x0"/>
    </TTGlyph>
    <TTGlyph name="Odieresis" xMin="89" yMin="-20" xMax="1379" yMax="1987">
      <component glyphName="dieresis.cap" x="465" y="0" flags="0x0"/>
      <component glyphName="O" x="2" y="0" flags="0x0"/>
    </TTGlyph>
    <TTGlyph name="Ograve" xMin="89" yMin="-20" xMax="1379" yMax="2008">
      <component glyphName="grave.cap" x="477" y="0" flags="0x0"/>
      <component glyphName="O" x="2" y="0" flags="0x0"/>
    </TTGlyph>
    <TTGlyph name="Ohungarumlaut" xMin="87" yMin="-20" xMax="1411" yMax="2008">
      <component glyphName="O" x="0" y="0" flags="0x0"/>
      <component glyphName="hungarumlaut.cap" x="500" y="0" flags="0x0"/>
    </TTGlyph>
    <TTGlyph name="Omacron" xMin="89" yMin="-20" xMax="1379" yMax="1899">
      <component glyphName="macron.cap" x="530" y="0" flags="0x0"/>
      <component glyphName="O" x="2" y="0" flags="0x0"/>
    </TTGlyph>
    <TTGlyph name="Oslash" xMin="89" yMin="-156" xMax="1379" yMax="1693">
      <contour>
        <pt x="984" y="1544" on="0"/>
        <pt x="1094" y="1485" on="1"/>
        <pt x="1228" y="1693" on="1"/>
        <pt x="1318" y="1642" on="1"/>
        <pt x="1179" y="1428" on="1"/>
        <pt x="1280" y="1341" on="0"/>
        <pt x="1379" y="1061" on="0"/>
        <pt x="1379" y="892" on="1"/>
        <pt x="1379" y="644" on="0"/>
        <pt x="1206" y="229" on="0"/>
        <pt x="868" y="-18" on="0"/>
        <pt x="633" y="-18" on="1"/>
        <pt x="467" y="-18" on="0"/>
        <pt x="348" y="54" on="1"/>
        <pt x="212" y="-156" on="1"/>
        <pt x="121" y="-104" on="1"/>
        <pt x="266" y="119" on="1"/>
        <pt x="177" y="207" on="0"/>
        <pt x="89" y="476" on="0"/>
        <pt x="89" y="642" on="1"/>
        <pt x="89" y="889" on="0"/>
        <pt x="267" y="1301" on="0"/>
        <pt x="605" y="1544" on="0"/>
        <pt x="835" y="1544" on="1"/>
      </contour>
      <contour>
        <pt x="987" y="1313" on="1"/>
        <pt x="920" y="1420" on="0"/>
        <pt x="805" y="1420" on="1"/>
        <pt x="683" y="1420" on="0"/>
        <pt x="494" y="1215" on="0"/>
        <pt x="391" y="867" on="0"/>
        <pt x="391" y="661" on="1"/>
        <pt x="391" y="467" on="0"/>
        <pt x="429" y="335" on="1"/>
      </contour>
      <contour>
        <pt x="1074" y="1083" on="0"/>
        <pt x="1030" y="1218" on="1"/>
        <pt x="469" y="232" on="1"/>
        <pt x="538" y="103" on="0"/>
        <pt x="662" y="103" on="1"/>
        <pt x="788" y="103" on="0"/>
        <pt x="975" y="302" on="0"/>
        <pt x="1074" y="648" on="0"/>
        <pt x="1074" y="865" on="1"/>
      </contour>
    </TTGlyph>
    <TTGlyph name="Otilde" xMin="89" yMin="-20" xMax="1379" yMax="1970">
      <component glyphName="tilde.cap" x="465" y="0" flags="0x0"/>
      <component glyphName="O" x="2" y="0" flags="0x0"/>
    </TTGlyph>
    <TTGlyph name="P" xMin="6" yMin="0" xMax="1306" yMax="1538">
      <contour>
        <pt x="158" y="127" on="1"/>
        <pt x="323" y="1391" on="1"/>
        <pt x="182" y="1416" on="1"/>
        <pt x="195" y="1522" on="1"/>
        <pt x="483" y="1522" on="1"/>
        <pt x="540" y="1522" on="0"/>
        <pt x="642" y="1530" on="1"/>
        <pt x="742" y="1538" on="0"/>
        <pt x="792" y="1538" on="1"/>
        <pt x="1060" y="1538" on="0"/>
        <pt x="1306" y="1331" on="0"/>
        <pt x="1306" y="1119" on="1"/>
        <pt x="1306" y="933" on="0"/>
        <pt x="1135" y="666" on="0"/>
        <pt x="832" y="527" on="0"/>
        <pt x="636" y="527" on="1"/>
        <pt x="535" y="527" on="0"/>
        <pt x="495" y="531" on="1"/>
        <pt x="447" y="127" on="1"/>
        <pt x="689" y="98" on="1"/>
        <pt x="681" y="0" on="1"/>
        <pt x="6" y="0" on="1"/>
        <pt x="16" y="97" on="1"/>
      </contour>
      <contour>
        <pt x="829" y="656" on="0"/>
        <pt x="1012" y="906" on="0"/>
        <pt x="1012" y="1134" on="1"/>
        <pt x="1012" y="1277" on="0"/>
        <pt x="884" y="1416" on="0"/>
        <pt x="750" y="1416" on="1"/>
        <pt x="681" y="1416" on="0"/>
        <pt x="609" y="1401" on="1"/>
        <pt x="510" y="665" on="1"/>
        <pt x="575" y="652" on="0"/>
        <pt x="645" y="654" on="1"/>
      </contour>
    </TTGlyph>
    <TTGlyph name="Q" xMin="86" yMin="-403" xMax="1376" yMax="1542">
      <contour>
        <pt x="1018" y="1542" on="0"/>
        <pt x="1262" y="1368" on="0"/>
        <pt x="1376" y="1075" on="0"/>
        <pt x="1376" y="892" on="1"/>
        <pt x="1376" y="670" on="0"/>
        <pt x="1236" y="287" on="0"/>
        <pt x="963" y="28" on="0"/>
        <pt x="771" y="-7" on="1"/>
        <pt x="772" y="-82" on="0"/>
        <pt x="847" y="-158" on="0"/>
        <pt x="966" y="-181" on="0"/>
        <pt x="1058" y="-181" on="1"/>
        <pt x="1108" y="-181" on="0"/>
        <pt x="1261" y="-159" on="0"/>
        <pt x="1311" y="-140" on="1"/>
        <pt x="1313" y="-304" on="1"/>
        <pt x="1266" y="-341" on="0"/>
        <pt x="1083" y="-403" on="0"/>
        <pt x="973" y="-403" on="1"/>
        <pt x="796" y="-403" on="0"/>
        <pt x="603" y="-266" on="0"/>
        <pt x="603" y="-135" on="1"/>
        <pt x="603" y="-85" on="0"/>
        <pt x="620" y="-20" on="1"/>
        <pt x="439" y="-18" on="0"/>
        <pt x="200" y="156" on="0"/>
        <pt x="86" y="451" on="0"/>
        <pt x="86" y="640" on="1"/>
        <pt x="86" y="887" on="0"/>
        <pt x="264" y="1299" on="0"/>
        <pt x="602" y="1542" on="0"/>
        <pt x="832" y="1542" on="1"/>
      </contour>
      <contour>
        <pt x="1071" y="1128" on="0"/>
        <pt x="939" y="1418" on="0"/>
        <pt x="802" y="1418" on="1"/>
        <pt x="680" y="1418" on="0"/>
        <pt x="491" y="1213" on="0"/>
        <pt x="388" y="865" on="0"/>
        <pt x="388" y="659" on="1"/>
        <pt x="388" y="414" on="0"/>
        <pt x="516" y="101" on="0"/>
        <pt x="659" y="101" on="1"/>
        <pt x="785" y="101" on="0"/>
        <pt x="972" y="300" on="0"/>
        <pt x="1071" y="646" on="0"/>
        <pt x="1071" y="863" on="1"/>
      </contour>
    </TTGlyph>
    <TTGlyph name="R" xMin="15" yMin="-1" xMax="1368" yMax="1538">
      <contour>
        <pt x="159" y="127" on="1"/>
        <pt x="322" y="1391" on="1"/>
        <pt x="183" y="1416" on="1"/>
        <pt x="195" y="1522" on="1"/>
        <pt x="488" y="1522" on="1"/>
        <pt x="529" y="1522" on="0"/>
        <pt x="613" y="1528" on="0"/>
        <pt x="627" y="1529" on="1"/>
        <pt x="715" y="1538" on="0"/>
        <pt x="797" y="1538" on="1"/>
        <pt x="986" y="1538" on="0"/>
        <pt x="1211" y="1454" on="0"/>
        <pt x="1308" y="1292" on="0"/>
        <pt x="1308" y="1167" on="1"/>
        <pt x="1308" y="1000" on="0"/>
        <pt x="1120" y="752" on="0"/>
        <pt x="953" y="699" on="1"/>
        <pt x="1013" y="638" on="0"/>
        <pt x="1120" y="384" on="1"/>
        <pt x="1148" y="323" on="1"/>
        <pt x="1193" y="224" on="0"/>
        <pt x="1241" y="142" on="0"/>
        <pt x="1308" y="103" on="0"/>
        <pt x="1368" y="102" on="1"/>
        <pt x="1360" y="-1" on="1"/>
        <pt x="1028" y="1" on="1"/>
        <pt x="1000" y="0" on="0"/>
        <pt x="942" y="106" on="0"/>
        <pt x="894" y="231" on="1"/>
        <pt x="884" y="256" on="0"/>
        <pt x="877" y="277" on="1"/>
        <pt x="808" y="458" on="0"/>
        <pt x="721" y="649" on="0"/>
        <pt x="685" y="666" on="1"/>
        <pt x="502" y="665" on="1"/>
        <pt x="437" y="127" on="1"/>
        <pt x="622" y="98" on="1"/>
        <pt x="615" y="0" on="1"/>
        <pt x="15" y="0" on="1"/>
        <pt x="24" y="97" on="1"/>
      </contour>
      <contour>
        <pt x="851" y="797" on="0"/>
        <pt x="1015" y="992" on="0"/>
        <pt x="1015" y="1156" on="1"/>
        <pt x="1015" y="1288" on="0"/>
        <pt x="886" y="1415" on="0"/>
        <pt x="739" y="1415" on="1"/>
        <pt x="718" y="1415" on="0"/>
        <pt x="629" y="1408" on="0"/>
        <pt x="601" y="1403" on="1"/>
        <pt x="519" y="795" on="1"/>
        <pt x="566" y="792" on="0"/>
        <pt x="663" y="792" on="1"/>
        <pt x="699" y="792" on="1"/>
      </contour>
    </TTGlyph>
    <TTGlyph name="Racute" xMin="15" yMin="-1" xMax="1368" yMax="2008">
      <component glyphName="R" x="0" y="0" flags="0x0"/>
      <component glyphName="acute.cap" x="727" y="0" flags="0x0"/>
    </TTGlyph>
    <TTGlyph name="Rcaron" xMin="11" yMin="-1" xMax="1364" yMax="2008">
      <component glyphName="caron.cap" x="435" y="0" flags="0x0"/>
      <component glyphName="R" x="-4" y="0" flags="0x0"/>
    </TTGlyph>
    <TTGlyph name="Rcommaaccent" xMin="11" yMin="-560" xMax="1364" yMax="1538">
      <component glyphName="uni0326" x="903" y="0" flags="0x0"/>
      <component glyphName="R" x="-4" y="0" flags="0x0"/>
    </TTGlyph>
    <TTGlyph name="S" xMin="32" yMin="-23" xMax="1091" yMax="1541">
      <contour>
        <pt x="251" y="372" on="1"/>
        <pt x="267" y="168" on="1"/>
        <pt x="308" y="138" on="0"/>
        <pt x="414" y="101" on="0"/>
        <pt x="475" y="101" on="1"/>
        <pt x="561" y="101" on="0"/>
        <pt x="691" y="156" on="0"/>
        <pt x="764" y="260" on="0"/>
        <pt x="764" y="333" on="1"/>
        <pt x="764" y="399" on="0"/>
        <pt x="707" y="506" on="0"/>
        <pt x="599" y="599" on="0"/>
        <pt x="511" y="655" on="1"/>
        <pt x="412" y="718" on="0"/>
        <pt x="268" y="847" on="0"/>
        <pt x="179" y="1013" on="0"/>
        <pt x="179" y="1114" on="1"/>
        <pt x="179" y="1244" on="0"/>
        <pt x="318" y="1438" on="0"/>
        <pt x="559" y="1541" on="0"/>
        <pt x="708" y="1541" on="1"/>
        <pt x="849" y="1541" on="0"/>
        <pt x="1037" y="1496" on="0"/>
        <pt x="1091" y="1463" on="1"/>
        <pt x="1041" y="1178" on="1"/>
        <pt x="887" y="1178" on="1"/>
        <pt x="858" y="1368" on="1"/>
        <pt x="788" y="1419" on="0"/>
        <pt x="687" y="1419" on="1"/>
        <pt x="619" y="1419" on="0"/>
        <pt x="508" y="1373" on="0"/>
        <pt x="443" y="1284" on="0"/>
        <pt x="443" y="1222" on="1"/>
        <pt x="443" y="1148" on="0"/>
        <pt x="505" y="1030" on="0"/>
        <pt x="620" y="931" on="0"/>
        <pt x="714" y="872" on="1"/>
        <pt x="812" y="810" on="0"/>
        <pt x="949" y="690" on="0"/>
        <pt x="1035" y="533" on="0"/>
        <pt x="1035" y="435" on="1"/>
        <pt x="1035" y="305" on="0"/>
        <pt x="902" y="96" on="0"/>
        <pt x="649" y="-23" on="0"/>
        <pt x="477" y="-23" on="1"/>
        <pt x="380" y="-23" on="0"/>
        <pt x="193" y="7" on="0"/>
        <pt x="57" y="51" on="0"/>
        <pt x="32" y="71" on="1"/>
        <pt x="84" y="372" on="1"/>
      </contour>
    </TTGlyph>
    <TTGlyph name="Sacute" xMin="32" yMin="-23" xMax="1091" yMax="2008">
      <component glyphName="S" x="0" y="0" flags="0x0"/>
      <component glyphName="acute.cap" x="579" y="0" flags="0x0"/>
    </TTGlyph>
    <TTGlyph name="Scaron" xMin="32" yMin="-23" xMax="1132" yMax="2008">
      <component glyphName="S" x="0" y="0" flags="0x0"/>
      <component glyphName="caron.cap" x="318" y="0" flags="0x0"/>
    </TTGlyph>
    <TTGlyph name="Scedilla" xMin="32" yMin="-475" xMax="1091" yMax="1541">
      <contour>
        <pt x="619" y="1419" on="0"/>
        <pt x="508" y="1373" on="0"/>
        <pt x="443" y="1284" on="0"/>
        <pt x="443" y="1222" on="1"/>
        <pt x="443" y="1148" on="0"/>
        <pt x="505" y="1030" on="0"/>
        <pt x="620" y="931" on="0"/>
        <pt x="714" y="872" on="1"/>
        <pt x="812" y="810" on="0"/>
        <pt x="949" y="690" on="0"/>
        <pt x="1035" y="533" on="0"/>
        <pt x="1035" y="435" on="1"/>
        <pt x="1035" y="313" on="0"/>
        <pt x="917" y="114" on="0"/>
        <pt x="694" y="-10" on="0"/>
        <pt x="540" y="-21" on="1"/>
        <pt x="550" y="-55" on="0"/>
        <pt x="562" y="-143" on="0"/>
        <pt x="562" y="-182" on="1"/>
        <pt x="562" y="-324" on="0"/>
        <pt x="414" y="-475" on="0"/>
        <pt x="271" y="-475" on="1"/>
        <pt x="228" y="-475" on="0"/>
        <pt x="120" y="-458" on="0"/>
        <pt x="104" y="-447" on="1"/>
        <pt x="130" y="-295" on="1"/>
        <pt x="143" y="-302" on="0"/>
        <pt x="190" y="-310" on="0"/>
        <pt x="214" y="-310" on="1"/>
        <pt x="300" y="-310" on="0"/>
        <pt x="397" y="-199" on="0"/>
        <pt x="397" y="-90" on="1"/>
        <pt x="397" y="-62" on="0"/>
        <pt x="393" y="-20" on="1"/>
        <pt x="272" y="-12" on="0"/>
        <pt x="66" y="44" on="0"/>
        <pt x="32" y="71" on="1"/>
        <pt x="84" y="372" on="1"/>
        <pt x="251" y="372" on="1"/>
        <pt x="267" y="168" on="1"/>
        <pt x="308" y="138" on="0"/>
        <pt x="414" y="101" on="0"/>
        <pt x="475" y="101" on="1"/>
        <pt x="561" y="101" on="0"/>
        <pt x="691" y="156" on="0"/>
        <pt x="764" y="260" on="0"/>
        <pt x="764" y="333" on="1"/>
        <pt x="764" y="399" on="0"/>
        <pt x="707" y="506" on="0"/>
        <pt x="599" y="599" on="0"/>
        <pt x="511" y="655" on="1"/>
        <pt x="412" y="718" on="0"/>
        <pt x="268" y="847" on="0"/>
        <pt x="179" y="1013" on="0"/>
        <pt x="179" y="1114" on="1"/>
        <pt x="179" y="1244" on="0"/>
        <pt x="318" y="1438" on="0"/>
        <pt x="559" y="1541" on="0"/>
        <pt x="708" y="1541" on="1"/>
        <pt x="849" y="1541" on="0"/>
        <pt x="1037" y="1496" on="0"/>
        <pt x="1091" y="1463" on="1"/>
        <pt x="1041" y="1178" on="1"/>
        <pt x="887" y="1178" on="1"/>
        <pt x="858" y="1368" on="1"/>
        <pt x="788" y="1419" on="0"/>
        <pt x="687" y="1419" on="1"/>
      </contour>
    </TTGlyph>
    <TTGlyph name="Scircumflex" xMin="32" yMin="-23" xMax="1091" yMax="2008">
      <component glyphName="S" x="0" y="0" flags="0x0"/>
      <component glyphName="circumflex.cap" x="318" y="0" flags="0x0"/>
    </TTGlyph>
    <TTGlyph name="Scommaaccent" xMin="32" yMin="-560" xMax="1091" yMax="1541">
      <component glyphName="uni0326" x="672" y="0" flags="0x0"/>
      <component glyphName="S" x="0" y="0" flags="0x0"/>
    </TTGlyph>
    <TTGlyph name="T" xMin="76" yMin="0" xMax="1434" yMax="1522">
      <contour>
        <pt x="473" y="127" on="1"/>
        <pt x="639" y="1408" on="1"/>
        <pt x="365" y="1384" on="1"/>
        <pt x="232" y="990" on="1"/>
        <pt x="76" y="989" on="1"/>
        <pt x="166" y="1522" on="1"/>
        <pt x="1434" y="1522" on="1"/>
        <pt x="1357" y="990" on="1"/>
        <pt x="1208" y="989" on="1"/>
        <pt x="1201" y="1384" on="1"/>
        <pt x="924" y="1408" on="1"/>
        <pt x="757" y="127" on="1"/>
        <pt x="1025" y="100" on="1"/>
        <pt x="1016" y="0" on="1"/>
        <pt x="214" y="0" on="1"/>
        <pt x="225" y="100" on="1"/>
      </contour>
    </TTGlyph>
    <TTGlyph name="Tbar" xMin="76" yMin="0" xMax="1434" yMax="1522">
      <contour>
        <pt x="565" y="840" on="1"/>
        <pt x="639" y="1408" on="1"/>
        <pt x="365" y="1384" on="1"/>
        <pt x="232" y="990" on="1"/>
        <pt x="76" y="989" on="1"/>
        <pt x="166" y="1522" on="1"/>
        <pt x="1434" y="1522" on="1"/>
        <pt x="1357" y="990" on="1"/>
        <pt x="1208" y="989" on="1"/>
        <pt x="1201" y="1384" on="1"/>
        <pt x="924" y="1408" on="1"/>
        <pt x="850" y="840" on="1"/>
        <pt x="1113" y="840" on="1"/>
        <pt x="1097" y="698" on="1"/>
        <pt x="831" y="698" on="1"/>
        <pt x="757" y="127" on="1"/>
        <pt x="1025" y="100" on="1"/>
        <pt x="1016" y="0" on="1"/>
        <pt x="214" y="0" on="1"/>
        <pt x="225" y="100" on="1"/>
        <pt x="473" y="127" on="1"/>
        <pt x="547" y="698" on="1"/>
        <pt x="316" y="698" on="1"/>
        <pt x="332" y="840" on="1"/>
      </contour>
    </TTGlyph>
    <TTGlyph name="Tcaron" xMin="76" yMin="0" xMax="1434" yMax="2008">
      <component glyphName="caron.cap" x="433" y="0" flags="0x0"/>
      <component glyphName="T" x="0" y="0" flags="0x0"/>
    </TTGlyph>
    <TTGlyph name="Thorn" xMin="9" yMin="0" xMax="1274" yMax="1526">
      <contour>
        <pt x="161" y="127" on="1"/>
        <pt x="325" y="1395" on="1"/>
        <pt x="185" y="1419" on="1"/>
        <pt x="198" y="1526" on="1"/>
        <pt x="789" y="1526" on="1"/>
        <pt x="777" y="1419" on="1"/>
        <pt x="609" y="1395" on="1"/>
        <pt x="583" y="1191" on="1"/>
        <pt x="709" y="1202" on="0"/>
        <pt x="795" y="1202" on="1"/>
        <pt x="1056" y="1202" on="0"/>
        <pt x="1274" y="1009" on="0"/>
        <pt x="1274" y="840" on="1"/>
        <pt x="1274" y="703" on="0"/>
        <pt x="1137" y="478" on="0"/>
        <pt x="840" y="342" on="0"/>
        <pt x="613" y="342" on="1"/>
        <pt x="529" y="342" on="0"/>
        <pt x="473" y="346" on="1"/>
        <pt x="445" y="127" on="1"/>
        <pt x="619" y="98" on="1"/>
        <pt x="611" y="0" on="1"/>
        <pt x="9" y="0" on="1"/>
        <pt x="19" y="97" on="1"/>
      </contour>
      <contour>
        <pt x="490" y="472" on="1"/>
        <pt x="536" y="468" on="0"/>
        <pt x="622" y="468" on="1"/>
        <pt x="731" y="468" on="0"/>
        <pt x="892" y="545" on="0"/>
        <pt x="980" y="695" on="0"/>
        <pt x="980" y="800" on="1"/>
        <pt x="980" y="942" on="0"/>
        <pt x="854" y="1077" on="0"/>
        <pt x="711" y="1077" on="1"/>
        <pt x="638" y="1077" on="0"/>
        <pt x="566" y="1061" on="1"/>
      </contour>
    </TTGlyph>
    <TTGlyph name="U" xMin="124" yMin="-20" xMax="1518" yMax="1522">
      <contour>
        <pt x="264" y="1392" on="1"/>
        <pt x="124" y="1416" on="1"/>
        <pt x="137" y="1522" on="1"/>
        <pt x="737" y="1522" on="1"/>
        <pt x="726" y="1417" on="1"/>
        <pt x="549" y="1391" on="1"/>
        <pt x="447" y="617" on="1"/>
        <pt x="432" y="489" on="0"/>
        <pt x="432" y="420" on="1"/>
        <pt x="434" y="268" on="0"/>
        <pt x="574" y="98" on="0"/>
        <pt x="702" y="98" on="1"/>
        <pt x="875" y="98" on="0"/>
        <pt x="1061" y="362" on="0"/>
        <pt x="1095" y="626" on="1"/>
        <pt x="1198" y="1391" on="1"/>
        <pt x="1056" y="1417" on="1"/>
        <pt x="1067" y="1522" on="1"/>
        <pt x="1518" y="1522" on="1"/>
        <pt x="1505" y="1417" on="1"/>
        <pt x="1378" y="1392" on="1"/>
        <pt x="1278" y="627" on="1"/>
        <pt x="1248" y="394" on="0"/>
        <pt x="1091" y="109" on="0"/>
        <pt x="836" y="-20" on="0"/>
        <pt x="654" y="-20" on="1"/>
        <pt x="486" y="-20" on="0"/>
        <pt x="262" y="93" on="0"/>
        <pt x="153" y="294" on="0"/>
        <pt x="152" y="428" on="1"/>
        <pt x="150" y="509" on="0"/>
        <pt x="159" y="593" on="1"/>
      </contour>
    </TTGlyph>
    <TTGlyph name="Uacute" xMin="124" yMin="-20" xMax="1518" yMax="2008">
      <component glyphName="acute.cap" x="762" y="0" flags="0x0"/>
      <component glyphName="U" x="0" y="0" flags="0x0"/>
    </TTGlyph>
    <TTGlyph name="Ubreve" xMin="124" yMin="-20" xMax="1518" yMax="1999">
      <component glyphName="breve.cap" x="546" y="0" flags="0x0"/>
      <component glyphName="U" x="0" y="0" flags="0x0"/>
    </TTGlyph>
    <TTGlyph name="Ucircumflex" xMin="124" yMin="-20" xMax="1518" yMax="2008">
      <component glyphName="U" x="0" y="0" flags="0x0"/>
      <component glyphName="circumflex.cap" x="502" y="0" flags="0x0"/>
    </TTGlyph>
    <TTGlyph name="Udieresis" xMin="124" yMin="-20" xMax="1518" yMax="1987">
      <component glyphName="dieresis.cap" x="510" y="0" flags="0x0"/>
      <component glyphName="U" x="0" y="0" flags="0x0"/>
    </TTGlyph>
    <TTGlyph name="Ugrave" xMin="124" yMin="-20" xMax="1518" yMax="2008">
      <component glyphName="grave.cap" x="522" y="0" flags="0x0"/>
      <component glyphName="U" x="0" y="0" flags="0x0"/>
    </TTGlyph>
    <TTGlyph name="Uhungarumlaut" xMin="124" yMin="-20" xMax="1518" yMax="2008">
      <component glyphName="U" x="0" y="0" flags="0x0"/>
      <component glyphName="hungarumlaut.cap" x="547" y="0" flags="0x0"/>
    </TTGlyph>
    <TTGlyph name="Umacron" xMin="124" yMin="-20" xMax="1518" yMax="1899">
      <component glyphName="macron.cap" x="575" y="0" flags="0x0"/>
      <component glyphName="U" x="0" y="0" flags="0x0"/>
    </TTGlyph>
    <TTGlyph name="Uogonek" xMin="124" yMin="-452" xMax="1518" yMax="1522">
      <contour>
        <pt x="264" y="1392" on="1"/>
        <pt x="124" y="1416" on="1"/>
        <pt x="137" y="1522" on="1"/>
        <pt x="737" y="1522" on="1"/>
        <pt x="726" y="1417" on="1"/>
        <pt x="549" y="1391" on="1"/>
        <pt x="447" y="617" on="1"/>
        <pt x="432" y="489" on="0"/>
        <pt x="432" y="420" on="1"/>
        <pt x="434" y="268" on="0"/>
        <pt x="574" y="98" on="0"/>
        <pt x="702" y="98" on="1"/>
        <pt x="875" y="98" on="0"/>
        <pt x="1061" y="362" on="0"/>
        <pt x="1095" y="626" on="1"/>
        <pt x="1198" y="1391" on="1"/>
        <pt x="1056" y="1417" on="1"/>
        <pt x="1067" y="1522" on="1"/>
        <pt x="1518" y="1522" on="1"/>
        <pt x="1505" y="1417" on="1"/>
        <pt x="1378" y="1392" on="1"/>
        <pt x="1278" y="627" on="1"/>
        <pt x="1242" y="350" on="0"/>
        <pt x="1032" y="50" on="0"/>
        <pt x="853" y="3" on="1"/>
        <pt x="794" y="-56" on="0"/>
        <pt x="722" y="-165" on="0"/>
        <pt x="722" y="-203" on="1"/>
        <pt x="721" y="-246" on="0"/>
        <pt x="756" y="-287" on="0"/>
        <pt x="782" y="-287" on="1"/>
        <pt x="816" y="-287" on="0"/>
        <pt x="882" y="-254" on="0"/>
        <pt x="925" y="-219" on="1"/>
        <pt x="957" y="-324" on="1"/>
        <pt x="903" y="-380" on="0"/>
        <pt x="747" y="-452" on="0"/>
        <pt x="654" y="-452" on="1"/>
        <pt x="569" y="-452" on="0"/>
        <pt x="479" y="-364" on="0"/>
        <pt x="479" y="-297" on="1"/>
        <pt x="479" y="-268" on="0"/>
        <pt x="499" y="-200" on="0"/>
        <pt x="517" y="-176" on="1"/>
        <pt x="575" y="-88" on="0"/>
        <pt x="668" y="-19" on="1"/>
        <pt x="654" y="-20" on="1"/>
        <pt x="486" y="-20" on="0"/>
        <pt x="262" y="93" on="0"/>
        <pt x="153" y="294" on="0"/>
        <pt x="152" y="428" on="1"/>
        <pt x="150" y="509" on="0"/>
        <pt x="159" y="593" on="1"/>
      </contour>
    </TTGlyph>
    <TTGlyph name="Uring" xMin="124" yMin="-20" xMax="1518" yMax="2108">
      <component glyphName="U" x="0" y="0" flags="0x0"/>
      <component glyphName="ring.cap" x="534" y="100" flags="0x4"/>
    </TTGlyph>
    <TTGlyph name="Utilde" xMin="124" yMin="-20" xMax="1518" yMax="1970">
      <component glyphName="tilde.cap" x="510" y="0" flags="0x0"/>
      <component glyphName="U" x="0" y="0" flags="0x0"/>
    </TTGlyph>
    <TTGlyph name="V" xMin="20" yMin="-15" xMax="1421" yMax="1522">
      <contour>
        <pt x="20" y="1417" on="1"/>
        <pt x="32" y="1522" on="1"/>
        <pt x="615" y="1522" on="1"/>
        <pt x="605" y="1416" on="1"/>
        <pt x="448" y="1391" on="1"/>
        <pt x="569" y="483" on="1"/>
        <pt x="592" y="244" on="1"/>
        <pt x="680" y="483" on="1"/>
        <pt x="1087" y="1391" on="1"/>
        <pt x="929" y="1416" on="1"/>
        <pt x="939" y="1522" on="1"/>
        <pt x="1421" y="1522" on="1"/>
        <pt x="1406" y="1416" on="1"/>
        <pt x="1275" y="1392" on="1"/>
        <pt x="625" y="-10" on="1"/>
        <pt x="381" y="-15" on="1"/>
        <pt x="151" y="1391" on="1"/>
      </contour>
    </TTGlyph>
    <TTGlyph name="W" xMin="0" yMin="-10" xMax="2129" yMax="1522">
      <contour>
        <pt x="0" y="1417" on="1"/>
        <pt x="13" y="1522" on="1"/>
        <pt x="572" y="1522" on="1"/>
        <pt x="563" y="1416" on="1"/>
        <pt x="418" y="1391" on="1"/>
        <pt x="522" y="477" on="1"/>
        <pt x="550" y="244" on="1"/>
        <pt x="619" y="448" on="1"/>
        <pt x="942" y="1258" on="1"/>
        <pt x="928" y="1393" on="1"/>
        <pt x="787" y="1417" on="1"/>
        <pt x="797" y="1522" on="1"/>
        <pt x="1374" y="1522" on="1"/>
        <pt x="1360" y="1416" on="1"/>
        <pt x="1211" y="1391" on="1"/>
        <pt x="1304" y="477" on="1"/>
        <pt x="1315" y="244" on="1"/>
        <pt x="1396" y="461" on="1"/>
        <pt x="1785" y="1390" on="1"/>
        <pt x="1600" y="1416" on="1"/>
        <pt x="1611" y="1522" on="1"/>
        <pt x="2129" y="1522" on="1"/>
        <pt x="2117" y="1417" on="1"/>
        <pt x="1975" y="1392" on="1"/>
        <pt x="1346" y="-10" on="1"/>
        <pt x="1084" y="-10" on="1"/>
        <pt x="983" y="961" on="1"/>
        <pt x="594" y="-10" on="1"/>
        <pt x="334" y="-10" on="1"/>
        <pt x="132" y="1391" on="1"/>
      </contour>
    </TTGlyph>
    <TTGlyph name="Wacute" xMin="0" yMin="-10" xMax="2129" yMax="2008">
      <component glyphName="acute.cap" x="965" y="0" flags="0x0"/>
      <component glyphName="W" x="0" y="0" flags="0x0"/>
    </TTGlyph>
    <TTGlyph name="Wcircumflex" xMin="0" yMin="-10" xMax="2129" yMax="2008">
      <component glyphName="W" x="0" y="0" flags="0x0"/>
      <component glyphName="circumflex.cap" x="705" y="0" flags="0x0"/>
    </TTGlyph>
    <TTGlyph name="Wdieresis" xMin="0" yMin="-10" xMax="2129" yMax="1987">
      <component glyphName="dieresis.cap" x="713" y="0" flags="0x0"/>
      <component glyphName="W" x="0" y="0" flags="0x0"/>
    </TTGlyph>
    <TTGlyph name="Wgrave" xMin="0" yMin="-10" xMax="2129" yMax="2008">
      <component glyphName="grave.cap" x="725" y="0" flags="0x0"/>
      <component glyphName="W" x="0" y="0" flags="0x0"/>
    </TTGlyph>
    <TTGlyph name="X" xMin="-70" yMin="0" xMax="1448" yMax="1522">
      <contour>
        <pt x="59" y="127" on="1"/>
        <pt x="555" y="753" on="1"/>
        <pt x="253" y="1390" on="1"/>
        <pt x="125" y="1416" on="1"/>
        <pt x="136" y="1522" on="1"/>
        <pt x="733" y="1522" on="1"/>
        <pt x="724" y="1417" on="1"/>
        <pt x="579" y="1392" on="1"/>
        <pt x="760" y="922" on="1"/>
        <pt x="1077" y="1391" on="1"/>
        <pt x="940" y="1416" on="1"/>
        <pt x="949" y="1522" on="1"/>
        <pt x="1448" y="1522" on="1"/>
        <pt x="1438" y="1416" on="1"/>
        <pt x="1301" y="1392" on="1"/>
        <pt x="830" y="787" on="1"/>
        <pt x="1161" y="127" on="1"/>
        <pt x="1299" y="98" on="1"/>
        <pt x="1290" y="0" on="1"/>
        <pt x="667" y="0" on="1"/>
        <pt x="675" y="98" on="1"/>
        <pt x="823" y="127" on="1"/>
        <pt x="622" y="610" on="1"/>
        <pt x="289" y="127" on="1"/>
        <pt x="440" y="97" on="1"/>
        <pt x="431" y="0" on="1"/>
        <pt x="-70" y="0" on="1"/>
        <pt x="-59" y="98" on="1"/>
      </contour>
    </TTGlyph>
    <TTGlyph name="Y" xMin="39" yMin="0" xMax="1433" yMax="1522">
      <contour>
        <pt x="444" y="127" on="1"/>
        <pt x="504" y="598" on="1"/>
        <pt x="158" y="1391" on="1"/>
        <pt x="39" y="1416" on="1"/>
        <pt x="50" y="1522" on="1"/>
        <pt x="660" y="1522" on="1"/>
        <pt x="645" y="1416" on="1"/>
        <pt x="479" y="1391" on="1"/>
        <pt x="670" y="877" on="1"/>
        <pt x="711" y="739" on="1"/>
        <pt x="778" y="862" on="1"/>
        <pt x="1096" y="1391" on="1"/>
        <pt x="943" y="1416" on="1"/>
        <pt x="953" y="1522" on="1"/>
        <pt x="1433" y="1522" on="1"/>
        <pt x="1420" y="1416" on="1"/>
        <pt x="1304" y="1392" on="1"/>
        <pt x="785" y="598" on="1"/>
        <pt x="724" y="127" on="1"/>
        <pt x="946" y="98" on="1"/>
        <pt x="937" y="0" on="1"/>
        <pt x="211" y="0" on="1"/>
        <pt x="221" y="98" on="1"/>
      </contour>
    </TTGlyph>
    <TTGlyph name="Yacute" xMin="39" yMin="0" xMax="1433" yMax="2008">
      <component glyphName="Y" x="0" y="0" flags="0x0"/>
      <component glyphName="acute.cap" x="673" y="0" flags="0x0"/>
    </TTGlyph>
    <TTGlyph name="Ycircumflex" xMin="39" yMin="0" xMax="1433" yMax="2008">
      <component glyphName="Y" x="0" y="0" flags="0x0"/>
      <component glyphName="circumflex.cap" x="412" y="0" flags="0x0"/>
    </TTGlyph>
    <TTGlyph name="Ydieresis" xMin="39" yMin="0" xMax="1433" yMax="1987">
      <component glyphName="Y" x="0" y="0" flags="0x0"/>
      <component glyphName="dieresis.cap" x="421" y="0" flags="0x0"/>
    </TTGlyph>
    <TTGlyph name="Ygrave" xMin="39" yMin="0" xMax="1433" yMax="2008">
      <component glyphName="Y" x="0" y="0" flags="0x0"/>
      <component glyphName="grave.cap" x="433" y="0" flags="0x0"/>
    </TTGlyph>
    <TTGlyph name="Z" xMin="-32" yMin="0" xMax="1260" yMax="1522">
      <contour>
        <pt x="807" y="1258" on="1"/>
        <pt x="950" y="1400" on="1"/>
        <pt x="449" y="1387" on="1"/>
        <pt x="327" y="1127" on="1"/>
        <pt x="177" y="1150" on="1"/>
        <pt x="238" y="1522" on="1"/>
        <pt x="1233" y="1522" on="1"/>
        <pt x="1260" y="1436" on="1"/>
        <pt x="428" y="265" on="1"/>
        <pt x="298" y="124" on="1"/>
        <pt x="851" y="147" on="1"/>
        <pt x="1017" y="440" on="1"/>
        <pt x="1167" y="399" on="1"/>
        <pt x="1070" y="0" on="1"/>
        <pt x="-1" y="0" on="1"/>
        <pt x="-32" y="89" on="1"/>
      </contour>
    </TTGlyph>
    <TTGlyph name="Zacute" xMin="-32" yMin="0" xMax="1260" yMax="2008">
      <component glyphName="Z" x="0" y="0" flags="0x0"/>
      <component glyphName="acute.cap" x="623" y="0" flags="0x0"/>
    </TTGlyph>
    <TTGlyph name="Zcaron" xMin="-32" yMin="0" xMax="1260" yMax="2008">
      <component glyphName="caron.cap" x="361" y="0" flags="0x0"/>
      <component glyphName="Z" x="0" y="0" flags="0x0"/>
    </TTGlyph>
    <TTGlyph name="Zdotaccent" xMin="-32" yMin="0" xMax="1260" yMax="1966">
      <component glyphName="dotaccent.cap" x="576" y="0" flags="0x0"/>
      <component glyphName="Z" x="0" y="0" flags="0x0"/>
    </TTGlyph>
    <TTGlyph name="a" xMin="70" yMin="-20" xMax="1123" yMax="1163">
      <contour>
        <pt x="790" y="1163" on="0"/>
        <pt x="910" y="1140" on="0"/>
        <pt x="960" y="1124" on="1"/>
        <pt x="1097" y="1163" on="1"/>
        <pt x="967" y="209" on="1"/>
        <pt x="966" y="202" on="0"/>
        <pt x="966" y="189" on="1"/>
        <pt x="966" y="161" on="0"/>
        <pt x="986" y="133" on="0"/>
        <pt x="1002" y="133" on="1"/>
        <pt x="1035" y="133" on="0"/>
        <pt x="1093" y="179" on="1"/>
        <pt x="1123" y="115" on="1"/>
        <pt x="1109" y="93" on="0"/>
        <pt x="1038" y="30" on="0"/>
        <pt x="930" y="-20" on="0"/>
        <pt x="868" y="-20" on="1"/>
        <pt x="796" y="-20" on="0"/>
        <pt x="714" y="49" on="0"/>
        <pt x="717" y="115" on="1"/>
        <pt x="709" y="128" on="1"/>
        <pt x="649" y="63" on="0"/>
        <pt x="494" y="-20" on="0"/>
        <pt x="404" y="-20" on="1"/>
        <pt x="234" y="-20" on="0"/>
        <pt x="70" y="215" on="0"/>
        <pt x="70" y="406" on="1"/>
        <pt x="70" y="589" on="0"/>
        <pt x="229" y="939" on="0"/>
        <pt x="533" y="1163" on="0"/>
        <pt x="739" y="1163" on="1"/>
      </contour>
      <contour>
        <pt x="809" y="1017" on="1"/>
        <pt x="768" y="1031" on="0"/>
        <pt x="712" y="1031" on="1"/>
        <pt x="589" y="1031" on="0"/>
        <pt x="428" y="844" on="0"/>
        <pt x="354" y="565" on="0"/>
        <pt x="354" y="423" on="1"/>
        <pt x="354" y="288" on="0"/>
        <pt x="428" y="140" on="0"/>
        <pt x="499" y="140" on="1"/>
        <pt x="553" y="140" on="0"/>
        <pt x="662" y="212" on="0"/>
        <pt x="709" y="267" on="1"/>
      </contour>
    </TTGlyph>
    <TTGlyph name="aacute" xMin="70" yMin="-20" xMax="1123" yMax="1743">
      <component glyphName="a" x="0" y="0" flags="0x0"/>
      <component glyphName="acute" x="584" y="0" flags="0x0"/>
    </TTGlyph>
    <TTGlyph name="abreve" xMin="70" yMin="-20" xMax="1123" yMax="1668">
      <component glyphName="a" x="0" y="0" flags="0x0"/>
      <component glyphName="breve" x="398" y="0" flags="0x0"/>
    </TTGlyph>
    <TTGlyph name="acircumflex" xMin="70" yMin="-20" xMax="1123" yMax="1661">
      <component glyphName="a" x="0" y="0" flags="0x0"/>
      <component glyphName="circumflex" x="329" y="0" flags="0x0"/>
    </TTGlyph>
    <TTGlyph name="acute" xMin="50" yMin="1240" xMax="537" yMax="1743">
      <contour>
        <pt x="367" y="1743" on="1"/>
        <pt x="537" y="1578" on="1"/>
        <pt x="519" y="1544" on="0"/>
        <pt x="367" y="1396" on="0"/>
        <pt x="191" y="1262" on="0"/>
        <pt x="135" y="1240" on="1"/>
        <pt x="50" y="1312" on="1"/>
      </contour>
    </TTGlyph>
    <TTGlyph name="acute.cap" xMin="36" yMin="1589" xMax="472" yMax="2008">
      <contour>
        <pt x="312" y="2008" on="1"/>
        <pt x="472" y="1852" on="1"/>
        <pt x="448" y="1803" on="0"/>
        <pt x="324" y="1695" on="0"/>
        <pt x="180" y="1608" on="0"/>
        <pt x="129" y="1589" on="1"/>
        <pt x="36" y="1666" on="1"/>
      </contour>
    </TTGlyph>
    <TTGlyph name="adieresis" xMin="70" yMin="-20" xMax="1137" yMax="1679">
      <component glyphName="a" x="0" y="0" flags="0x0"/>
      <component glyphName="dieresis" x="363" y="0" flags="0x0"/>
    </TTGlyph>
    <TTGlyph name="ae" xMin="70" yMin="-20" xMax="1665" yMax="1163">
      <contour>
        <pt x="70" y="584" on="0"/>
        <pt x="242" y="937" on="0"/>
        <pt x="565" y="1163" on="0"/>
        <pt x="779" y="1163" on="1"/>
        <pt x="824" y="1163" on="0"/>
        <pt x="932" y="1145" on="0"/>
        <pt x="980" y="1131" on="1"/>
        <pt x="1081" y="1163" on="1"/>
        <pt x="1069" y="1073" on="1"/>
        <pt x="1206" y="1163" on="0"/>
        <pt x="1366" y="1163" on="1"/>
        <pt x="1468" y="1163" on="0"/>
        <pt x="1602" y="1095" on="0"/>
        <pt x="1665" y="978" on="0"/>
        <pt x="1665" y="904" on="1"/>
        <pt x="1665" y="758" on="0"/>
        <pt x="1455" y="558" on="0"/>
        <pt x="1160" y="460" on="0"/>
        <pt x="1033" y="457" on="1"/>
        <pt x="1029" y="306" on="0"/>
        <pt x="1116" y="141" on="0"/>
        <pt x="1219" y="141" on="1"/>
        <pt x="1397" y="141" on="0"/>
        <pt x="1544" y="293" on="1"/>
        <pt x="1600" y="199" on="1"/>
        <pt x="1567" y="151" on="0"/>
        <pt x="1440" y="50" on="0"/>
        <pt x="1256" y="-20" on="0"/>
        <pt x="1148" y="-20" on="1"/>
        <pt x="986" y="-20" on="0"/>
        <pt x="796" y="130" on="0"/>
        <pt x="763" y="262" on="1"/>
        <pt x="695" y="147" on="0"/>
        <pt x="497" y="-20" on="0"/>
        <pt x="382" y="-20" on="1"/>
        <pt x="218" y="-20" on="0"/>
        <pt x="70" y="208" on="0"/>
        <pt x="70" y="401" on="1"/>
      </contour>
      <contour>
        <pt x="1395" y="959" on="0"/>
        <pt x="1344" y="1034" on="0"/>
        <pt x="1296" y="1034" on="1"/>
        <pt x="1216" y="1034" on="0"/>
        <pt x="1103" y="887" on="0"/>
        <pt x="1043" y="675" on="0"/>
        <pt x="1035" y="573" on="1"/>
        <pt x="1108" y="577" on="0"/>
        <pt x="1277" y="654" on="0"/>
        <pt x="1395" y="793" on="0"/>
        <pt x="1395" y="885" on="1"/>
      </contour>
      <contour>
        <pt x="793" y="1031" on="0"/>
        <pt x="760" y="1031" on="1"/>
        <pt x="629" y="1031" on="0"/>
        <pt x="445" y="843" on="0"/>
        <pt x="354" y="561" on="0"/>
        <pt x="354" y="423" on="1"/>
        <pt x="354" y="301" on="0"/>
        <pt x="409" y="154" on="0"/>
        <pt x="465" y="154" on="1"/>
        <pt x="538" y="154" on="0"/>
        <pt x="685" y="304" on="0"/>
        <pt x="745" y="402" on="1"/>
        <pt x="745" y="406" on="1"/>
        <pt x="723" y="383" on="1"/>
        <pt x="823" y="1025" on="1"/>
      </contour>
    </TTGlyph>
    <TTGlyph name="aeacute" xMin="70" yMin="-20" xMax="1665" yMax="1743">
      <component glyphName="acute" x="779" y="0" flags="0x0"/>
      <component glyphName="ae" x="0" y="0" flags="0x0"/>
    </TTGlyph>
    <TTGlyph name="agrave" xMin="70" yMin="-20" xMax="1123" yMax="1743">
      <component glyphName="a" x="0" y="0" flags="0x0"/>
      <component glyphName="grave" x="306" y="0" flags="0x0"/>
    </TTGlyph>
    <TTGlyph name="amacron" xMin="70" yMin="-20" xMax="1123" yMax="1596">
      <component glyphName="a" x="0" y="0" flags="0x0"/>
      <component glyphName="macron" x="429" y="0" flags="0x0"/>
    </TTGlyph>
    <TTGlyph name="ampersand" xMin="61" yMin="-28" xMax="1656" yMax="1551">
      <contour>
        <pt x="1014" y="800" on="0"/>
        <pt x="1093" y="831" on="0"/>
        <pt x="1151" y="831" on="1"/>
        <pt x="1192" y="831" on="0"/>
        <pt x="1253" y="822" on="1"/>
        <pt x="1327" y="812" on="0"/>
        <pt x="1378" y="812" on="1"/>
        <pt x="1434" y="812" on="0"/>
        <pt x="1502" y="839" on="0"/>
        <pt x="1542" y="907" on="0"/>
        <pt x="1551" y="968" on="1"/>
        <pt x="1648" y="968" on="1"/>
        <pt x="1656" y="924" on="0"/>
        <pt x="1656" y="872" on="1"/>
        <pt x="1656" y="758" on="0"/>
        <pt x="1557" y="611" on="0"/>
        <pt x="1463" y="611" on="1"/>
        <pt x="1435" y="611" on="0"/>
        <pt x="1421" y="612" on="1"/>
        <pt x="1423" y="586" on="0"/>
        <pt x="1423" y="569" on="1"/>
        <pt x="1423" y="452" on="0"/>
        <pt x="1328" y="256" on="0"/>
        <pt x="1241" y="180" on="1"/>
        <pt x="1263" y="165" on="0"/>
        <pt x="1286" y="153" on="1"/>
        <pt x="1322" y="137" on="0"/>
        <pt x="1420" y="117" on="0"/>
        <pt x="1463" y="117" on="1"/>
        <pt x="1484" y="118" on="1"/>
        <pt x="1479" y="10" on="1"/>
        <pt x="1425" y="-7" on="0"/>
        <pt x="1319" y="-20" on="0"/>
        <pt x="1240" y="-20" on="1"/>
        <pt x="1100" y="-20" on="0"/>
        <pt x="999" y="38" on="1"/>
        <pt x="821" y="-28" on="0"/>
        <pt x="627" y="-28" on="1"/>
        <pt x="468" y="-28" on="0"/>
        <pt x="211" y="59" on="0"/>
        <pt x="61" y="231" on="0"/>
        <pt x="61" y="352" on="1"/>
        <pt x="61" y="460" on="0"/>
        <pt x="160" y="617" on="0"/>
        <pt x="319" y="725" on="0"/>
        <pt x="435" y="778" on="1"/>
        <pt x="398" y="863" on="0"/>
        <pt x="350" y="1045" on="0"/>
        <pt x="350" y="1119" on="1"/>
        <pt x="350" y="1250" on="0"/>
        <pt x="481" y="1446" on="0"/>
        <pt x="710" y="1551" on="0"/>
        <pt x="854" y="1551" on="1"/>
        <pt x="986" y="1551" on="0"/>
        <pt x="1159" y="1471" on="0"/>
        <pt x="1240" y="1338" on="0"/>
        <pt x="1240" y="1258" on="1"/>
        <pt x="1240" y="1147" on="0"/>
        <pt x="1115" y="983" on="0"/>
        <pt x="934" y="873" on="0"/>
        <pt x="782" y="800" on="1"/>
        <pt x="741" y="780" on="1"/>
        <pt x="834" y="613" on="0"/>
        <pt x="1005" y="388" on="0"/>
        <pt x="1114" y="286" on="1"/>
        <pt x="1123" y="276" on="1"/>
        <pt x="1191" y="374" on="0"/>
        <pt x="1191" y="525" on="1"/>
        <pt x="1191" y="572" on="0"/>
        <pt x="1183" y="634" on="1"/>
        <pt x="1172" y="635" on="0"/>
        <pt x="1149" y="635" on="1"/>
        <pt x="1104" y="635" on="0"/>
        <pt x="1020" y="612" on="0"/>
        <pt x="996" y="597" on="1"/>
        <pt x="996" y="782" on="1"/>
      </contour>
      <contour>
        <pt x="823" y="956" on="0"/>
        <pt x="974" y="1117" on="0"/>
        <pt x="974" y="1239" on="1"/>
        <pt x="974" y="1321" on="0"/>
        <pt x="913" y="1436" on="0"/>
        <pt x="839" y="1436" on="1"/>
        <pt x="728" y="1436" on="0"/>
        <pt x="620" y="1288" on="0"/>
        <pt x="620" y="1167" on="1"/>
        <pt x="620" y="1030" on="0"/>
        <pt x="684" y="888" on="1"/>
      </contour>
      <contour>
        <pt x="809" y="200" on="0"/>
        <pt x="683" y="356" on="0"/>
        <pt x="589" y="502" on="0"/>
        <pt x="521" y="617" on="1"/>
        <pt x="504" y="646" on="1"/>
        <pt x="428" y="590" on="0"/>
        <pt x="345" y="461" on="0"/>
        <pt x="345" y="378" on="1"/>
        <pt x="345" y="289" on="0"/>
        <pt x="428" y="163" on="0"/>
        <pt x="571" y="99" on="0"/>
        <pt x="662" y="99" on="1"/>
        <pt x="796" y="99" on="0"/>
        <pt x="890" y="125" on="1"/>
      </contour>
    </TTGlyph>
    <TTGlyph name="aogonek" xMin="70" yMin="-452" xMax="1123" yMax="1163">
      <contour>
        <pt x="790" y="1163" on="0"/>
        <pt x="910" y="1140" on="0"/>
        <pt x="960" y="1124" on="1"/>
        <pt x="1097" y="1163" on="1"/>
        <pt x="967" y="209" on="1"/>
        <pt x="966" y="202" on="0"/>
        <pt x="966" y="189" on="1"/>
        <pt x="966" y="161" on="0"/>
        <pt x="986" y="133" on="0"/>
        <pt x="1002" y="133" on="1"/>
        <pt x="1035" y="133" on="0"/>
        <pt x="1093" y="179" on="1"/>
        <pt x="1123" y="115" on="1"/>
        <pt x="1111" y="97" on="0"/>
        <pt x="1051" y="40" on="0"/>
        <pt x="1011" y="18" on="1"/>
        <pt x="914" y="-50" on="0"/>
        <pt x="807" y="-161" on="0"/>
        <pt x="806" y="-209" on="1"/>
        <pt x="805" y="-251" on="0"/>
        <pt x="840" y="-287" on="0"/>
        <pt x="867" y="-287" on="1"/>
        <pt x="900" y="-287" on="0"/>
        <pt x="965" y="-255" on="0"/>
        <pt x="1010" y="-219" on="1"/>
        <pt x="1041" y="-324" on="1"/>
        <pt x="984" y="-381" on="0"/>
        <pt x="831" y="-452" on="0"/>
        <pt x="739" y="-452" on="1"/>
        <pt x="654" y="-452" on="0"/>
        <pt x="563" y="-364" on="0"/>
        <pt x="563" y="-297" on="1"/>
        <pt x="563" y="-268" on="0"/>
        <pt x="587" y="-197" on="0"/>
        <pt x="607" y="-171" on="1"/>
        <pt x="648" y="-112" on="0"/>
        <pt x="739" y="-39" on="0"/>
        <pt x="796" y="-9" on="1"/>
        <pt x="756" y="5" on="0"/>
        <pt x="715" y="67" on="0"/>
        <pt x="717" y="115" on="1"/>
        <pt x="709" y="128" on="1"/>
        <pt x="649" y="63" on="0"/>
        <pt x="494" y="-20" on="0"/>
        <pt x="404" y="-20" on="1"/>
        <pt x="234" y="-20" on="0"/>
        <pt x="70" y="215" on="0"/>
        <pt x="70" y="406" on="1"/>
        <pt x="70" y="589" on="0"/>
        <pt x="229" y="939" on="0"/>
        <pt x="533" y="1163" on="0"/>
        <pt x="739" y="1163" on="1"/>
      </contour>
      <contour>
        <pt x="809" y="1017" on="1"/>
        <pt x="768" y="1031" on="0"/>
        <pt x="712" y="1031" on="1"/>
        <pt x="589" y="1031" on="0"/>
        <pt x="428" y="844" on="0"/>
        <pt x="354" y="565" on="0"/>
        <pt x="354" y="423" on="1"/>
        <pt x="354" y="288" on="0"/>
        <pt x="428" y="140" on="0"/>
        <pt x="499" y="140" on="1"/>
        <pt x="553" y="140" on="0"/>
        <pt x="662" y="212" on="0"/>
        <pt x="709" y="267" on="1"/>
      </contour>
    </TTGlyph>
    <TTGlyph name="approxequal" xMin="20" yMin="269" xMax="1021" yMax="1085">
      <component glyphName="asciitilde" x="-107" y="-435" flags="0x4"/>
      <component glyphName="asciitilde" x="-57" y="11" flags="0x4"/>
    </TTGlyph>
    <TTGlyph name="aring" xMin="70" yMin="-20" xMax="1123" yMax="1796">
      <component glyphName="a" x="0" y="0" flags="0x0"/>
      <component glyphName="ring" x="387" y="0" flags="0x0"/>
    </TTGlyph>
    <TTGlyph name="arrowdown" xMin="175" yMin="143" xMax="1354" yMax="1447">
      <contour>
        <pt x="1354" y="733" on="1"/>
        <pt x="764" y="143" on="1"/>
        <pt x="175" y="733" on="1"/>
        <pt x="314" y="869" on="1"/>
        <pt x="691" y="491" on="1"/>
        <pt x="658" y="678" on="1"/>
        <pt x="658" y="1447" on="1"/>
        <pt x="871" y="1447" on="1"/>
        <pt x="871" y="678" on="1"/>
        <pt x="837" y="491" on="1"/>
        <pt x="1215" y="869" on="1"/>
      </contour>
    </TTGlyph>
    <TTGlyph name="arrowleft" xMin="113" yMin="177" xMax="1417" yMax="1356">
      <contour>
        <pt x="460" y="839" on="1"/>
        <pt x="648" y="873" on="1"/>
        <pt x="1417" y="873" on="1"/>
        <pt x="1416" y="660" on="1"/>
        <pt x="648" y="660" on="1"/>
        <pt x="460" y="694" on="1"/>
        <pt x="839" y="316" on="1"/>
        <pt x="703" y="177" on="1"/>
        <pt x="113" y="766" on="1"/>
        <pt x="703" y="1356" on="1"/>
        <pt x="839" y="1217" on="1"/>
      </contour>
    </TTGlyph>
    <TTGlyph name="arrowright" xMin="113" yMin="177" xMax="1417" yMax="1356">
      <contour>
        <pt x="827" y="1356" on="1"/>
        <pt x="1417" y="766" on="1"/>
        <pt x="827" y="177" on="1"/>
        <pt x="691" y="316" on="1"/>
        <pt x="1070" y="694" on="1"/>
        <pt x="882" y="660" on="1"/>
        <pt x="114" y="660" on="1"/>
        <pt x="113" y="873" on="1"/>
        <pt x="882" y="873" on="1"/>
        <pt x="1070" y="839" on="1"/>
        <pt x="691" y="1217" on="1"/>
      </contour>
    </TTGlyph>
    <TTGlyph name="arrowup" xMin="175" yMin="143" xMax="1354" yMax="1447">
      <contour>
        <pt x="837" y="1099" on="1"/>
        <pt x="871" y="912" on="1"/>
        <pt x="871" y="143" on="1"/>
        <pt x="658" y="143" on="1"/>
        <pt x="658" y="912" on="1"/>
        <pt x="691" y="1099" on="1"/>
        <pt x="314" y="721" on="1"/>
        <pt x="175" y="857" on="1"/>
        <pt x="764" y="1447" on="1"/>
        <pt x="1354" y="857" on="1"/>
        <pt x="1215" y="721" on="1"/>
      </contour>
    </TTGlyph>
    <TTGlyph name="asciicircum" xMin="185" yMin="413" xMax="1178" yMax="1531">
      <contour>
        <pt x="781" y="1531" on="1"/>
        <pt x="1178" y="413" on="1"/>
        <pt x="965" y="413" on="1"/>
        <pt x="680" y="1208" on="1"/>
        <pt x="396" y="413" on="1"/>
        <pt x="185" y="413" on="1"/>
        <pt x="577" y="1531" on="1"/>
      </contour>
    </TTGlyph>
    <TTGlyph name="asciitilde" xMin="127" yMin="704" xMax="1078" yMax="1074">
      <contour>
        <pt x="144" y="914" on="0"/>
        <pt x="236" y="1011" on="0"/>
        <pt x="367" y="1074" on="0"/>
        <pt x="439" y="1074" on="1"/>
        <pt x="482" y="1074" on="0"/>
        <pt x="555" y="1048" on="0"/>
        <pt x="610" y="1013" on="0"/>
        <pt x="649" y="983" on="1"/>
        <pt x="694" y="947" on="0"/>
        <pt x="757" y="913" on="0"/>
        <pt x="793" y="913" on="1"/>
        <pt x="857" y="913" on="0"/>
        <pt x="952" y="969" on="0"/>
        <pt x="989" y="1024" on="1"/>
        <pt x="1078" y="926" on="1"/>
        <pt x="1063" y="872" on="0"/>
        <pt x="969" y="769" on="0"/>
        <pt x="834" y="704" on="0"/>
        <pt x="761" y="704" on="1"/>
        <pt x="716" y="704" on="0"/>
        <pt x="641" y="731" on="0"/>
        <pt x="585" y="768" on="0"/>
        <pt x="546" y="799" on="1"/>
        <pt x="502" y="835" on="0"/>
        <pt x="439" y="871" on="0"/>
        <pt x="402" y="871" on="1"/>
        <pt x="343" y="871" on="0"/>
        <pt x="241" y="817" on="0"/>
        <pt x="206" y="765" on="1"/>
        <pt x="127" y="864" on="1"/>
      </contour>
    </TTGlyph>
    <TTGlyph name="asterisk" xMin="246" yMin="636" xMax="1285" yMax="1664">
      <contour>
        <pt x="580" y="1123" on="1"/>
        <pt x="664" y="1151" on="1"/>
        <pt x="588" y="1177" on="1"/>
        <pt x="278" y="1313" on="1"/>
        <pt x="408" y="1500" on="1"/>
        <pt x="662" y="1289" on="1"/>
        <pt x="721" y="1234" on="1"/>
        <pt x="713" y="1318" on="1"/>
        <pt x="706" y="1664" on="1"/>
        <pt x="932" y="1663" on="1"/>
        <pt x="851" y="1316" on="1"/>
        <pt x="828" y="1236" on="1"/>
        <pt x="896" y="1290" on="1"/>
        <pt x="1197" y="1502" on="1"/>
        <pt x="1285" y="1312" on="1"/>
        <pt x="950" y="1177" on="1"/>
        <pt x="866" y="1149" on="1"/>
        <pt x="943" y="1122" on="1"/>
        <pt x="1252" y="987" on="1"/>
        <pt x="1123" y="800" on="1"/>
        <pt x="868" y="1011" on="1"/>
        <pt x="809" y="1068" on="1"/>
        <pt x="817" y="982" on="1"/>
        <pt x="824" y="636" on="1"/>
        <pt x="598" y="637" on="1"/>
        <pt x="678" y="984" on="1"/>
        <pt x="702" y="1065" on="1"/>
        <pt x="634" y="1009" on="1"/>
        <pt x="334" y="798" on="1"/>
        <pt x="246" y="988" on="1"/>
      </contour>
    </TTGlyph>
    <TTGlyph name="at" xMin="84" yMin="-433" xMax="1893" yMax="1561">
      <contour>
        <pt x="1401" y="1561" on="0"/>
        <pt x="1717" y="1404" on="0"/>
        <pt x="1893" y="1110" on="0"/>
        <pt x="1893" y="911" on="1"/>
        <pt x="1893" y="641" on="0"/>
        <pt x="1712" y="228" on="0"/>
        <pt x="1427" y="4" on="0"/>
        <pt x="1277" y="4" on="1"/>
        <pt x="1214" y="4" on="0"/>
        <pt x="1168" y="108" on="0"/>
        <pt x="1168" y="208" on="1"/>
        <pt x="1168" y="245" on="0"/>
        <pt x="1186" y="379" on="0"/>
        <pt x="1201" y="444" on="1"/>
        <pt x="1153" y="330" on="0"/>
        <pt x="1027" y="132" on="0"/>
        <pt x="882" y="7" on="0"/>
        <pt x="812" y="7" on="1"/>
        <pt x="732" y="7" on="0"/>
        <pt x="593" y="102" on="0"/>
        <pt x="506" y="297" on="0"/>
        <pt x="506" y="438" on="1"/>
        <pt x="506" y="599" on="0"/>
        <pt x="640" y="907" on="0"/>
        <pt x="901" y="1106" on="0"/>
        <pt x="1082" y="1106" on="1"/>
        <pt x="1128" y="1106" on="0"/>
        <pt x="1255" y="1073" on="0"/>
        <pt x="1294" y="1046" on="1"/>
        <pt x="1481" y="1088" on="1"/>
        <pt x="1452" y="974" on="0"/>
        <pt x="1386" y="569" on="0"/>
        <pt x="1372" y="417" on="1"/>
        <pt x="1366" y="356" on="0"/>
        <pt x="1366" y="296" on="1"/>
        <pt x="1366" y="263" on="0"/>
        <pt x="1368" y="223" on="1"/>
        <pt x="1369" y="196" on="0"/>
        <pt x="1383" y="169" on="0"/>
        <pt x="1391" y="169" on="1"/>
        <pt x="1472" y="169" on="0"/>
        <pt x="1623" y="367" on="0"/>
        <pt x="1715" y="676" on="0"/>
        <pt x="1715" y="830" on="1"/>
        <pt x="1715" y="1031" on="0"/>
        <pt x="1543" y="1291" on="0"/>
        <pt x="1268" y="1409" on="0"/>
        <pt x="1109" y="1409" on="1"/>
        <pt x="859" y="1409" on="0"/>
        <pt x="479" y="1120" on="0"/>
        <pt x="275" y="658" on="0"/>
        <pt x="275" y="408" on="1"/>
        <pt x="275" y="171" on="0"/>
        <pt x="443" y="-137" on="0"/>
        <pt x="734" y="-280" on="0"/>
        <pt x="923" y="-280" on="1"/>
        <pt x="1009" y="-280" on="0"/>
        <pt x="1226" y="-242" on="0"/>
        <pt x="1275" y="-218" on="1"/>
        <pt x="1313" y="-316" on="1"/>
        <pt x="1242" y="-370" on="0"/>
        <pt x="1019" y="-433" on="0"/>
        <pt x="892" y="-433" on="1"/>
        <pt x="655" y="-433" on="0"/>
        <pt x="291" y="-265" on="0"/>
        <pt x="84" y="80" on="0"/>
        <pt x="84" y="336" on="1"/>
        <pt x="84" y="690" on="0"/>
        <pt x="400" y="1250" on="0"/>
        <pt x="914" y="1561" on="0"/>
        <pt x="1197" y="1561" on="1"/>
      </contour>
      <contour>
        <pt x="908" y="201" on="0"/>
        <pt x="1080" y="446" on="0"/>
        <pt x="1223" y="774" on="0"/>
        <pt x="1236" y="881" on="1"/>
        <pt x="1217" y="915" on="0"/>
        <pt x="1108" y="965" on="0"/>
        <pt x="1063" y="965" on="1"/>
        <pt x="947" y="965" on="0"/>
        <pt x="795" y="813" on="0"/>
        <pt x="726" y="577" on="0"/>
        <pt x="726" y="447" on="1"/>
        <pt x="726" y="347" on="0"/>
        <pt x="788" y="201" on="0"/>
        <pt x="850" y="201" on="1"/>
      </contour>
    </TTGlyph>
    <TTGlyph name="atilde" xMin="70" yMin="-20" xMax="1133" yMax="1667">
      <component glyphName="a" x="0" y="0" flags="0x0"/>
      <component glyphName="tilde" x="350" y="0" flags="0x0"/>
    </TTGlyph>
    <TTGlyph name="b" xMin="92" yMin="-20" xMax="1121" yMax="1650">
      <contour>
        <pt x="184" y="1527" on="1"/>
        <pt x="205" y="1611" on="1"/>
        <pt x="513" y="1650" on="1"/>
        <pt x="566" y="1623" on="1"/>
        <pt x="488" y="1036" on="1"/>
        <pt x="543" y="1092" on="0"/>
        <pt x="689" y="1163" on="0"/>
        <pt x="778" y="1163" on="1"/>
        <pt x="947" y="1163" on="0"/>
        <pt x="1121" y="933" on="0"/>
        <pt x="1121" y="730" on="1"/>
        <pt x="1121" y="541" on="0"/>
        <pt x="959" y="195" on="0"/>
        <pt x="657" y="-20" on="0"/>
        <pt x="458" y="-20" on="1"/>
        <pt x="401" y="-20" on="0"/>
        <pt x="272" y="5" on="0"/>
        <pt x="216" y="23" on="1"/>
        <pt x="92" y="-20" on="1"/>
        <pt x="284" y="1484" on="1"/>
      </contour>
      <contour>
        <pt x="368" y="131" on="1"/>
        <pt x="412" y="111" on="0"/>
        <pt x="486" y="111" on="1"/>
        <pt x="605" y="111" on="0"/>
        <pt x="764" y="293" on="0"/>
        <pt x="840" y="574" on="0"/>
        <pt x="840" y="723" on="1"/>
        <pt x="840" y="849" on="0"/>
        <pt x="759" y="1002" on="0"/>
        <pt x="685" y="1002" on="1"/>
        <pt x="623" y="1002" on="0"/>
        <pt x="510" y="926" on="0"/>
        <pt x="466" y="869" on="1"/>
      </contour>
    </TTGlyph>
    <TTGlyph name="backslash" xMin="70" yMin="-362" xMax="851" yMax="1597">
      <contour>
        <pt x="70" y="1597" on="1"/>
        <pt x="274" y="1597" on="1"/>
        <pt x="851" y="-362" on="1"/>
        <pt x="646" y="-362" on="1"/>
      </contour>
    </TTGlyph>
    <TTGlyph name="bar" xMin="349" yMin="-186" xMax="544" yMax="1780">
      <contour>
        <pt x="544" y="1780" on="1"/>
        <pt x="544" y="-186" on="1"/>
        <pt x="349" y="-186" on="1"/>
        <pt x="349" y="1780" on="1"/>
      </contour>
    </TTGlyph>
    <TTGlyph name="braceleft" xMin="123" yMin="-210" xMax="1019" yMax="1752">
      <contour>
        <pt x="340" y="595" on="0"/>
        <pt x="313" y="630" on="0"/>
        <pt x="288" y="646" on="1"/>
        <pt x="256" y="667" on="0"/>
        <pt x="168" y="703" on="0"/>
        <pt x="123" y="714" on="1"/>
        <pt x="141" y="838" on="1"/>
        <pt x="268" y="869" on="0"/>
        <pt x="333" y="903" on="1"/>
        <pt x="393" y="934" on="0"/>
        <pt x="398" y="966" on="1"/>
        <pt x="479" y="1500" on="1"/>
        <pt x="494" y="1597" on="0"/>
        <pt x="565" y="1707" on="0"/>
        <pt x="676" y="1752" on="0"/>
        <pt x="759" y="1752" on="1"/>
        <pt x="799" y="1752" on="0"/>
        <pt x="914" y="1731" on="0"/>
        <pt x="1006" y="1709" on="0"/>
        <pt x="1019" y="1705" on="1"/>
        <pt x="1016" y="1691" on="0"/>
        <pt x="1003" y="1613" on="0"/>
        <pt x="1002" y="1601" on="1"/>
        <pt x="726" y="1601" on="1"/>
        <pt x="630" y="970" on="1"/>
        <pt x="624" y="932" on="0"/>
        <pt x="575" y="873" on="0"/>
        <pt x="532" y="846" on="1"/>
        <pt x="514" y="835" on="0"/>
        <pt x="406" y="784" on="0"/>
        <pt x="387" y="776" on="1"/>
        <pt x="495" y="719" on="0"/>
        <pt x="529" y="684" on="1"/>
        <pt x="571" y="640" on="0"/>
        <pt x="571" y="591" on="1"/>
        <pt x="571" y="581" on="0"/>
        <pt x="570" y="575" on="1"/>
        <pt x="475" y="-55" on="1"/>
        <pt x="750" y="-55" on="1"/>
        <pt x="746" y="-78" on="0"/>
        <pt x="738" y="-148" on="0"/>
        <pt x="736" y="-163" on="1"/>
        <pt x="650" y="-188" on="0"/>
        <pt x="535" y="-210" on="0"/>
        <pt x="461" y="-210" on="1"/>
        <pt x="359" y="-210" on="0"/>
        <pt x="247" y="-145" on="0"/>
        <pt x="248" y="-67" on="1"/>
        <pt x="249" y="-49" on="0"/>
        <pt x="326" y="482" on="0"/>
        <pt x="340" y="579" on="1"/>
      </contour>
    </TTGlyph>
    <TTGlyph name="braceright" xMin="33" yMin="-206" xMax="929" yMax="1756">
      <contour>
        <pt x="712" y="951" on="0"/>
        <pt x="739" y="916" on="0"/>
        <pt x="764" y="900" on="1"/>
        <pt x="796" y="879" on="0"/>
        <pt x="884" y="843" on="0"/>
        <pt x="929" y="832" on="1"/>
        <pt x="911" y="708" on="1"/>
        <pt x="784" y="677" on="0"/>
        <pt x="719" y="643" on="1"/>
        <pt x="659" y="612" on="0"/>
        <pt x="654" y="580" on="1"/>
        <pt x="573" y="46" on="1"/>
        <pt x="558" y="-51" on="0"/>
        <pt x="487" y="-161" on="0"/>
        <pt x="376" y="-206" on="0"/>
        <pt x="293" y="-206" on="1"/>
        <pt x="253" y="-206" on="0"/>
        <pt x="138" y="-185" on="0"/>
        <pt x="46" y="-163" on="0"/>
        <pt x="33" y="-159" on="1"/>
        <pt x="36" y="-145" on="0"/>
        <pt x="49" y="-67" on="0"/>
        <pt x="50" y="-55" on="1"/>
        <pt x="326" y="-55" on="1"/>
        <pt x="422" y="576" on="1"/>
        <pt x="428" y="614" on="0"/>
        <pt x="477" y="673" on="0"/>
        <pt x="520" y="700" on="1"/>
        <pt x="538" y="711" on="0"/>
        <pt x="646" y="762" on="0"/>
        <pt x="665" y="770" on="1"/>
        <pt x="557" y="827" on="0"/>
        <pt x="523" y="862" on="1"/>
        <pt x="481" y="906" on="0"/>
        <pt x="481" y="955" on="1"/>
        <pt x="481" y="965" on="0"/>
        <pt x="482" y="971" on="1"/>
        <pt x="577" y="1601" on="1"/>
        <pt x="302" y="1601" on="1"/>
        <pt x="306" y="1624" on="0"/>
        <pt x="314" y="1694" on="0"/>
        <pt x="316" y="1709" on="1"/>
        <pt x="402" y="1734" on="0"/>
        <pt x="517" y="1756" on="0"/>
        <pt x="591" y="1756" on="1"/>
        <pt x="693" y="1756" on="0"/>
        <pt x="805" y="1691" on="0"/>
        <pt x="804" y="1613" on="1"/>
        <pt x="803" y="1595" on="0"/>
        <pt x="726" y="1064" on="0"/>
        <pt x="712" y="967" on="1"/>
      </contour>
    </TTGlyph>
    <TTGlyph name="bracketleft" xMin="141" yMin="-214" xMax="883" yMax="1755">
      <contour>
        <pt x="366" y="1642" on="0"/>
        <pt x="499" y="1755" on="0"/>
        <pt x="623" y="1755" on="1"/>
        <pt x="662" y="1755" on="0"/>
        <pt x="778" y="1734" on="0"/>
        <pt x="870" y="1712" on="0"/>
        <pt x="883" y="1708" on="1"/>
        <pt x="866" y="1601" on="1"/>
        <pt x="591" y="1601" on="1"/>
        <pt x="368" y="-55" on="1"/>
        <pt x="643" y="-57" on="1"/>
        <pt x="631" y="-167" on="1"/>
        <pt x="544" y="-192" on="0"/>
        <pt x="431" y="-214" on="0"/>
        <pt x="358" y="-214" on="1"/>
        <pt x="255" y="-214" on="0"/>
        <pt x="141" y="-149" on="0"/>
        <pt x="141" y="-71" on="1"/>
        <pt x="141" y="-1" on="0"/>
        <pt x="145" y="39" on="1"/>
        <pt x="149" y="111" on="0"/>
        <pt x="220" y="618" on="0"/>
        <pt x="289" y="1095" on="1"/>
        <pt x="339" y="1429" on="0"/>
        <pt x="348" y="1503" on="1"/>
      </contour>
    </TTGlyph>
    <TTGlyph name="bracketright" xMin="16" yMin="-199" xMax="758" yMax="1770">
      <contour>
        <pt x="533" y="-86" on="0"/>
        <pt x="400" y="-199" on="0"/>
        <pt x="276" y="-199" on="1"/>
        <pt x="237" y="-199" on="0"/>
        <pt x="121" y="-178" on="0"/>
        <pt x="29" y="-156" on="0"/>
        <pt x="16" y="-152" on="1"/>
        <pt x="33" y="-45" on="1"/>
        <pt x="308" y="-45" on="1"/>
        <pt x="531" y="1611" on="1"/>
        <pt x="256" y="1613" on="1"/>
        <pt x="268" y="1723" on="1"/>
        <pt x="355" y="1748" on="0"/>
        <pt x="468" y="1770" on="0"/>
        <pt x="541" y="1770" on="1"/>
        <pt x="644" y="1770" on="0"/>
        <pt x="758" y="1705" on="0"/>
        <pt x="758" y="1627" on="1"/>
        <pt x="758" y="1557" on="0"/>
        <pt x="754" y="1517" on="1"/>
        <pt x="750" y="1445" on="0"/>
        <pt x="679" y="938" on="0"/>
        <pt x="610" y="461" on="1"/>
        <pt x="560" y="127" on="0"/>
        <pt x="551" y="53" on="1"/>
      </contour>
    </TTGlyph>
    <TTGlyph name="breve" xMin="55" yMin="1300" xMax="697" yMax="1668">
      <contour>
        <pt x="55" y="1646" on="0"/>
        <pt x="58" y="1668" on="1"/>
        <pt x="207" y="1668" on="1"/>
        <pt x="207" y="1643" on="0"/>
        <pt x="208" y="1629" on="1"/>
        <pt x="215" y="1567" on="0"/>
        <pt x="280" y="1486" on="0"/>
        <pt x="361" y="1486" on="1"/>
        <pt x="458" y="1486" on="0"/>
        <pt x="537" y="1592" on="0"/>
        <pt x="550" y="1668" on="1"/>
        <pt x="697" y="1668" on="1"/>
        <pt x="697" y="1645" on="0"/>
        <pt x="696" y="1634" on="1"/>
        <pt x="691" y="1552" on="0"/>
        <pt x="609" y="1398" on="0"/>
        <pt x="458" y="1300" on="0"/>
        <pt x="356" y="1300" on="1"/>
        <pt x="254" y="1300" on="0"/>
        <pt x="119" y="1392" on="0"/>
        <pt x="55" y="1539" on="0"/>
        <pt x="55" y="1621" on="1"/>
      </contour>
    </TTGlyph>
    <TTGlyph name="breve.cap" xMin="50" yMin="1631" xMax="694" yMax="1999">
      <contour>
        <pt x="50" y="1974" on="0"/>
        <pt x="54" y="1999" on="1"/>
        <pt x="206" y="1999" on="1"/>
        <pt x="208" y="1944" on="0"/>
        <pt x="226" y="1870" on="0"/>
        <pt x="292" y="1817" on="0"/>
        <pt x="359" y="1817" on="1"/>
        <pt x="522" y="1817" on="0"/>
        <pt x="548" y="1999" on="1"/>
        <pt x="694" y="1999" on="1"/>
        <pt x="694" y="1899" on="0"/>
        <pt x="606" y="1731" on="0"/>
        <pt x="451" y="1631" on="0"/>
        <pt x="354" y="1631" on="1"/>
        <pt x="187" y="1631" on="0"/>
        <pt x="50" y="1813" on="0"/>
        <pt x="50" y="1941" on="1"/>
      </contour>
    </TTGlyph>
    <TTGlyph name="breve.r" xMin="179" yMin="1265" xMax="991" yMax="1635">
      <contour>
        <pt x="179" y="1602" on="0"/>
        <pt x="188" y="1635" on="1"/>
        <pt x="406" y="1635" on="1"/>
        <pt x="435" y="1635" on="0"/>
        <pt x="435" y="1589" on="1"/>
        <pt x="435" y="1573" on="0"/>
        <pt x="431" y="1541" on="1"/>
        <pt x="430" y="1532" on="0"/>
        <pt x="428" y="1508" on="0"/>
        <pt x="428" y="1494" on="1"/>
        <pt x="428" y="1433" on="0"/>
        <pt x="495" y="1370" on="0"/>
        <pt x="576" y="1370" on="1"/>
        <pt x="649" y="1370" on="0"/>
        <pt x="724" y="1421" on="0"/>
        <pt x="750" y="1495" on="0"/>
        <pt x="759" y="1556" on="1"/>
        <pt x="765" y="1593" on="0"/>
        <pt x="784" y="1635" on="0"/>
        <pt x="805" y="1635" on="1"/>
        <pt x="991" y="1635" on="1"/>
        <pt x="991" y="1624" on="0"/>
        <pt x="989" y="1602" on="1"/>
        <pt x="965" y="1427" on="0"/>
        <pt x="746" y="1265" on="0"/>
        <pt x="553" y="1265" on="1"/>
        <pt x="379" y="1265" on="0"/>
        <pt x="179" y="1407" on="0"/>
        <pt x="179" y="1552" on="1"/>
      </contour>
    </TTGlyph>
    <TTGlyph name="breve.rcap" xMin="111" yMin="1635" xMax="935" yMax="2001">
      <contour>
        <pt x="111" y="1944" on="0"/>
        <pt x="114" y="1981" on="0"/>
        <pt x="120" y="2001" on="1"/>
        <pt x="350" y="2001" on="1"/>
        <pt x="379" y="2001" on="0"/>
        <pt x="379" y="1955" on="1"/>
        <pt x="379" y="1938" on="0"/>
        <pt x="375" y="1906" on="1"/>
        <pt x="374" y="1898" on="0"/>
        <pt x="372" y="1874" on="0"/>
        <pt x="372" y="1860" on="1"/>
        <pt x="372" y="1802" on="0"/>
        <pt x="437" y="1739" on="0"/>
        <pt x="517" y="1739" on="1"/>
        <pt x="590" y="1739" on="0"/>
        <pt x="667" y="1786" on="0"/>
        <pt x="695" y="1860" on="0"/>
        <pt x="703" y="1922" on="1"/>
        <pt x="709" y="1959" on="0"/>
        <pt x="728" y="2001" on="0"/>
        <pt x="749" y="2001" on="1"/>
        <pt x="935" y="2001" on="1"/>
        <pt x="935" y="1990" on="0"/>
        <pt x="933" y="1968" on="1"/>
        <pt x="911" y="1797" on="0"/>
        <pt x="692" y="1635" on="0"/>
        <pt x="499" y="1635" on="1"/>
        <pt x="314" y="1635" on="0"/>
        <pt x="111" y="1775" on="0"/>
        <pt x="111" y="1918" on="1"/>
      </contour>
    </TTGlyph>
    <TTGlyph name="brokenbar" xMin="349" yMin="-186" xMax="544" yMax="1780">
      <contour>
        <pt x="544" y="1780" on="1"/>
        <pt x="544" y="903" on="1"/>
        <pt x="349" y="903" on="1"/>
        <pt x="349" y="1780" on="1"/>
      </contour>
      <contour>
        <pt x="544" y="691" on="1"/>
        <pt x="544" y="-186" on="1"/>
        <pt x="349" y="-186" on="1"/>
        <pt x="349" y="691" on="1"/>
      </contour>
    </TTGlyph>
    <TTGlyph name="bullet" xMin="206" yMin="498" xMax="675" yMax="971">
      <contour>
        <pt x="206" y="771" on="0"/>
        <pt x="273" y="895" on="0"/>
        <pt x="396" y="971" on="0"/>
        <pt x="476" y="971" on="1"/>
        <pt x="530" y="971" on="0"/>
        <pt x="622" y="917" on="0"/>
        <pt x="675" y="826" on="0"/>
        <pt x="675" y="773" on="1"/>
        <pt x="675" y="701" on="0"/>
        <pt x="612" y="575" on="0"/>
        <pt x="489" y="498" on="0"/>
        <pt x="405" y="498" on="1"/>
        <pt x="351" y="498" on="0"/>
        <pt x="260" y="554" on="0"/>
        <pt x="206" y="648" on="0"/>
        <pt x="206" y="700" on="1"/>
      </contour>
    </TTGlyph>
    <TTGlyph name="c" xMin="67" yMin="-20" xMax="928" yMax="1163">
      <contour>
        <pt x="67" y="619" on="0"/>
        <pt x="210" y="949" on="0"/>
        <pt x="492" y="1163" on="0"/>
        <pt x="688" y="1163" on="1"/>
        <pt x="748" y="1163" on="0"/>
        <pt x="882" y="1141" on="0"/>
        <pt x="928" y="1121" on="1"/>
        <pt x="856" y="855" on="1"/>
        <pt x="854" y="857" on="0"/>
        <pt x="827" y="859" on="1"/>
        <pt x="807" y="861" on="0"/>
        <pt x="806" y="862" on="1"/>
        <pt x="749" y="929" on="0"/>
        <pt x="662" y="1010" on="0"/>
        <pt x="627" y="1010" on="1"/>
        <pt x="553" y="1010" on="0"/>
        <pt x="426" y="879" on="0"/>
        <pt x="350" y="637" on="0"/>
        <pt x="350" y="478" on="1"/>
        <pt x="350" y="305" on="0"/>
        <pt x="444" y="147" on="0"/>
        <pt x="538" y="147" on="1"/>
        <pt x="618" y="147" on="0"/>
        <pt x="732" y="206" on="0"/>
        <pt x="798" y="268" on="1"/>
        <pt x="851" y="175" on="1"/>
        <pt x="820" y="131" on="0"/>
        <pt x="708" y="42" on="0"/>
        <pt x="542" y="-20" on="0"/>
        <pt x="442" y="-20" on="1"/>
        <pt x="325" y="-20" on="0"/>
        <pt x="157" y="88" on="0"/>
        <pt x="67" y="298" on="0"/>
        <pt x="67" y="448" on="1"/>
      </contour>
    </TTGlyph>
    <TTGlyph name="cacute" xMin="67" yMin="-20" xMax="1039" yMax="1743">
      <component glyphName="acute" x="502" y="0" flags="0x0"/>
      <component glyphName="c" x="0" y="0" flags="0x0"/>
    </TTGlyph>
    <TTGlyph name="caron" xMin="59" yMin="1250" xMax="787" yMax="1661">
      <contour>
        <pt x="162" y="1661" on="1"/>
        <pt x="384" y="1436" on="1"/>
        <pt x="695" y="1661" on="1"/>
        <pt x="787" y="1604" on="1"/>
        <pt x="451" y="1250" on="1"/>
        <pt x="275" y="1250" on="1"/>
        <pt x="59" y="1603" on="1"/>
      </contour>
    </TTGlyph>
    <TTGlyph name="caron.cap" xMin="87" yMin="1610" xMax="814" yMax="2008">
      <contour>
        <pt x="189" y="2008" on="1"/>
        <pt x="406" y="1808" on="1"/>
        <pt x="727" y="2008" on="1"/>
        <pt x="814" y="1951" on="1"/>
        <pt x="478" y="1610" on="1"/>
        <pt x="302" y="1610" on="1"/>
        <pt x="87" y="1950" on="1"/>
      </contour>
    </TTGlyph>
    <TTGlyph name="caronvertical" xMin="203" yMin="1039" xMax="460" yMax="1680">
      <contour>
        <pt x="203" y="1094" on="1"/>
        <pt x="219" y="1151" on="0"/>
        <pt x="244" y="1310" on="0"/>
        <pt x="248" y="1391" on="1"/>
        <pt x="249" y="1401" on="0"/>
        <pt x="249" y="1423" on="1"/>
        <pt x="249" y="1476" on="0"/>
        <pt x="233" y="1573" on="0"/>
        <pt x="221" y="1592" on="1"/>
        <pt x="240" y="1634" on="1"/>
        <pt x="425" y="1680" on="1"/>
        <pt x="443" y="1662" on="0"/>
        <pt x="460" y="1571" on="0"/>
        <pt x="460" y="1512" on="1"/>
        <pt x="460" y="1486" on="0"/>
        <pt x="459" y="1473" on="1"/>
        <pt x="452" y="1348" on="0"/>
        <pt x="369" y="1107" on="0"/>
        <pt x="308" y="1039" on="1"/>
        <pt x="209" y="1069" on="1"/>
      </contour>
    </TTGlyph>
    <TTGlyph name="ccaron" xMin="67" yMin="-20" xMax="1062" yMax="1661">
      <component glyphName="caron" x="275" y="0" flags="0x0"/>
      <component glyphName="c" x="0" y="0" flags="0x0"/>
    </TTGlyph>
    <TTGlyph name="ccedilla" xMin="67" yMin="-475" xMax="928" yMax="1163">
      <contour>
        <pt x="553" y="1010" on="0"/>
        <pt x="426" y="879" on="0"/>
        <pt x="350" y="637" on="0"/>
        <pt x="350" y="478" on="1"/>
        <pt x="350" y="305" on="0"/>
        <pt x="444" y="147" on="0"/>
        <pt x="538" y="147" on="1"/>
        <pt x="618" y="147" on="0"/>
        <pt x="732" y="206" on="0"/>
        <pt x="798" y="268" on="1"/>
        <pt x="851" y="175" on="1"/>
        <pt x="812" y="120" on="0"/>
        <pt x="658" y="13" on="0"/>
        <pt x="554" y="-9" on="1"/>
        <pt x="566" y="-43" on="0"/>
        <pt x="580" y="-138" on="0"/>
        <pt x="580" y="-182" on="1"/>
        <pt x="580" y="-324" on="0"/>
        <pt x="432" y="-475" on="0"/>
        <pt x="289" y="-475" on="1"/>
        <pt x="246" y="-475" on="0"/>
        <pt x="138" y="-458" on="0"/>
        <pt x="122" y="-447" on="1"/>
        <pt x="148" y="-295" on="1"/>
        <pt x="161" y="-302" on="0"/>
        <pt x="208" y="-310" on="0"/>
        <pt x="232" y="-310" on="1"/>
        <pt x="318" y="-310" on="0"/>
        <pt x="415" y="-199" on="0"/>
        <pt x="415" y="-90" on="1"/>
        <pt x="415" y="-61" on="0"/>
        <pt x="411" y="-19" on="1"/>
        <pt x="248" y="-8" on="0"/>
        <pt x="67" y="233" on="0"/>
        <pt x="67" y="448" on="1"/>
        <pt x="67" y="619" on="0"/>
        <pt x="210" y="949" on="0"/>
        <pt x="492" y="1163" on="0"/>
        <pt x="688" y="1163" on="1"/>
        <pt x="748" y="1163" on="0"/>
        <pt x="882" y="1141" on="0"/>
        <pt x="928" y="1121" on="1"/>
        <pt x="856" y="855" on="1"/>
        <pt x="854" y="857" on="0"/>
        <pt x="827" y="859" on="1"/>
        <pt x="807" y="861" on="0"/>
        <pt x="806" y="862" on="1"/>
        <pt x="749" y="929" on="0"/>
        <pt x="662" y="1010" on="0"/>
        <pt x="627" y="1010" on="1"/>
      </contour>
    </TTGlyph>
    <TTGlyph name="ccircumflex" xMin="67" yMin="-20" xMax="1026" yMax="1661">
      <component glyphName="circumflex" x="247" y="0" flags="0x0"/>
      <component glyphName="c" x="0" y="0" flags="0x0"/>
    </TTGlyph>
    <TTGlyph name="cdotaccent" xMin="67" yMin="-20" xMax="928" yMax="1679">
      <component glyphName="c" x="0" y="0" flags="0x0"/>
      <component glyphName="dotaccent" x="496" y="0" flags="0x0"/>
    </TTGlyph>
    <TTGlyph name="cedilla" xMin="-18" yMin="-475" xMax="440" yMax="34">
      <contour>
        <pt x="396" y="30" on="1"/>
        <pt x="414" y="5" on="0"/>
        <pt x="440" y="-122" on="0"/>
        <pt x="440" y="-182" on="1"/>
        <pt x="440" y="-324" on="0"/>
        <pt x="292" y="-475" on="0"/>
        <pt x="149" y="-475" on="1"/>
        <pt x="106" y="-475" on="0"/>
        <pt x="-2" y="-458" on="0"/>
        <pt x="-18" y="-447" on="1"/>
        <pt x="8" y="-295" on="1"/>
        <pt x="21" y="-302" on="0"/>
        <pt x="68" y="-310" on="0"/>
        <pt x="92" y="-310" on="1"/>
        <pt x="178" y="-310" on="0"/>
        <pt x="275" y="-199" on="0"/>
        <pt x="275" y="-90" on="1"/>
        <pt x="275" y="-28" on="0"/>
        <pt x="263" y="30" on="1"/>
        <pt x="326" y="34" on="1"/>
      </contour>
    </TTGlyph>
    <TTGlyph name="cent" xMin="125" yMin="-215" xMax="986" yMax="1358">
      <contour>
        <pt x="270" y="23" on="0"/>
        <pt x="125" y="258" on="0"/>
        <pt x="125" y="449" on="1"/>
        <pt x="125" y="599" on="0"/>
        <pt x="238" y="895" on="0"/>
        <pt x="460" y="1115" on="0"/>
        <pt x="616" y="1149" on="1"/>
        <pt x="665" y="1358" on="1"/>
        <pt x="815" y="1358" on="1"/>
        <pt x="768" y="1162" on="1"/>
        <pt x="825" y="1160" on="0"/>
        <pt x="944" y="1139" on="0"/>
        <pt x="986" y="1121" on="1"/>
        <pt x="914" y="855" on="1"/>
        <pt x="912" y="857" on="0"/>
        <pt x="885" y="859" on="1"/>
        <pt x="865" y="861" on="0"/>
        <pt x="864" y="862" on="1"/>
        <pt x="807" y="929" on="0"/>
        <pt x="720" y="1010" on="0"/>
        <pt x="685" y="1010" on="1"/>
        <pt x="611" y="1010" on="0"/>
        <pt x="484" y="879" on="0"/>
        <pt x="408" y="637" on="0"/>
        <pt x="408" y="478" on="1"/>
        <pt x="408" y="305" on="0"/>
        <pt x="502" y="147" on="0"/>
        <pt x="596" y="147" on="1"/>
        <pt x="676" y="147" on="0"/>
        <pt x="790" y="206" on="0"/>
        <pt x="856" y="268" on="1"/>
        <pt x="909" y="175" on="1"/>
        <pt x="881" y="136" on="0"/>
        <pt x="782" y="54" on="0"/>
        <pt x="638" y="-9" on="0"/>
        <pt x="551" y="-17" on="1"/>
        <pt x="515" y="-215" on="1"/>
        <pt x="365" y="-215" on="1"/>
        <pt x="403" y="-9" on="1"/>
      </contour>
    </TTGlyph>
    <TTGlyph name="circumflex" xMin="50" yMin="1234" xMax="779" yMax="1661">
      <contour>
        <pt x="399" y="1661" on="1"/>
        <pt x="577" y="1661" on="1"/>
        <pt x="779" y="1292" on="1"/>
        <pt x="677" y="1234" on="1"/>
        <pt x="462" y="1463" on="1"/>
        <pt x="135" y="1235" on="1"/>
        <pt x="50" y="1292" on="1"/>
      </contour>
    </TTGlyph>
    <TTGlyph name="circumflex.cap" xMin="39" yMin="1610" xMax="767" yMax="2008">
      <contour>
        <pt x="379" y="2008" on="1"/>
        <pt x="556" y="2008" on="1"/>
        <pt x="767" y="1668" on="1"/>
        <pt x="668" y="1610" on="1"/>
        <pt x="449" y="1826" on="1"/>
        <pt x="126" y="1611" on="1"/>
        <pt x="39" y="1668" on="1"/>
      </contour>
    </TTGlyph>
    <TTGlyph name="colon" xMin="64" yMin="-21" xMax="476" yMax="1110">
      <component glyphName="period" x="91" y="809" flags="0x4"/>
      <component glyphName="period" x="-8" y="0" flags="0x0"/>
    </TTGlyph>
    <TTGlyph name="colonmonetary" xMin="253" yMin="-338" xMax="1504" yMax="1800">
      <contour>
        <pt x="852" y="-20" on="1"/>
        <pt x="808" y="-21" on="1"/>
        <pt x="749" y="-21" on="0"/>
        <pt x="684" y="-11" on="1"/>
        <pt x="621" y="-338" on="1"/>
        <pt x="514" y="-338" on="1"/>
        <pt x="582" y="16" on="1"/>
        <pt x="420" y="76" on="0"/>
        <pt x="253" y="372" on="0"/>
        <pt x="253" y="588" on="1"/>
        <pt x="253" y="841" on="0"/>
        <pt x="415" y="1230" on="0"/>
        <pt x="694" y="1473" on="0"/>
        <pt x="869" y="1517" on="1"/>
        <pt x="924" y="1800" on="1"/>
        <pt x="1031" y="1800" on="1"/>
        <pt x="981" y="1537" on="1"/>
        <pt x="1026" y="1542" on="0"/>
        <pt x="1064" y="1542" on="1"/>
        <pt x="1093" y="1542" on="0"/>
        <pt x="1151" y="1538" on="1"/>
        <pt x="1201" y="1800" on="1"/>
        <pt x="1308" y="1800" on="1"/>
        <pt x="1255" y="1526" on="1"/>
        <pt x="1346" y="1511" on="0"/>
        <pt x="1405" y="1492" on="1"/>
        <pt x="1476" y="1475" on="1"/>
        <pt x="1504" y="1469" on="1"/>
        <pt x="1446" y="1157" on="1"/>
        <pt x="1328" y="1157" on="1"/>
        <pt x="1307" y="1329" on="1"/>
        <pt x="1277" y="1355" on="0"/>
        <pt x="1226" y="1375" on="1"/>
        <pt x="988" y="132" on="1"/>
        <pt x="1041" y="144" on="0"/>
        <pt x="1129" y="183" on="0"/>
        <pt x="1155" y="207" on="1"/>
        <pt x="1247" y="358" on="1"/>
        <pt x="1368" y="348" on="1"/>
        <pt x="1299" y="70" on="1"/>
        <pt x="1272" y="68" on="0"/>
        <pt x="1202" y="54" on="0"/>
        <pt x="1172" y="45" on="1"/>
        <pt x="1117" y="27" on="0"/>
        <pt x="1019" y="1" on="0"/>
        <pt x="961" y="-8" on="1"/>
        <pt x="898" y="-338" on="1"/>
        <pt x="791" y="-338" on="1"/>
      </contour>
      <contour>
        <pt x="1125" y="1402" on="1"/>
        <pt x="1071" y="1412" on="0"/>
        <pt x="1006" y="1412" on="1"/>
        <pt x="988" y="1412" on="0"/>
        <pt x="956" y="1408" on="1"/>
        <pt x="713" y="143" on="1"/>
        <pt x="772" y="116" on="0"/>
        <pt x="844" y="116" on="1"/>
        <pt x="867" y="116" on="0"/>
        <pt x="878" y="117" on="1"/>
      </contour>
      <contour>
        <pt x="841" y="1371" on="1"/>
        <pt x="744" y="1320" on="0"/>
        <pt x="596" y="1104" on="0"/>
        <pt x="512" y="787" on="0"/>
        <pt x="512" y="593" on="1"/>
        <pt x="512" y="468" on="0"/>
        <pt x="567" y="277" on="0"/>
        <pt x="620" y="215" on="1"/>
      </contour>
    </TTGlyph>
    <TTGlyph name="comma" xMin="-12" yMin="-512" xMax="423" yMax="282">
      <contour>
        <pt x="234" y="282" on="1"/>
        <pt x="332" y="252" on="0"/>
        <pt x="423" y="86" on="0"/>
        <pt x="423" y="-17" on="1"/>
        <pt x="423" y="-126" on="0"/>
        <pt x="327" y="-321" on="0"/>
        <pt x="158" y="-469" on="0"/>
        <pt x="51" y="-512" on="1"/>
        <pt x="-12" y="-428" on="1"/>
        <pt x="-9" y="-407" on="1"/>
        <pt x="42" y="-382" on="0"/>
        <pt x="131" y="-283" on="0"/>
        <pt x="184" y="-155" on="0"/>
        <pt x="184" y="-88" on="1"/>
        <pt x="184" y="-45" on="0"/>
        <pt x="157" y="32" on="0"/>
        <pt x="112" y="83" on="0"/>
        <pt x="85" y="87" on="1"/>
        <pt x="89" y="142" on="1"/>
      </contour>
    </TTGlyph>
    <TTGlyph name="copyright" xMin="167" yMin="41" xMax="1700" yMax="1570">
      <contour>
        <pt x="1141" y="1570" on="0"/>
        <pt x="1493" y="1365" on="0"/>
        <pt x="1700" y="1014" on="0"/>
        <pt x="1700" y="806" on="1"/>
        <pt x="1700" y="597" on="0"/>
        <pt x="1493" y="246" on="0"/>
        <pt x="1141" y="41" on="0"/>
        <pt x="933" y="41" on="1"/>
        <pt x="725" y="41" on="0"/>
        <pt x="373" y="246" on="0"/>
        <pt x="167" y="597" on="0"/>
        <pt x="167" y="806" on="1"/>
        <pt x="167" y="1014" on="0"/>
        <pt x="373" y="1365" on="0"/>
        <pt x="725" y="1570" on="0"/>
        <pt x="933" y="1570" on="1"/>
      </contour>
      <contour>
        <pt x="1108" y="158" on="0"/>
        <pt x="1400" y="332" on="0"/>
        <pt x="1570" y="630" on="0"/>
        <pt x="1570" y="806" on="1"/>
        <pt x="1570" y="982" on="0"/>
        <pt x="1400" y="1279" on="0"/>
        <pt x="1108" y="1454" on="0"/>
        <pt x="933" y="1454" on="1"/>
        <pt x="758" y="1454" on="0"/>
        <pt x="466" y="1279" on="0"/>
        <pt x="297" y="982" on="0"/>
        <pt x="297" y="806" on="1"/>
        <pt x="297" y="630" on="0"/>
        <pt x="466" y="332" on="0"/>
        <pt x="758" y="158" on="0"/>
        <pt x="933" y="158" on="1"/>
      </contour>
      <contour>
        <pt x="1037" y="1247" on="0"/>
        <pt x="1173" y="1225" on="0"/>
        <pt x="1203" y="1209" on="1"/>
        <pt x="1203" y="987" on="1"/>
        <pt x="1112" y="987" on="1"/>
        <pt x="1064" y="1107" on="1"/>
        <pt x="1043" y="1126" on="0"/>
        <pt x="978" y="1146" on="0"/>
        <pt x="939" y="1146" on="1"/>
        <pt x="878" y="1146" on="0"/>
        <pt x="780" y="1075" on="0"/>
        <pt x="724" y="943" on="0"/>
        <pt x="724" y="854" on="1"/>
        <pt x="724" y="725" on="0"/>
        <pt x="792" y="563" on="0"/>
        <pt x="898" y="491" on="0"/>
        <pt x="958" y="491" on="1"/>
        <pt x="1024" y="491" on="0"/>
        <pt x="1139" y="524" on="0"/>
        <pt x="1178" y="546" on="1"/>
        <pt x="1213" y="458" on="1"/>
        <pt x="1167" y="420" on="0"/>
        <pt x="1005" y="366" on="0"/>
        <pt x="920" y="366" on="1"/>
        <pt x="803" y="366" on="0"/>
        <pt x="632" y="484" on="0"/>
        <pt x="542" y="684" on="0"/>
        <pt x="542" y="806" on="1"/>
        <pt x="542" y="927" on="0"/>
        <pt x="646" y="1128" on="0"/>
        <pt x="840" y="1247" on="0"/>
        <pt x="969" y="1247" on="1"/>
      </contour>
    </TTGlyph>
    <TTGlyph name="currency" xMin="213" yMin="114" xMax="1357" yMax="1265">
      <contour>
        <pt x="417" y="444" on="1"/>
        <pt x="342" y="553" on="0"/>
        <pt x="342" y="690" on="1"/>
        <pt x="342" y="823" on="0"/>
        <pt x="415" y="932" on="1"/>
        <pt x="213" y="1135" on="1"/>
        <pt x="342" y="1265" on="1"/>
        <pt x="546" y="1060" on="1"/>
        <pt x="654" y="1128" on="0"/>
        <pt x="782" y="1128" on="1"/>
        <pt x="849" y="1128" on="0"/>
        <pt x="974" y="1089" on="0"/>
        <pt x="1028" y="1053" on="1"/>
        <pt x="1228" y="1252" on="1"/>
        <pt x="1357" y="1122" on="1"/>
        <pt x="1156" y="921" on="1"/>
        <pt x="1222" y="816" on="0"/>
        <pt x="1222" y="690" on="1"/>
        <pt x="1222" y="560" on="0"/>
        <pt x="1151" y="451" on="1"/>
        <pt x="1355" y="248" on="1"/>
        <pt x="1225" y="119" on="1"/>
        <pt x="1021" y="322" on="1"/>
        <pt x="911" y="252" on="0"/>
        <pt x="782" y="252" on="1"/>
        <pt x="657" y="252" on="0"/>
        <pt x="549" y="317" on="1"/>
        <pt x="346" y="114" on="1"/>
        <pt x="216" y="243" on="1"/>
      </contour>
      <contour>
        <pt x="848" y="435" on="0"/>
        <pt x="960" y="504" on="0"/>
        <pt x="1026" y="621" on="0"/>
        <pt x="1026" y="690" on="1"/>
        <pt x="1026" y="759" on="0"/>
        <pt x="960" y="876" on="0"/>
        <pt x="848" y="945" on="0"/>
        <pt x="782" y="945" on="1"/>
        <pt x="716" y="945" on="0"/>
        <pt x="604" y="876" on="0"/>
        <pt x="538" y="759" on="0"/>
        <pt x="538" y="690" on="1"/>
        <pt x="538" y="621" on="0"/>
        <pt x="604" y="504" on="0"/>
        <pt x="716" y="435" on="0"/>
        <pt x="782" y="435" on="1"/>
      </contour>
    </TTGlyph>
    <TTGlyph name="d" xMin="70" yMin="-20" xMax="1193" yMax="1650">
      <contour>
        <pt x="70" y="591" on="0"/>
        <pt x="224" y="940" on="0"/>
        <pt x="525" y="1163" on="0"/>
        <pt x="734" y="1163" on="1"/>
        <pt x="789" y="1163" on="0"/>
        <pt x="852" y="1150" on="1"/>
        <pt x="902" y="1482" on="1"/>
        <pt x="760" y="1525" on="1"/>
        <pt x="780" y="1608" on="1"/>
        <pt x="1138" y="1650" on="1"/>
        <pt x="1193" y="1623" on="1"/>
        <pt x="988" y="211" on="1"/>
        <pt x="986" y="191" on="0"/>
        <pt x="986" y="184" on="1"/>
        <pt x="986" y="133" on="0"/>
        <pt x="1017" y="133" on="1"/>
        <pt x="1032" y="133" on="0"/>
        <pt x="1073" y="153" on="0"/>
        <pt x="1107" y="179" on="1"/>
        <pt x="1136" y="116" on="1"/>
        <pt x="1102" y="72" on="0"/>
        <pt x="972" y="-20" on="0"/>
        <pt x="882" y="-20" on="1"/>
        <pt x="804" y="-20" on="0"/>
        <pt x="730" y="60" on="0"/>
        <pt x="730" y="144" on="1"/>
        <pt x="677" y="74" on="0"/>
        <pt x="513" y="-20" on="0"/>
        <pt x="408" y="-20" on="1"/>
        <pt x="293" y="-20" on="0"/>
        <pt x="141" y="91" on="0"/>
        <pt x="70" y="282" on="0"/>
        <pt x="70" y="406" on="1"/>
      </contour>
      <contour>
        <pt x="831" y="1006" on="1"/>
        <pt x="784" y="1031" on="0"/>
        <pt x="707" y="1031" on="1"/>
        <pt x="585" y="1031" on="0"/>
        <pt x="424" y="842" on="0"/>
        <pt x="351" y="561" on="0"/>
        <pt x="351" y="419" on="1"/>
        <pt x="351" y="286" on="0"/>
        <pt x="431" y="140" on="0"/>
        <pt x="501" y="140" on="1"/>
        <pt x="565" y="140" on="0"/>
        <pt x="680" y="219" on="0"/>
        <pt x="722" y="277" on="1"/>
      </contour>
    </TTGlyph>
    <TTGlyph name="dagger" xMin="118" yMin="151" xMax="879" yMax="1646">
      <contour>
        <pt x="388" y="1116" on="1"/>
        <pt x="118" y="1116" on="1"/>
        <pt x="143" y="1289" on="1"/>
        <pt x="434" y="1289" on="1"/>
        <pt x="436" y="1469" on="1"/>
        <pt x="458" y="1646" on="1"/>
        <pt x="687" y="1646" on="1"/>
        <pt x="652" y="1469" on="1"/>
        <pt x="593" y="1289" on="1"/>
        <pt x="879" y="1289" on="1"/>
        <pt x="855" y="1116" on="1"/>
        <pt x="590" y="1116" on="1"/>
        <pt x="589" y="1008" on="1"/>
        <pt x="415" y="151" on="1"/>
        <pt x="264" y="151" on="1"/>
        <pt x="360" y="1008" on="1"/>
      </contour>
    </TTGlyph>
    <TTGlyph name="daggerdbl" xMin="77" yMin="-51" xMax="878" yMax="1646">
      <contour>
        <pt x="311" y="616" on="1"/>
        <pt x="77" y="616" on="1"/>
        <pt x="106" y="791" on="1"/>
        <pt x="337" y="791" on="1"/>
        <pt x="360" y="1009" on="1"/>
        <pt x="387" y="1116" on="1"/>
        <pt x="116" y="1116" on="1"/>
        <pt x="143" y="1289" on="1"/>
        <pt x="433" y="1289" on="1"/>
        <pt x="434" y="1469" on="1"/>
        <pt x="455" y="1646" on="1"/>
        <pt x="685" y="1646" on="1"/>
        <pt x="650" y="1469" on="1"/>
        <pt x="592" y="1289" on="1"/>
        <pt x="878" y="1289" on="1"/>
        <pt x="853" y="1116" on="1"/>
        <pt x="589" y="1116" on="1"/>
        <pt x="589" y="1008" on="1"/>
        <pt x="541" y="791" on="1"/>
        <pt x="772" y="791" on="1"/>
        <pt x="747" y="616" on="1"/>
        <pt x="514" y="616" on="1"/>
        <pt x="515" y="604" on="0"/>
        <pt x="509" y="507" on="0"/>
        <pt x="507" y="481" on="1"/>
        <pt x="379" y="-51" on="1"/>
        <pt x="228" y="-51" on="1"/>
        <pt x="279" y="480" on="1"/>
      </contour>
    </TTGlyph>
    <TTGlyph name="dcaron" xMin="70" yMin="-20" xMax="1537" yMax="1650">
      <component glyphName="d" x="0" y="0" flags="0x0"/>
      <component glyphName="caronvertical" x="1077" y="-30" flags="0x4"/>
    </TTGlyph>
    <TTGlyph name="dcroat" xMin="70" yMin="-20" xMax="1288" yMax="1650">
      <contour>
        <pt x="888" y="1392" on="1"/>
        <pt x="902" y="1482" on="1"/>
        <pt x="760" y="1525" on="1"/>
        <pt x="780" y="1608" on="1"/>
        <pt x="1138" y="1650" on="1"/>
        <pt x="1193" y="1623" on="1"/>
        <pt x="1159" y="1392" on="1"/>
        <pt x="1288" y="1392" on="1"/>
        <pt x="1272" y="1262" on="1"/>
        <pt x="1140" y="1262" on="1"/>
        <pt x="988" y="211" on="1"/>
        <pt x="986" y="191" on="0"/>
        <pt x="986" y="184" on="1"/>
        <pt x="986" y="133" on="0"/>
        <pt x="1017" y="133" on="1"/>
        <pt x="1032" y="133" on="0"/>
        <pt x="1073" y="153" on="0"/>
        <pt x="1107" y="179" on="1"/>
        <pt x="1136" y="116" on="1"/>
        <pt x="1102" y="72" on="0"/>
        <pt x="972" y="-20" on="0"/>
        <pt x="882" y="-20" on="1"/>
        <pt x="804" y="-20" on="0"/>
        <pt x="730" y="60" on="0"/>
        <pt x="730" y="144" on="1"/>
        <pt x="677" y="74" on="0"/>
        <pt x="513" y="-20" on="0"/>
        <pt x="408" y="-20" on="1"/>
        <pt x="293" y="-20" on="0"/>
        <pt x="141" y="91" on="0"/>
        <pt x="70" y="282" on="0"/>
        <pt x="70" y="406" on="1"/>
        <pt x="70" y="591" on="0"/>
        <pt x="224" y="940" on="0"/>
        <pt x="525" y="1163" on="0"/>
        <pt x="734" y="1163" on="1"/>
        <pt x="789" y="1163" on="0"/>
        <pt x="852" y="1150" on="1"/>
        <pt x="869" y="1262" on="1"/>
        <pt x="601" y="1262" on="1"/>
        <pt x="617" y="1392" on="1"/>
      </contour>
      <contour>
        <pt x="831" y="1006" on="1"/>
        <pt x="784" y="1031" on="0"/>
        <pt x="707" y="1031" on="1"/>
        <pt x="585" y="1031" on="0"/>
        <pt x="424" y="842" on="0"/>
        <pt x="351" y="561" on="0"/>
        <pt x="351" y="419" on="1"/>
        <pt x="351" y="286" on="0"/>
        <pt x="431" y="140" on="0"/>
        <pt x="501" y="140" on="1"/>
        <pt x="565" y="140" on="0"/>
        <pt x="680" y="219" on="0"/>
        <pt x="722" y="277" on="1"/>
      </contour>
    </TTGlyph>
    <TTGlyph name="degree" xMin="192" yMin="943" xMax="876" yMax="1612">
      <contour>
        <pt x="192" y="1367" on="0"/>
        <pt x="283" y="1523" on="0"/>
        <pt x="443" y="1612" on="0"/>
        <pt x="543" y="1612" on="1"/>
        <pt x="636" y="1612" on="0"/>
        <pt x="788" y="1524" on="0"/>
        <pt x="876" y="1373" on="0"/>
        <pt x="876" y="1284" on="1"/>
        <pt x="876" y="1187" on="0"/>
        <pt x="784" y="1032" on="0"/>
        <pt x="622" y="943" on="0"/>
        <pt x="522" y="943" on="1"/>
        <pt x="429" y="943" on="0"/>
        <pt x="278" y="1031" on="0"/>
        <pt x="192" y="1182" on="0"/>
        <pt x="192" y="1272" on="1"/>
      </contour>
      <contour>
        <pt x="716" y="1334" on="0"/>
        <pt x="669" y="1420" on="0"/>
        <pt x="587" y="1471" on="0"/>
        <pt x="537" y="1471" on="1"/>
        <pt x="484" y="1471" on="0"/>
        <pt x="400" y="1419" on="0"/>
        <pt x="352" y="1329" on="0"/>
        <pt x="352" y="1274" on="1"/>
        <pt x="352" y="1222" on="0"/>
        <pt x="399" y="1135" on="0"/>
        <pt x="480" y="1084" on="0"/>
        <pt x="530" y="1084" on="1"/>
        <pt x="583" y="1084" on="0"/>
        <pt x="668" y="1136" on="0"/>
        <pt x="716" y="1226" on="0"/>
        <pt x="716" y="1282" on="1"/>
      </contour>
    </TTGlyph>
    <TTGlyph name="dieresis" xMin="36" yMin="1360" xMax="774" yMax="1679">
      <contour>
        <pt x="36" y="1550" on="0"/>
        <pt x="77" y="1631" on="0"/>
        <pt x="152" y="1679" on="0"/>
        <pt x="199" y="1679" on="1"/>
        <pt x="239" y="1679" on="0"/>
        <pt x="302" y="1641" on="0"/>
        <pt x="336" y="1579" on="0"/>
        <pt x="336" y="1544" on="1"/>
        <pt x="336" y="1494" on="0"/>
        <pt x="296" y="1410" on="0"/>
        <pt x="220" y="1360" on="0"/>
        <pt x="167" y="1360" on="1"/>
        <pt x="132" y="1360" on="0"/>
        <pt x="72" y="1400" on="0"/>
        <pt x="36" y="1466" on="0"/>
        <pt x="36" y="1502" on="1"/>
      </contour>
      <contour>
        <pt x="474" y="1550" on="0"/>
        <pt x="515" y="1631" on="0"/>
        <pt x="590" y="1679" on="0"/>
        <pt x="637" y="1679" on="1"/>
        <pt x="678" y="1679" on="0"/>
        <pt x="740" y="1641" on="0"/>
        <pt x="774" y="1578" on="0"/>
        <pt x="774" y="1542" on="1"/>
        <pt x="774" y="1492" on="0"/>
        <pt x="734" y="1409" on="0"/>
        <pt x="658" y="1360" on="0"/>
        <pt x="605" y="1360" on="1"/>
        <pt x="570" y="1360" on="0"/>
        <pt x="510" y="1400" on="0"/>
        <pt x="474" y="1466" on="0"/>
        <pt x="474" y="1502" on="1"/>
      </contour>
    </TTGlyph>
    <TTGlyph name="dieresis.cap" xMin="41" yMin="1690" xMax="769" yMax="1987">
      <contour>
        <pt x="41" y="1868" on="0"/>
        <pt x="83" y="1944" on="0"/>
        <pt x="155" y="1987" on="0"/>
        <pt x="198" y="1987" on="1"/>
        <pt x="259" y="1987" on="0"/>
        <pt x="331" y="1916" on="0"/>
        <pt x="331" y="1862" on="1"/>
        <pt x="331" y="1786" on="0"/>
        <pt x="242" y="1690" on="0"/>
        <pt x="167" y="1690" on="1"/>
        <pt x="114" y="1690" on="0"/>
        <pt x="41" y="1766" on="0"/>
        <pt x="41" y="1821" on="1"/>
      </contour>
      <contour>
        <pt x="478" y="1870" on="0"/>
        <pt x="521" y="1945" on="0"/>
        <pt x="593" y="1987" on="0"/>
        <pt x="636" y="1987" on="1"/>
        <pt x="698" y="1987" on="0"/>
        <pt x="769" y="1915" on="0"/>
        <pt x="769" y="1861" on="1"/>
        <pt x="769" y="1786" on="0"/>
        <pt x="680" y="1690" on="0"/>
        <pt x="604" y="1690" on="1"/>
        <pt x="551" y="1690" on="0"/>
        <pt x="478" y="1767" on="0"/>
        <pt x="478" y="1823" on="1"/>
      </contour>
    </TTGlyph>
    <TTGlyph name="divide" xMin="257" yMin="194" xMax="1183" yMax="1353">
      <contour>
        <pt x="615" y="1221" on="0"/>
        <pt x="670" y="1306" on="0"/>
        <pt x="755" y="1353" on="0"/>
        <pt x="799" y="1353" on="1"/>
        <pt x="865" y="1353" on="0"/>
        <pt x="935" y="1275" on="0"/>
        <pt x="935" y="1217" on="1"/>
        <pt x="935" y="1159" on="0"/>
        <pt x="879" y="1075" on="0"/>
        <pt x="792" y="1031" on="0"/>
        <pt x="746" y="1031" on="1"/>
        <pt x="710" y="1031" on="0"/>
        <pt x="650" y="1066" on="0"/>
        <pt x="615" y="1128" on="0"/>
        <pt x="615" y="1168" on="1"/>
      </contour>
      <contour>
        <pt x="1183" y="863" on="1"/>
        <pt x="1165" y="684" on="1"/>
        <pt x="257" y="684" on="1"/>
        <pt x="275" y="863" on="1"/>
      </contour>
      <contour>
        <pt x="759" y="516" on="0"/>
        <pt x="829" y="438" on="0"/>
        <pt x="829" y="381" on="1"/>
        <pt x="829" y="324" on="0"/>
        <pt x="774" y="239" on="0"/>
        <pt x="686" y="194" on="0"/>
        <pt x="640" y="194" on="1"/>
        <pt x="605" y="194" on="0"/>
        <pt x="545" y="229" on="0"/>
        <pt x="510" y="291" on="0"/>
        <pt x="510" y="331" on="1"/>
        <pt x="510" y="385" on="0"/>
        <pt x="564" y="469" on="0"/>
        <pt x="650" y="516" on="0"/>
        <pt x="694" y="516" on="1"/>
      </contour>
    </TTGlyph>
    <TTGlyph name="dollar" xMin="57" yMin="-230" xMax="1128" yMax="1725">
      <contour>
        <pt x="282" y="371" on="1"/>
        <pt x="296" y="172" on="1"/>
        <pt x="341" y="137" on="0"/>
        <pt x="457" y="95" on="0"/>
        <pt x="523" y="95" on="1"/>
        <pt x="651" y="95" on="0"/>
        <pt x="803" y="218" on="0"/>
        <pt x="803" y="328" on="1"/>
        <pt x="803" y="397" on="0"/>
        <pt x="742" y="504" on="0"/>
        <pt x="632" y="596" on="0"/>
        <pt x="538" y="655" on="1"/>
        <pt x="433" y="722" on="0"/>
        <pt x="293" y="840" on="0"/>
        <pt x="203" y="999" on="0"/>
        <pt x="203" y="1101" on="1"/>
        <pt x="203" y="1227" on="0"/>
        <pt x="324" y="1417" on="0"/>
        <pt x="537" y="1527" on="0"/>
        <pt x="673" y="1538" on="1"/>
        <pt x="703" y="1725" on="1"/>
        <pt x="884" y="1725" on="1"/>
        <pt x="853" y="1536" on="1"/>
        <pt x="949" y="1528" on="0"/>
        <pt x="1086" y="1488" on="0"/>
        <pt x="1128" y="1463" on="1"/>
        <pt x="1077" y="1186" on="1"/>
        <pt x="919" y="1186" on="1"/>
        <pt x="888" y="1369" on="1"/>
        <pt x="850" y="1395" on="0"/>
        <pt x="750" y="1424" on="0"/>
        <pt x="696" y="1424" on="1"/>
        <pt x="631" y="1424" on="0"/>
        <pt x="524" y="1375" on="0"/>
        <pt x="461" y="1279" on="0"/>
        <pt x="461" y="1211" on="1"/>
        <pt x="461" y="1138" on="0"/>
        <pt x="526" y="1025" on="0"/>
        <pt x="642" y="932" on="0"/>
        <pt x="742" y="870" on="1"/>
        <pt x="842" y="808" on="0"/>
        <pt x="980" y="693" on="0"/>
        <pt x="1069" y="537" on="0"/>
        <pt x="1069" y="438" on="1"/>
        <pt x="1069" y="316" on="0"/>
        <pt x="955" y="119" on="0"/>
        <pt x="737" y="-5" on="0"/>
        <pt x="586" y="-19" on="1"/>
        <pt x="552" y="-230" on="1"/>
        <pt x="372" y="-230" on="1"/>
        <pt x="406" y="-19" on="1"/>
        <pt x="288" y="-9" on="0"/>
        <pt x="88" y="46" on="0"/>
        <pt x="57" y="71" on="1"/>
        <pt x="112" y="371" on="1"/>
      </contour>
    </TTGlyph>
    <TTGlyph name="dong" xMin="117" yMin="0" xMax="1295" yMax="1680">
      <contour>
        <pt x="895" y="1407" on="1"/>
        <pt x="911" y="1530" on="1"/>
        <pt x="743" y="1545" on="1"/>
        <pt x="754" y="1637" on="1"/>
        <pt x="1130" y="1680" on="1"/>
        <pt x="1131" y="1680" on="1"/>
        <pt x="1172" y="1649" on="1"/>
        <pt x="1141" y="1407" on="1"/>
        <pt x="1295" y="1407" on="1"/>
        <pt x="1282" y="1299" on="1"/>
        <pt x="1127" y="1299" on="1"/>
        <pt x="1010" y="382" on="1"/>
        <pt x="1132" y="382" on="1"/>
        <pt x="1121" y="285" on="1"/>
        <pt x="1069" y="271" on="0"/>
        <pt x="933" y="247" on="0"/>
        <pt x="878" y="247" on="1"/>
        <pt x="821" y="247" on="0"/>
        <pt x="765" y="273" on="0"/>
        <pt x="765" y="315" on="1"/>
        <pt x="765" y="323" on="0"/>
        <pt x="767" y="345" on="1"/>
        <pt x="771" y="381" on="1"/>
        <pt x="716" y="323" on="0"/>
        <pt x="584" y="257" on="0"/>
        <pt x="486" y="257" on="1"/>
        <pt x="387" y="257" on="0"/>
        <pt x="233" y="335" on="0"/>
        <pt x="145" y="493" on="0"/>
        <pt x="145" y="607" on="1"/>
        <pt x="145" y="762" on="0"/>
        <pt x="277" y="1017" on="0"/>
        <pt x="531" y="1168" on="0"/>
        <pt x="707" y="1168" on="1"/>
        <pt x="754" y="1168" on="0"/>
        <pt x="824" y="1155" on="0"/>
        <pt x="861" y="1142" on="1"/>
        <pt x="881" y="1299" on="1"/>
        <pt x="607" y="1299" on="1"/>
        <pt x="620" y="1407" on="1"/>
      </contour>
      <contour>
        <pt x="845" y="1013" on="1"/>
        <pt x="824" y="1035" on="0"/>
        <pt x="737" y="1066" on="0"/>
        <pt x="677" y="1066" on="1"/>
        <pt x="584" y="1066" on="0"/>
        <pt x="458" y="941" on="0"/>
        <pt x="397" y="747" on="0"/>
        <pt x="397" y="641" on="1"/>
        <pt x="397" y="519" on="0"/>
        <pt x="487" y="389" on="0"/>
        <pt x="562" y="389" on="1"/>
        <pt x="679" y="389" on="0"/>
        <pt x="779" y="501" on="1"/>
      </contour>
      <contour>
        <pt x="1050" y="133" on="1"/>
        <pt x="1035" y="0" on="1"/>
        <pt x="117" y="0" on="1"/>
        <pt x="131" y="133" on="1"/>
      </contour>
    </TTGlyph>
    <TTGlyph name="dotaccent" xMin="33" yMin="1360" xMax="356" yMax="1679">
      <contour>
        <pt x="33" y="1550" on="0"/>
        <pt x="79" y="1631" on="0"/>
        <pt x="159" y="1679" on="0"/>
        <pt x="207" y="1679" on="1"/>
        <pt x="251" y="1679" on="0"/>
        <pt x="319" y="1641" on="0"/>
        <pt x="356" y="1578" on="0"/>
        <pt x="356" y="1542" on="1"/>
        <pt x="356" y="1492" on="0"/>
        <pt x="313" y="1409" on="0"/>
        <pt x="230" y="1360" on="0"/>
        <pt x="174" y="1360" on="1"/>
        <pt x="137" y="1360" on="0"/>
        <pt x="72" y="1400" on="0"/>
        <pt x="33" y="1466" on="0"/>
        <pt x="33" y="1502" on="1"/>
      </contour>
    </TTGlyph>
    <TTGlyph name="dotaccent.cap" xMin="27" yMin="1647" xMax="362" yMax="1966">
      <contour>
        <pt x="27" y="1836" on="0"/>
        <pt x="76" y="1918" on="0"/>
        <pt x="158" y="1966" on="0"/>
        <pt x="207" y="1966" on="1"/>
        <pt x="251" y="1966" on="0"/>
        <pt x="322" y="1927" on="0"/>
        <pt x="362" y="1864" on="0"/>
        <pt x="362" y="1829" on="1"/>
        <pt x="362" y="1780" on="0"/>
        <pt x="316" y="1696" on="0"/>
        <pt x="230" y="1647" on="0"/>
        <pt x="174" y="1647" on="1"/>
        <pt x="137" y="1647" on="0"/>
        <pt x="69" y="1687" on="0"/>
        <pt x="27" y="1753" on="0"/>
        <pt x="27" y="1788" on="1"/>
      </contour>
    </TTGlyph>
    <TTGlyph name="dotlessi" xMin="122" yMin="-20" xMax="572" yMax="1163">
      <contour>
        <pt x="122" y="1026" on="1"/>
        <pt x="138" y="1111" on="1"/>
        <pt x="495" y="1163" on="1"/>
        <pt x="548" y="1139" on="1"/>
        <pt x="415" y="209" on="1"/>
        <pt x="413" y="189" on="0"/>
        <pt x="413" y="181" on="1"/>
        <pt x="413" y="133" on="0"/>
        <pt x="444" y="133" on="1"/>
        <pt x="461" y="133" on="0"/>
        <pt x="506" y="158" on="0"/>
        <pt x="543" y="189" on="1"/>
        <pt x="572" y="124" on="1"/>
        <pt x="555" y="100" on="0"/>
        <pt x="482" y="34" on="0"/>
        <pt x="367" y="-20" on="0"/>
        <pt x="299" y="-20" on="1"/>
        <pt x="218" y="-20" on="0"/>
        <pt x="132" y="43" on="0"/>
        <pt x="132" y="103" on="1"/>
        <pt x="132" y="115" on="0"/>
        <pt x="133" y="122" on="1"/>
        <pt x="147" y="236" on="0"/>
        <pt x="190" y="534" on="1"/>
        <pt x="251" y="968" on="1"/>
      </contour>
    </TTGlyph>
    <TTGlyph name="e" xMin="72" yMin="-25" xMax="1004" yMax="1164">
      <contour>
        <pt x="799" y="1164" on="0"/>
        <pt x="938" y="1097" on="0"/>
        <pt x="1004" y="981" on="0"/>
        <pt x="1004" y="906" on="1"/>
        <pt x="1004" y="760" on="0"/>
        <pt x="791" y="559" on="0"/>
        <pt x="493" y="460" on="0"/>
        <pt x="365" y="457" on="1"/>
        <pt x="362" y="368" on="0"/>
        <pt x="403" y="222" on="0"/>
        <pt x="494" y="136" on="0"/>
        <pt x="564" y="136" on="1"/>
        <pt x="735" y="136" on="0"/>
        <pt x="881" y="293" on="1"/>
        <pt x="937" y="199" on="1"/>
        <pt x="904" y="150" on="0"/>
        <pt x="780" y="47" on="0"/>
        <pt x="599" y="-25" on="0"/>
        <pt x="493" y="-25" on="1"/>
        <pt x="350" y="-25" on="0"/>
        <pt x="161" y="101" on="0"/>
        <pt x="72" y="304" on="0"/>
        <pt x="72" y="424" on="1"/>
        <pt x="72" y="625" on="0"/>
        <pt x="236" y="964" on="0"/>
        <pt x="522" y="1164" on="0"/>
        <pt x="695" y="1164" on="1"/>
      </contour>
      <contour>
        <pt x="734" y="959" on="0"/>
        <pt x="681" y="1034" on="0"/>
        <pt x="633" y="1034" on="1"/>
        <pt x="551" y="1034" on="0"/>
        <pt x="437" y="887" on="0"/>
        <pt x="376" y="676" on="0"/>
        <pt x="367" y="573" on="1"/>
        <pt x="441" y="577" on="0"/>
        <pt x="614" y="654" on="0"/>
        <pt x="734" y="794" on="0"/>
        <pt x="734" y="885" on="1"/>
      </contour>
    </TTGlyph>
    <TTGlyph name="eacute" xMin="72" yMin="-25" xMax="1053" yMax="1743">
      <component glyphName="acute" x="516" y="0" flags="0x0"/>
      <component glyphName="e" x="0" y="0" flags="0x0"/>
    </TTGlyph>
    <TTGlyph name="ebreve" xMin="72" yMin="-25" xMax="1027" yMax="1668">
      <component glyphName="e" x="0" y="0" flags="0x0"/>
      <component glyphName="breve" x="330" y="0" flags="0x0"/>
    </TTGlyph>
    <TTGlyph name="ecaron" xMin="72" yMin="-25" xMax="1076" yMax="1661">
      <component glyphName="caron" x="289" y="0" flags="0x0"/>
      <component glyphName="e" x="0" y="0" flags="0x0"/>
    </TTGlyph>
    <TTGlyph name="ecircumflex" xMin="72" yMin="-25" xMax="1040" yMax="1661">
      <component glyphName="circumflex" x="261" y="0" flags="0x0"/>
      <component glyphName="e" x="0" y="0" flags="0x0"/>
    </TTGlyph>
    <TTGlyph name="edieresis" xMin="72" yMin="-25" xMax="1069" yMax="1679">
      <component glyphName="dieresis" x="295" y="0" flags="0x0"/>
      <component glyphName="e" x="0" y="0" flags="0x0"/>
    </TTGlyph>
    <TTGlyph name="edotaccent" xMin="72" yMin="-25" xMax="1004" yMax="1679">
      <component glyphName="e" x="0" y="0" flags="0x0"/>
      <component glyphName="dotaccent" x="510" y="0" flags="0x0"/>
    </TTGlyph>
    <TTGlyph name="egrave" xMin="72" yMin="-25" xMax="1004" yMax="1743">
      <component glyphName="e" x="0" y="0" flags="0x0"/>
      <component glyphName="grave" x="238" y="0" flags="0x0"/>
    </TTGlyph>
    <TTGlyph name="eight" xMin="96" yMin="-20" xMax="1163" yMax="1550">
      <contour>
        <pt x="379" y="863" on="0"/>
        <pt x="266" y="1046" on="0"/>
        <pt x="266" y="1151" on="1"/>
        <pt x="266" y="1263" on="0"/>
        <pt x="391" y="1445" on="0"/>
        <pt x="616" y="1550" on="0"/>
        <pt x="759" y="1550" on="1"/>
        <pt x="958" y="1550" on="0"/>
        <pt x="1163" y="1394" on="0"/>
        <pt x="1163" y="1248" on="1"/>
        <pt x="1163" y="1123" on="0"/>
        <pt x="982" y="908" on="0"/>
        <pt x="834" y="833" on="1"/>
        <pt x="952" y="749" on="0"/>
        <pt x="1103" y="528" on="0"/>
        <pt x="1103" y="409" on="1"/>
        <pt x="1103" y="280" on="0"/>
        <pt x="945" y="85" on="0"/>
        <pt x="690" y="-20" on="0"/>
        <pt x="551" y="-20" on="1"/>
        <pt x="431" y="-20" on="0"/>
        <pt x="224" y="54" on="0"/>
        <pt x="96" y="217" on="0"/>
        <pt x="96" y="342" on="1"/>
        <pt x="96" y="483" on="0"/>
        <pt x="301" y="718" on="0"/>
        <pt x="469" y="787" on="1"/>
      </contour>
      <contour>
        <pt x="932" y="1338" on="0"/>
        <pt x="828" y="1444" on="0"/>
        <pt x="748" y="1444" on="1"/>
        <pt x="680" y="1444" on="0"/>
        <pt x="573" y="1383" on="0"/>
        <pt x="513" y="1272" on="0"/>
        <pt x="513" y="1201" on="1"/>
        <pt x="513" y="1119" on="0"/>
        <pt x="621" y="987" on="0"/>
        <pt x="727" y="912" on="1"/>
        <pt x="820" y="960" on="0"/>
        <pt x="932" y="1124" on="0"/>
        <pt x="932" y="1235" on="1"/>
      </contour>
      <contour>
        <pt x="654" y="97" on="0"/>
        <pt x="772" y="162" on="0"/>
        <pt x="842" y="281" on="0"/>
        <pt x="842" y="360" on="1"/>
        <pt x="842" y="430" on="0"/>
        <pt x="778" y="541" on="0"/>
        <pt x="671" y="634" on="0"/>
        <pt x="573" y="705" on="1"/>
        <pt x="474" y="652" on="0"/>
        <pt x="354" y="472" on="0"/>
        <pt x="353" y="356" on="1"/>
        <pt x="353" y="286" on="0"/>
        <pt x="405" y="168" on="0"/>
        <pt x="509" y="97" on="0"/>
        <pt x="584" y="97" on="1"/>
      </contour>
    </TTGlyph>
    <TTGlyph name="ellipsis" xMin="58" yMin="-21" xMax="1423" yMax="301">
      <contour>
        <pt x="301" y="301" on="0"/>
        <pt x="371" y="224" on="0"/>
        <pt x="371" y="166" on="1"/>
        <pt x="371" y="107" on="0"/>
        <pt x="317" y="23" on="0"/>
        <pt x="231" y="-21" on="0"/>
        <pt x="184" y="-21" on="1"/>
        <pt x="129" y="-21" on="0"/>
        <pt x="58" y="55" on="0"/>
        <pt x="58" y="115" on="1"/>
        <pt x="58" y="169" on="0"/>
        <pt x="109" y="254" on="0"/>
        <pt x="191" y="301" on="0"/>
        <pt x="235" y="301" on="1"/>
      </contour>
      <contour>
        <pt x="827" y="301" on="0"/>
        <pt x="897" y="224" on="0"/>
        <pt x="897" y="166" on="1"/>
        <pt x="897" y="107" on="0"/>
        <pt x="843" y="23" on="0"/>
        <pt x="757" y="-21" on="0"/>
        <pt x="710" y="-21" on="1"/>
        <pt x="655" y="-21" on="0"/>
        <pt x="584" y="55" on="0"/>
        <pt x="584" y="115" on="1"/>
        <pt x="584" y="169" on="0"/>
        <pt x="635" y="254" on="0"/>
        <pt x="717" y="301" on="0"/>
        <pt x="761" y="301" on="1"/>
      </contour>
      <contour>
        <pt x="1353" y="301" on="0"/>
        <pt x="1423" y="224" on="0"/>
        <pt x="1423" y="166" on="1"/>
        <pt x="1423" y="107" on="0"/>
        <pt x="1369" y="23" on="0"/>
        <pt x="1283" y="-21" on="0"/>
        <pt x="1236" y="-21" on="1"/>
        <pt x="1181" y="-21" on="0"/>
        <pt x="1110" y="55" on="0"/>
        <pt x="1110" y="115" on="1"/>
        <pt x="1110" y="169" on="0"/>
        <pt x="1161" y="254" on="0"/>
        <pt x="1243" y="301" on="0"/>
        <pt x="1287" y="301" on="1"/>
      </contour>
    </TTGlyph>
    <TTGlyph name="emacron" xMin="72" yMin="-25" xMax="1004" yMax="1596">
      <component glyphName="e" x="0" y="0" flags="0x0"/>
      <component glyphName="macron" x="361" y="0" flags="0x0"/>
    </TTGlyph>
    <TTGlyph name="emdash" xMin="241" yMin="683" xMax="1864" yMax="862">
      <contour>
        <pt x="1864" y="862" on="1"/>
        <pt x="1831" y="683" on="1"/>
        <pt x="241" y="683" on="1"/>
        <pt x="273" y="862" on="1"/>
      </contour>
    </TTGlyph>
    <TTGlyph name="endash" xMin="241" yMin="683" xMax="1374" yMax="862">
      <contour>
        <pt x="1374" y="862" on="1"/>
        <pt x="1338" y="683" on="1"/>
        <pt x="241" y="683" on="1"/>
        <pt x="277" y="862" on="1"/>
      </contour>
    </TTGlyph>
    <TTGlyph name="eng" xMin="106" yMin="-524" xMax="1137" yMax="1162">
      <contour>
        <pt x="132" y="1015" on="1"/>
        <pt x="149" y="1104" on="1"/>
        <pt x="465" y="1156" on="1"/>
        <pt x="515" y="1132" on="1"/>
        <pt x="499" y="931" on="1"/>
        <pt x="573" y="1034" on="0"/>
        <pt x="772" y="1162" on="0"/>
        <pt x="888" y="1162" on="1"/>
        <pt x="1001" y="1162" on="0"/>
        <pt x="1137" y="1039" on="0"/>
        <pt x="1137" y="899" on="1"/>
        <pt x="1137" y="874" on="0"/>
        <pt x="1136" y="861" on="1"/>
        <pt x="1119" y="614" on="0"/>
        <pt x="1066" y="170" on="0"/>
        <pt x="1031" y="0" on="1"/>
        <pt x="992" y="-197" on="0"/>
        <pt x="867" y="-425" on="0"/>
        <pt x="680" y="-524" on="0"/>
        <pt x="543" y="-524" on="1"/>
        <pt x="490" y="-524" on="0"/>
        <pt x="403" y="-504" on="0"/>
        <pt x="387" y="-487" on="1"/>
        <pt x="423" y="-383" on="1"/>
        <pt x="435" y="-388" on="0"/>
        <pt x="483" y="-395" on="0"/>
        <pt x="495" y="-395" on="1"/>
        <pt x="578" y="-395" on="0"/>
        <pt x="684" y="-290" on="0"/>
        <pt x="744" y="-108" on="0"/>
        <pt x="766" y="29" on="1"/>
        <pt x="783" y="146" on="0"/>
        <pt x="837" y="627" on="0"/>
        <pt x="854" y="836" on="1"/>
        <pt x="855" y="846" on="0"/>
        <pt x="855" y="863" on="1"/>
        <pt x="855" y="929" on="0"/>
        <pt x="808" y="983" on="0"/>
        <pt x="760" y="983" on="1"/>
        <pt x="720" y="983" on="0"/>
        <pt x="620" y="924" on="0"/>
        <pt x="517" y="815" on="0"/>
        <pt x="474" y="742" on="1"/>
        <pt x="373" y="0" on="1"/>
        <pt x="106" y="0" on="1"/>
        <pt x="235" y="956" on="1"/>
      </contour>
    </TTGlyph>
    <TTGlyph name="eogonek" xMin="72" yMin="-452" xMax="1004" yMax="1164">
      <contour>
        <pt x="799" y="1164" on="0"/>
        <pt x="938" y="1097" on="0"/>
        <pt x="1004" y="981" on="0"/>
        <pt x="1004" y="906" on="1"/>
        <pt x="1004" y="760" on="0"/>
        <pt x="791" y="559" on="0"/>
        <pt x="493" y="460" on="0"/>
        <pt x="365" y="457" on="1"/>
        <pt x="362" y="368" on="0"/>
        <pt x="403" y="222" on="0"/>
        <pt x="494" y="136" on="0"/>
        <pt x="564" y="136" on="1"/>
        <pt x="735" y="136" on="0"/>
        <pt x="881" y="293" on="1"/>
        <pt x="937" y="199" on="1"/>
        <pt x="912" y="161" on="0"/>
        <pt x="869" y="122" on="1"/>
        <pt x="870" y="122" on="1"/>
        <pt x="868" y="120" on="0"/>
        <pt x="867" y="120" on="1"/>
        <pt x="844" y="98" on="0"/>
        <pt x="817" y="80" on="1"/>
        <pt x="729" y="6" on="0"/>
        <pt x="604" y="-152" on="0"/>
        <pt x="603" y="-203" on="1"/>
        <pt x="602" y="-246" on="0"/>
        <pt x="637" y="-287" on="0"/>
        <pt x="664" y="-287" on="1"/>
        <pt x="697" y="-287" on="0"/>
        <pt x="762" y="-254" on="0"/>
        <pt x="807" y="-219" on="1"/>
        <pt x="838" y="-324" on="1"/>
        <pt x="781" y="-381" on="0"/>
        <pt x="628" y="-452" on="0"/>
        <pt x="535" y="-452" on="1"/>
        <pt x="450" y="-452" on="0"/>
        <pt x="360" y="-364" on="0"/>
        <pt x="360" y="-297" on="1"/>
        <pt x="360" y="-268" on="0"/>
        <pt x="380" y="-200" on="0"/>
        <pt x="398" y="-176" on="1"/>
        <pt x="455" y="-89" on="0"/>
        <pt x="545" y="-22" on="1"/>
        <pt x="520" y="-25" on="0"/>
        <pt x="493" y="-25" on="1"/>
        <pt x="350" y="-25" on="0"/>
        <pt x="161" y="101" on="0"/>
        <pt x="72" y="304" on="0"/>
        <pt x="72" y="424" on="1"/>
        <pt x="72" y="625" on="0"/>
        <pt x="236" y="964" on="0"/>
        <pt x="522" y="1164" on="0"/>
        <pt x="695" y="1164" on="1"/>
      </contour>
      <contour>
        <pt x="734" y="959" on="0"/>
        <pt x="681" y="1034" on="0"/>
        <pt x="633" y="1034" on="1"/>
        <pt x="551" y="1034" on="0"/>
        <pt x="437" y="887" on="0"/>
        <pt x="376" y="676" on="0"/>
        <pt x="367" y="573" on="1"/>
        <pt x="441" y="577" on="0"/>
        <pt x="614" y="654" on="0"/>
        <pt x="734" y="794" on="0"/>
        <pt x="734" y="885" on="1"/>
      </contour>
    </TTGlyph>
    <TTGlyph name="equal" xMin="78" yMin="322" xMax="985" yMax="1022">
      <contour>
        <pt x="985" y="1022" on="1"/>
        <pt x="964" y="842" on="1"/>
        <pt x="149" y="842" on="1"/>
        <pt x="170" y="1022" on="1"/>
      </contour>
      <contour>
        <pt x="914" y="502" on="1"/>
        <pt x="893" y="322" on="1"/>
        <pt x="78" y="322" on="1"/>
        <pt x="99" y="502" on="1"/>
      </contour>
    </TTGlyph>
    <TTGlyph name="estimated" xMin="121" yMin="-16" xMax="1300" yMax="1359">
      <contour>
        <pt x="445" y="238" on="1"/>
        <pt x="556" y="127" on="0"/>
        <pt x="771" y="127" on="1"/>
        <pt x="879" y="127" on="0"/>
        <pt x="1084" y="194" on="0"/>
        <pt x="1146" y="235" on="1"/>
        <pt x="1204" y="100" on="1"/>
        <pt x="1137" y="53" on="0"/>
        <pt x="882" y="-16" on="0"/>
        <pt x="756" y="-16" on="1"/>
        <pt x="557" y="-16" on="0"/>
        <pt x="272" y="148" on="0"/>
        <pt x="121" y="457" on="0"/>
        <pt x="121" y="671" on="1"/>
        <pt x="121" y="871" on="0"/>
        <pt x="262" y="1177" on="0"/>
        <pt x="546" y="1353" on="0"/>
        <pt x="755" y="1356" on="1"/>
        <pt x="903" y="1359" on="0"/>
        <pt x="1148" y="1232" on="0"/>
        <pt x="1295" y="993" on="0"/>
        <pt x="1300" y="832" on="1"/>
        <pt x="1300" y="749" on="0"/>
        <pt x="1297" y="654" on="0"/>
        <pt x="1290" y="620" on="1"/>
        <pt x="445" y="620" on="1"/>
      </contour>
      <contour>
        <pt x="445" y="768" on="1"/>
        <pt x="990" y="768" on="1"/>
        <pt x="990" y="1144" on="1"/>
        <pt x="900" y="1213" on="0"/>
        <pt x="741" y="1213" on="1"/>
        <pt x="550" y="1213" on="0"/>
        <pt x="445" y="1101" on="1"/>
      </contour>
    </TTGlyph>
    <TTGlyph name="eth" xMin="71" yMin="-20" xMax="1115" yMax="1815">
      <contour>
        <pt x="560" y="1507" on="1"/>
        <pt x="439" y="1603" on="0"/>
        <pt x="356" y="1626" on="1"/>
        <pt x="405" y="1768" on="1"/>
        <pt x="462" y="1753" on="0"/>
        <pt x="611" y="1682" on="0"/>
        <pt x="682" y="1637" on="1"/>
        <pt x="723" y="1683" on="0"/>
        <pt x="816" y="1798" on="0"/>
        <pt x="830" y="1815" on="1"/>
        <pt x="936" y="1719" on="1"/>
        <pt x="792" y="1554" on="1"/>
        <pt x="955" y="1409" on="0"/>
        <pt x="1115" y="1025" on="0"/>
        <pt x="1115" y="811" on="1"/>
        <pt x="1115" y="574" on="0"/>
        <pt x="967" y="196" on="0"/>
        <pt x="685" y="-20" on="0"/>
        <pt x="490" y="-20" on="1"/>
        <pt x="355" y="-20" on="0"/>
        <pt x="165" y="116" on="0"/>
        <pt x="71" y="329" on="0"/>
        <pt x="71" y="445" on="1"/>
        <pt x="71" y="646" on="0"/>
        <pt x="221" y="948" on="0"/>
        <pt x="475" y="1110" on="0"/>
        <pt x="627" y="1110" on="1"/>
        <pt x="700" y="1110" on="0"/>
        <pt x="803" y="1079" on="0"/>
        <pt x="835" y="1043" on="1"/>
        <pt x="819" y="1153" on="0"/>
        <pt x="744" y="1332" on="0"/>
        <pt x="665" y="1416" on="1"/>
        <pt x="520" y="1251" on="1"/>
        <pt x="411" y="1344" on="1"/>
      </contour>
      <contour>
        <pt x="818" y="589" on="0"/>
        <pt x="832" y="712" on="0"/>
        <pt x="832" y="736" on="1"/>
        <pt x="832" y="782" on="0"/>
        <pt x="794" y="898" on="0"/>
        <pt x="704" y="985" on="0"/>
        <pt x="630" y="985" on="1"/>
        <pt x="538" y="985" on="0"/>
        <pt x="413" y="806" on="0"/>
        <pt x="353" y="539" on="0"/>
        <pt x="353" y="405" on="1"/>
        <pt x="353" y="271" on="0"/>
        <pt x="434" y="99" on="0"/>
        <pt x="517" y="99" on="1"/>
        <pt x="590" y="99" on="0"/>
        <pt x="714" y="219" on="0"/>
        <pt x="797" y="425" on="0"/>
        <pt x="813" y="551" on="1"/>
      </contour>
    </TTGlyph>
    <TTGlyph name="exclam" xMin="126" yMin="-21" xMax="673" yMax="1778">
      <contour>
        <pt x="673" y="1778" on="1"/>
        <pt x="422" y="510" on="1"/>
        <pt x="247" y="510" on="1"/>
        <pt x="378" y="1778" on="1"/>
      </contour>
      <contour>
        <pt x="368" y="301" on="0"/>
        <pt x="438" y="224" on="0"/>
        <pt x="438" y="166" on="1"/>
        <pt x="438" y="107" on="0"/>
        <pt x="384" y="23" on="0"/>
        <pt x="298" y="-21" on="0"/>
        <pt x="251" y="-21" on="1"/>
        <pt x="198" y="-21" on="0"/>
        <pt x="126" y="54" on="0"/>
        <pt x="126" y="114" on="1"/>
        <pt x="126" y="168" on="0"/>
        <pt x="177" y="253" on="0"/>
        <pt x="258" y="301" on="0"/>
        <pt x="302" y="301" on="1"/>
      </contour>
    </TTGlyph>
    <TTGlyph name="exclamdbl" xMin="126" yMin="-21" xMax="1289" yMax="1778">
      <component glyphName="exclam" x="0" y="0" flags="0x0"/>
      <component glyphName="exclam" x="616" y="0" flags="0x0"/>
    </TTGlyph>
    <TTGlyph name="exclamdown" xMin="62" yMin="-434" xMax="609" yMax="1365">
      <contour>
        <pt x="367" y="1043" on="0"/>
        <pt x="297" y="1120" on="0"/>
        <pt x="297" y="1178" on="1"/>
        <pt x="297" y="1237" on="0"/>
        <pt x="351" y="1321" on="0"/>
        <pt x="437" y="1365" on="0"/>
        <pt x="484" y="1365" on="1"/>
        <pt x="537" y="1365" on="0"/>
        <pt x="609" y="1290" on="0"/>
        <pt x="609" y="1230" on="1"/>
        <pt x="609" y="1176" on="0"/>
        <pt x="558" y="1091" on="0"/>
        <pt x="477" y="1043" on="0"/>
        <pt x="433" y="1043" on="1"/>
      </contour>
      <contour>
        <pt x="62" y="-434" on="1"/>
        <pt x="313" y="834" on="1"/>
        <pt x="488" y="834" on="1"/>
        <pt x="357" y="-434" on="1"/>
      </contour>
    </TTGlyph>
    <TTGlyph name="f" xMin="-233" yMin="-513" xMax="903" yMax="1670">
      <contour>
        <pt x="113" y="996" on="1"/>
        <pt x="131" y="1087" on="1"/>
        <pt x="273" y="1150" on="1"/>
        <pt x="285" y="1225" on="1"/>
        <pt x="306" y="1349" on="0"/>
        <pt x="431" y="1552" on="0"/>
        <pt x="621" y="1670" on="0"/>
        <pt x="734" y="1670" on="1"/>
        <pt x="840" y="1670" on="0"/>
        <pt x="903" y="1644" on="1"/>
        <pt x="842" y="1470" on="1"/>
        <pt x="813" y="1491" on="0"/>
        <pt x="749" y="1519" on="0"/>
        <pt x="704" y="1518" on="1"/>
        <pt x="654" y="1518" on="0"/>
        <pt x="594" y="1460" on="0"/>
        <pt x="563" y="1358" on="0"/>
        <pt x="552" y="1278" on="1"/>
        <pt x="534" y="1155" on="1"/>
        <pt x="752" y="1155" on="1"/>
        <pt x="728" y="996" on="1"/>
        <pt x="512" y="996" on="1"/>
        <pt x="399" y="63" on="1"/>
        <pt x="380" y="-94" on="0"/>
        <pt x="263" y="-355" on="0"/>
        <pt x="71" y="-513" on="0"/>
        <pt x="-54" y="-513" on="1"/>
        <pt x="-103" y="-513" on="0"/>
        <pt x="-205" y="-501" on="0"/>
        <pt x="-233" y="-494" on="1"/>
        <pt x="-176" y="-314" on="1"/>
        <pt x="-154" y="-324" on="0"/>
        <pt x="-49" y="-358" on="0"/>
        <pt x="-18" y="-358" on="1"/>
        <pt x="30" y="-358" on="0"/>
        <pt x="92" y="-247" on="0"/>
        <pt x="106" y="-143" on="1"/>
        <pt x="244" y="996" on="1"/>
      </contour>
    </TTGlyph>
    <TTGlyph name="f_f" xMin="-233" yMin="-513" xMax="1611" yMax="1670">
      <contour>
        <pt x="821" y="996" on="1"/>
        <pt x="839" y="1087" on="1"/>
        <pt x="981" y="1150" on="1"/>
        <pt x="993" y="1225" on="1"/>
        <pt x="1014" y="1349" on="0"/>
        <pt x="1139" y="1552" on="0"/>
        <pt x="1329" y="1670" on="0"/>
        <pt x="1442" y="1670" on="1"/>
        <pt x="1548" y="1670" on="0"/>
        <pt x="1611" y="1644" on="1"/>
        <pt x="1550" y="1470" on="1"/>
        <pt x="1521" y="1491" on="0"/>
        <pt x="1457" y="1519" on="0"/>
        <pt x="1412" y="1518" on="1"/>
        <pt x="1362" y="1518" on="0"/>
        <pt x="1302" y="1460" on="0"/>
        <pt x="1271" y="1358" on="0"/>
        <pt x="1260" y="1278" on="1"/>
        <pt x="1242" y="1155" on="1"/>
        <pt x="1460" y="1155" on="1"/>
        <pt x="1436" y="996" on="1"/>
        <pt x="1220" y="996" on="1"/>
        <pt x="1107" y="63" on="1"/>
        <pt x="1088" y="-94" on="0"/>
        <pt x="971" y="-355" on="0"/>
        <pt x="779" y="-513" on="0"/>
        <pt x="654" y="-513" on="1"/>
        <pt x="605" y="-513" on="0"/>
        <pt x="503" y="-501" on="0"/>
        <pt x="475" y="-494" on="1"/>
        <pt x="532" y="-314" on="1"/>
        <pt x="554" y="-324" on="0"/>
        <pt x="659" y="-358" on="0"/>
        <pt x="690" y="-358" on="1"/>
        <pt x="738" y="-358" on="0"/>
        <pt x="800" y="-247" on="0"/>
        <pt x="814" y="-143" on="1"/>
        <pt x="952" y="996" on="1"/>
      </contour>
      <contour>
        <pt x="113" y="996" on="1"/>
        <pt x="131" y="1087" on="1"/>
        <pt x="273" y="1150" on="1"/>
        <pt x="281" y="1198" on="1"/>
        <pt x="302" y="1322" on="0"/>
        <pt x="427" y="1525" on="0"/>
        <pt x="616" y="1643" on="0"/>
        <pt x="729" y="1643" on="1"/>
        <pt x="837" y="1643" on="0"/>
        <pt x="898" y="1617" on="1"/>
        <pt x="838" y="1444" on="1"/>
        <pt x="808" y="1465" on="0"/>
        <pt x="745" y="1492" on="0"/>
        <pt x="700" y="1492" on="1"/>
        <pt x="649" y="1492" on="0"/>
        <pt x="590" y="1440" on="0"/>
        <pt x="558" y="1339" on="0"/>
        <pt x="545" y="1251" on="1"/>
        <pt x="534" y="1155" on="1"/>
        <pt x="741" y="1155" on="1"/>
        <pt x="716" y="996" on="1"/>
        <pt x="512" y="996" on="1"/>
        <pt x="392" y="21" on="1"/>
        <pt x="374" y="-120" on="0"/>
        <pt x="260" y="-363" on="0"/>
        <pt x="71" y="-513" on="0"/>
        <pt x="-54" y="-513" on="1"/>
        <pt x="-103" y="-513" on="0"/>
        <pt x="-205" y="-501" on="0"/>
        <pt x="-233" y="-494" on="1"/>
        <pt x="-177" y="-317" on="1"/>
        <pt x="-155" y="-327" on="0"/>
        <pt x="-50" y="-361" on="0"/>
        <pt x="-19" y="-361" on="1"/>
        <pt x="29" y="-361" on="0"/>
        <pt x="92" y="-251" on="0"/>
        <pt x="106" y="-147" on="1"/>
        <pt x="244" y="996" on="1"/>
      </contour>
    </TTGlyph>
    <TTGlyph name="f_f_i" xMin="-233" yMin="-513" xMax="2031" yMax="1679">
      <contour>
        <pt x="1708" y="1550" on="0"/>
        <pt x="1754" y="1631" on="0"/>
        <pt x="1834" y="1679" on="0"/>
        <pt x="1882" y="1679" on="1"/>
        <pt x="1926" y="1679" on="0"/>
        <pt x="1994" y="1641" on="0"/>
        <pt x="2031" y="1578" on="0"/>
        <pt x="2031" y="1542" on="1"/>
        <pt x="2031" y="1492" on="0"/>
        <pt x="1988" y="1409" on="0"/>
        <pt x="1905" y="1360" on="0"/>
        <pt x="1849" y="1360" on="1"/>
        <pt x="1812" y="1360" on="0"/>
        <pt x="1747" y="1400" on="0"/>
        <pt x="1708" y="1466" on="0"/>
        <pt x="1708" y="1502" on="1"/>
      </contour>
      <contour>
        <pt x="821" y="996" on="1"/>
        <pt x="839" y="1087" on="1"/>
        <pt x="981" y="1150" on="1"/>
        <pt x="993" y="1225" on="1"/>
        <pt x="1014" y="1349" on="0"/>
        <pt x="1138" y="1552" on="0"/>
        <pt x="1325" y="1670" on="0"/>
        <pt x="1437" y="1670" on="1"/>
        <pt x="1542" y="1670" on="0"/>
        <pt x="1602" y="1644" on="1"/>
        <pt x="1541" y="1470" on="1"/>
        <pt x="1513" y="1491" on="0"/>
        <pt x="1454" y="1518" on="0"/>
        <pt x="1411" y="1518" on="1"/>
        <pt x="1361" y="1518" on="0"/>
        <pt x="1302" y="1467" on="0"/>
        <pt x="1271" y="1367" on="0"/>
        <pt x="1258" y="1278" on="1"/>
        <pt x="1242" y="1155" on="1"/>
        <pt x="1443" y="1155" on="1"/>
        <pt x="1419" y="996" on="1"/>
        <pt x="1220" y="996" on="1"/>
        <pt x="1100" y="21" on="1"/>
        <pt x="1082" y="-120" on="0"/>
        <pt x="968" y="-363" on="0"/>
        <pt x="779" y="-513" on="0"/>
        <pt x="654" y="-513" on="1"/>
        <pt x="605" y="-513" on="0"/>
        <pt x="503" y="-501" on="0"/>
        <pt x="475" y="-494" on="1"/>
        <pt x="531" y="-317" on="1"/>
        <pt x="553" y="-327" on="0"/>
        <pt x="658" y="-361" on="0"/>
        <pt x="689" y="-361" on="1"/>
        <pt x="737" y="-361" on="0"/>
        <pt x="800" y="-251" on="0"/>
        <pt x="814" y="-147" on="1"/>
        <pt x="952" y="996" on="1"/>
      </contour>
      <contour>
        <pt x="113" y="996" on="1"/>
        <pt x="131" y="1087" on="1"/>
        <pt x="273" y="1150" on="1"/>
        <pt x="281" y="1198" on="1"/>
        <pt x="302" y="1322" on="0"/>
        <pt x="427" y="1525" on="0"/>
        <pt x="616" y="1643" on="0"/>
        <pt x="729" y="1643" on="1"/>
        <pt x="837" y="1643" on="0"/>
        <pt x="898" y="1617" on="1"/>
        <pt x="838" y="1444" on="1"/>
        <pt x="808" y="1465" on="0"/>
        <pt x="745" y="1492" on="0"/>
        <pt x="700" y="1492" on="1"/>
        <pt x="649" y="1492" on="0"/>
        <pt x="590" y="1440" on="0"/>
        <pt x="558" y="1339" on="0"/>
        <pt x="545" y="1251" on="1"/>
        <pt x="534" y="1155" on="1"/>
        <pt x="741" y="1155" on="1"/>
        <pt x="716" y="996" on="1"/>
        <pt x="512" y="996" on="1"/>
        <pt x="392" y="21" on="1"/>
        <pt x="374" y="-120" on="0"/>
        <pt x="260" y="-363" on="0"/>
        <pt x="71" y="-513" on="0"/>
        <pt x="-54" y="-513" on="1"/>
        <pt x="-103" y="-513" on="0"/>
        <pt x="-205" y="-501" on="0"/>
        <pt x="-233" y="-494" on="1"/>
        <pt x="-177" y="-317" on="1"/>
        <pt x="-155" y="-327" on="0"/>
        <pt x="-50" y="-361" on="0"/>
        <pt x="-19" y="-361" on="1"/>
        <pt x="29" y="-361" on="0"/>
        <pt x="92" y="-251" on="0"/>
        <pt x="106" y="-147" on="1"/>
        <pt x="244" y="996" on="1"/>
      </contour>
      <contour>
        <pt x="1535" y="1026" on="1"/>
        <pt x="1551" y="1111" on="1"/>
        <pt x="1908" y="1163" on="1"/>
        <pt x="1961" y="1139" on="1"/>
        <pt x="1828" y="209" on="1"/>
        <pt x="1826" y="189" on="0"/>
        <pt x="1826" y="181" on="1"/>
        <pt x="1826" y="133" on="0"/>
        <pt x="1857" y="133" on="1"/>
        <pt x="1874" y="133" on="0"/>
        <pt x="1919" y="158" on="0"/>
        <pt x="1956" y="189" on="1"/>
        <pt x="1985" y="124" on="1"/>
        <pt x="1968" y="100" on="0"/>
        <pt x="1895" y="34" on="0"/>
        <pt x="1780" y="-20" on="0"/>
        <pt x="1712" y="-20" on="1"/>
        <pt x="1631" y="-20" on="0"/>
        <pt x="1545" y="43" on="0"/>
        <pt x="1545" y="103" on="1"/>
        <pt x="1545" y="115" on="0"/>
        <pt x="1546" y="122" on="1"/>
        <pt x="1560" y="236" on="0"/>
        <pt x="1603" y="534" on="1"/>
        <pt x="1664" y="968" on="1"/>
      </contour>
    </TTGlyph>
    <TTGlyph name="f_f_i_dflt" xMin="-233" yMin="-513" xMax="1985" yMax="1670">
      <contour>
        <pt x="821" y="996" on="1"/>
        <pt x="839" y="1087" on="1"/>
        <pt x="981" y="1150" on="1"/>
        <pt x="993" y="1225" on="1"/>
        <pt x="1014" y="1349" on="0"/>
        <pt x="1138" y="1552" on="0"/>
        <pt x="1325" y="1670" on="0"/>
        <pt x="1437" y="1670" on="1"/>
        <pt x="1542" y="1670" on="0"/>
        <pt x="1602" y="1644" on="1"/>
        <pt x="1541" y="1470" on="1"/>
        <pt x="1513" y="1491" on="0"/>
        <pt x="1454" y="1518" on="0"/>
        <pt x="1411" y="1518" on="1"/>
        <pt x="1361" y="1518" on="0"/>
        <pt x="1302" y="1467" on="0"/>
        <pt x="1271" y="1367" on="0"/>
        <pt x="1258" y="1278" on="1"/>
        <pt x="1242" y="1155" on="1"/>
        <pt x="1443" y="1155" on="1"/>
        <pt x="1419" y="996" on="1"/>
        <pt x="1220" y="996" on="1"/>
        <pt x="1100" y="21" on="1"/>
        <pt x="1082" y="-120" on="0"/>
        <pt x="968" y="-363" on="0"/>
        <pt x="779" y="-513" on="0"/>
        <pt x="654" y="-513" on="1"/>
        <pt x="605" y="-513" on="0"/>
        <pt x="503" y="-501" on="0"/>
        <pt x="475" y="-494" on="1"/>
        <pt x="531" y="-317" on="1"/>
        <pt x="553" y="-327" on="0"/>
        <pt x="658" y="-361" on="0"/>
        <pt x="689" y="-361" on="1"/>
        <pt x="737" y="-361" on="0"/>
        <pt x="800" y="-251" on="0"/>
        <pt x="814" y="-147" on="1"/>
        <pt x="952" y="996" on="1"/>
      </contour>
      <contour>
        <pt x="113" y="996" on="1"/>
        <pt x="131" y="1087" on="1"/>
        <pt x="273" y="1150" on="1"/>
        <pt x="281" y="1198" on="1"/>
        <pt x="302" y="1322" on="0"/>
        <pt x="427" y="1525" on="0"/>
        <pt x="616" y="1643" on="0"/>
        <pt x="729" y="1643" on="1"/>
        <pt x="837" y="1643" on="0"/>
        <pt x="898" y="1617" on="1"/>
        <pt x="838" y="1444" on="1"/>
        <pt x="808" y="1465" on="0"/>
        <pt x="745" y="1492" on="0"/>
        <pt x="700" y="1492" on="1"/>
        <pt x="649" y="1492" on="0"/>
        <pt x="590" y="1440" on="0"/>
        <pt x="558" y="1339" on="0"/>
        <pt x="545" y="1251" on="1"/>
        <pt x="534" y="1155" on="1"/>
        <pt x="741" y="1155" on="1"/>
        <pt x="716" y="996" on="1"/>
        <pt x="512" y="996" on="1"/>
        <pt x="392" y="21" on="1"/>
        <pt x="374" y="-120" on="0"/>
        <pt x="260" y="-363" on="0"/>
        <pt x="71" y="-513" on="0"/>
        <pt x="-54" y="-513" on="1"/>
        <pt x="-103" y="-513" on="0"/>
        <pt x="-205" y="-501" on="0"/>
        <pt x="-233" y="-494" on="1"/>
        <pt x="-177" y="-317" on="1"/>
        <pt x="-155" y="-327" on="0"/>
        <pt x="-50" y="-361" on="0"/>
        <pt x="-19" y="-361" on="1"/>
        <pt x="29" y="-361" on="0"/>
        <pt x="92" y="-251" on="0"/>
        <pt x="106" y="-147" on="1"/>
        <pt x="244" y="996" on="1"/>
      </contour>
      <contour>
        <pt x="1535" y="1026" on="1"/>
        <pt x="1551" y="1111" on="1"/>
        <pt x="1908" y="1163" on="1"/>
        <pt x="1961" y="1139" on="1"/>
        <pt x="1828" y="209" on="1"/>
        <pt x="1826" y="189" on="0"/>
        <pt x="1826" y="181" on="1"/>
        <pt x="1826" y="133" on="0"/>
        <pt x="1857" y="133" on="1"/>
        <pt x="1874" y="133" on="0"/>
        <pt x="1919" y="158" on="0"/>
        <pt x="1956" y="189" on="1"/>
        <pt x="1985" y="124" on="1"/>
        <pt x="1968" y="100" on="0"/>
        <pt x="1895" y="34" on="0"/>
        <pt x="1780" y="-20" on="0"/>
        <pt x="1712" y="-20" on="1"/>
        <pt x="1631" y="-20" on="0"/>
        <pt x="1545" y="43" on="0"/>
        <pt x="1545" y="103" on="1"/>
        <pt x="1545" y="115" on="0"/>
        <pt x="1546" y="122" on="1"/>
        <pt x="1560" y="236" on="0"/>
        <pt x="1603" y="534" on="1"/>
        <pt x="1664" y="968" on="1"/>
      </contour>
    </TTGlyph>
    <TTGlyph name="f_f_l" xMin="-233" yMin="-513" xMax="1994" yMax="1670">
      <contour>
        <pt x="821" y="996" on="1"/>
        <pt x="839" y="1087" on="1"/>
        <pt x="981" y="1150" on="1"/>
        <pt x="993" y="1225" on="1"/>
        <pt x="1014" y="1349" on="0"/>
        <pt x="1138" y="1552" on="0"/>
        <pt x="1325" y="1670" on="0"/>
        <pt x="1437" y="1670" on="1"/>
        <pt x="1542" y="1670" on="0"/>
        <pt x="1602" y="1644" on="1"/>
        <pt x="1541" y="1470" on="1"/>
        <pt x="1513" y="1491" on="0"/>
        <pt x="1454" y="1518" on="0"/>
        <pt x="1411" y="1518" on="1"/>
        <pt x="1361" y="1518" on="0"/>
        <pt x="1302" y="1467" on="0"/>
        <pt x="1271" y="1367" on="0"/>
        <pt x="1258" y="1278" on="1"/>
        <pt x="1242" y="1155" on="1"/>
        <pt x="1443" y="1155" on="1"/>
        <pt x="1419" y="996" on="1"/>
        <pt x="1220" y="996" on="1"/>
        <pt x="1100" y="21" on="1"/>
        <pt x="1082" y="-120" on="0"/>
        <pt x="968" y="-363" on="0"/>
        <pt x="779" y="-513" on="0"/>
        <pt x="654" y="-513" on="1"/>
        <pt x="605" y="-513" on="0"/>
        <pt x="503" y="-501" on="0"/>
        <pt x="475" y="-494" on="1"/>
        <pt x="531" y="-317" on="1"/>
        <pt x="553" y="-327" on="0"/>
        <pt x="658" y="-361" on="0"/>
        <pt x="689" y="-361" on="1"/>
        <pt x="737" y="-361" on="0"/>
        <pt x="800" y="-251" on="0"/>
        <pt x="814" y="-147" on="1"/>
        <pt x="952" y="996" on="1"/>
      </contour>
      <contour>
        <pt x="1709" y="1482" on="1"/>
        <pt x="1581" y="1525" on="1"/>
        <pt x="1601" y="1608" on="1"/>
        <pt x="1944" y="1650" on="1"/>
        <pt x="1994" y="1623" on="1"/>
        <pt x="1802" y="209" on="1"/>
        <pt x="1800" y="199" on="0"/>
        <pt x="1800" y="181" on="1"/>
        <pt x="1800" y="133" on="0"/>
        <pt x="1831" y="133" on="1"/>
        <pt x="1847" y="133" on="0"/>
        <pt x="1891" y="156" on="0"/>
        <pt x="1930" y="188" on="1"/>
        <pt x="1959" y="124" on="1"/>
        <pt x="1943" y="101" on="0"/>
        <pt x="1872" y="35" on="0"/>
        <pt x="1761" y="-20" on="0"/>
        <pt x="1696" y="-20" on="1"/>
        <pt x="1619" y="-20" on="0"/>
        <pt x="1526" y="45" on="0"/>
        <pt x="1525" y="115" on="1"/>
        <pt x="1525" y="145" on="0"/>
        <pt x="1532" y="192" on="1"/>
      </contour>
      <contour>
        <pt x="113" y="996" on="1"/>
        <pt x="131" y="1087" on="1"/>
        <pt x="273" y="1150" on="1"/>
        <pt x="281" y="1198" on="1"/>
        <pt x="302" y="1322" on="0"/>
        <pt x="427" y="1525" on="0"/>
        <pt x="616" y="1643" on="0"/>
        <pt x="729" y="1643" on="1"/>
        <pt x="837" y="1643" on="0"/>
        <pt x="898" y="1617" on="1"/>
        <pt x="838" y="1444" on="1"/>
        <pt x="808" y="1465" on="0"/>
        <pt x="745" y="1492" on="0"/>
        <pt x="700" y="1492" on="1"/>
        <pt x="649" y="1492" on="0"/>
        <pt x="590" y="1440" on="0"/>
        <pt x="558" y="1339" on="0"/>
        <pt x="545" y="1251" on="1"/>
        <pt x="534" y="1155" on="1"/>
        <pt x="741" y="1155" on="1"/>
        <pt x="716" y="996" on="1"/>
        <pt x="512" y="996" on="1"/>
        <pt x="392" y="21" on="1"/>
        <pt x="374" y="-120" on="0"/>
        <pt x="260" y="-363" on="0"/>
        <pt x="71" y="-513" on="0"/>
        <pt x="-54" y="-513" on="1"/>
        <pt x="-103" y="-513" on="0"/>
        <pt x="-205" y="-501" on="0"/>
        <pt x="-233" y="-494" on="1"/>
        <pt x="-177" y="-317" on="1"/>
        <pt x="-155" y="-327" on="0"/>
        <pt x="-50" y="-361" on="0"/>
        <pt x="-19" y="-361" on="1"/>
        <pt x="29" y="-361" on="0"/>
        <pt x="92" y="-251" on="0"/>
        <pt x="106" y="-147" on="1"/>
        <pt x="244" y="996" on="1"/>
      </contour>
    </TTGlyph>
    <TTGlyph name="fi" xMin="-233" yMin="-513" xMax="1324" yMax="1679">
      <contour>
        <pt x="1001" y="1550" on="0"/>
        <pt x="1047" y="1631" on="0"/>
        <pt x="1127" y="1679" on="0"/>
        <pt x="1175" y="1679" on="1"/>
        <pt x="1219" y="1679" on="0"/>
        <pt x="1287" y="1641" on="0"/>
        <pt x="1324" y="1578" on="0"/>
        <pt x="1324" y="1542" on="1"/>
        <pt x="1324" y="1492" on="0"/>
        <pt x="1281" y="1409" on="0"/>
        <pt x="1198" y="1360" on="0"/>
        <pt x="1142" y="1360" on="1"/>
        <pt x="1105" y="1360" on="0"/>
        <pt x="1040" y="1400" on="0"/>
        <pt x="1001" y="1466" on="0"/>
        <pt x="1001" y="1502" on="1"/>
      </contour>
      <contour>
        <pt x="113" y="996" on="1"/>
        <pt x="131" y="1087" on="1"/>
        <pt x="273" y="1150" on="1"/>
        <pt x="285" y="1225" on="1"/>
        <pt x="306" y="1349" on="0"/>
        <pt x="430" y="1552" on="0"/>
        <pt x="617" y="1670" on="0"/>
        <pt x="729" y="1670" on="1"/>
        <pt x="834" y="1670" on="0"/>
        <pt x="894" y="1644" on="1"/>
        <pt x="833" y="1470" on="1"/>
        <pt x="805" y="1491" on="0"/>
        <pt x="746" y="1518" on="0"/>
        <pt x="703" y="1518" on="1"/>
        <pt x="653" y="1518" on="0"/>
        <pt x="594" y="1467" on="0"/>
        <pt x="563" y="1367" on="0"/>
        <pt x="550" y="1278" on="1"/>
        <pt x="534" y="1155" on="1"/>
        <pt x="735" y="1155" on="1"/>
        <pt x="711" y="996" on="1"/>
        <pt x="512" y="996" on="1"/>
        <pt x="392" y="21" on="1"/>
        <pt x="374" y="-120" on="0"/>
        <pt x="260" y="-363" on="0"/>
        <pt x="71" y="-513" on="0"/>
        <pt x="-54" y="-513" on="1"/>
        <pt x="-103" y="-513" on="0"/>
        <pt x="-205" y="-501" on="0"/>
        <pt x="-233" y="-494" on="1"/>
        <pt x="-177" y="-317" on="1"/>
        <pt x="-155" y="-327" on="0"/>
        <pt x="-50" y="-361" on="0"/>
        <pt x="-19" y="-361" on="1"/>
        <pt x="29" y="-361" on="0"/>
        <pt x="92" y="-251" on="0"/>
        <pt x="106" y="-147" on="1"/>
        <pt x="244" y="996" on="1"/>
      </contour>
      <contour>
        <pt x="828" y="1026" on="1"/>
        <pt x="844" y="1111" on="1"/>
        <pt x="1201" y="1163" on="1"/>
        <pt x="1254" y="1139" on="1"/>
        <pt x="1121" y="209" on="1"/>
        <pt x="1119" y="189" on="0"/>
        <pt x="1119" y="181" on="1"/>
        <pt x="1119" y="133" on="0"/>
        <pt x="1150" y="133" on="1"/>
        <pt x="1167" y="133" on="0"/>
        <pt x="1212" y="158" on="0"/>
        <pt x="1249" y="189" on="1"/>
        <pt x="1278" y="124" on="1"/>
        <pt x="1261" y="100" on="0"/>
        <pt x="1188" y="34" on="0"/>
        <pt x="1073" y="-20" on="0"/>
        <pt x="1005" y="-20" on="1"/>
        <pt x="924" y="-20" on="0"/>
        <pt x="838" y="43" on="0"/>
        <pt x="838" y="103" on="1"/>
        <pt x="838" y="115" on="0"/>
        <pt x="839" y="122" on="1"/>
        <pt x="853" y="236" on="0"/>
        <pt x="896" y="534" on="1"/>
        <pt x="957" y="968" on="1"/>
      </contour>
    </TTGlyph>
    <TTGlyph name="five" xMin="40" yMin="-350" xMax="1045" yMax="1162">
      <contour>
        <pt x="310" y="-220" on="0"/>
        <pt x="547" y="-105" on="0"/>
        <pt x="675" y="84" on="0"/>
        <pt x="675" y="191" on="1"/>
        <pt x="675" y="443" on="0"/>
        <pt x="418" y="443" on="1"/>
        <pt x="358" y="443" on="0"/>
        <pt x="239" y="412" on="0"/>
        <pt x="174" y="386" on="1"/>
        <pt x="119" y="429" on="1"/>
        <pt x="279" y="1146" on="1"/>
        <pt x="874" y="1146" on="1"/>
        <pt x="896" y="1162" on="1"/>
        <pt x="1045" y="1162" on="1"/>
        <pt x="989" y="953" on="1"/>
        <pt x="471" y="953" on="1"/>
        <pt x="363" y="545" on="1"/>
        <pt x="401" y="563" on="0"/>
        <pt x="541" y="593" on="0"/>
        <pt x="594" y="593" on="1"/>
        <pt x="715" y="593" on="0"/>
        <pt x="888" y="507" on="0"/>
        <pt x="978" y="348" on="0"/>
        <pt x="978" y="241" on="1"/>
        <pt x="978" y="64" on="0"/>
        <pt x="767" y="-205" on="0"/>
        <pt x="415" y="-350" on="0"/>
        <pt x="211" y="-350" on="1"/>
        <pt x="173" y="-350" on="0"/>
        <pt x="63" y="-337" on="0"/>
        <pt x="40" y="-329" on="1"/>
        <pt x="59" y="-209" on="1"/>
        <pt x="116" y="-220" on="0"/>
        <pt x="155" y="-220" on="1"/>
      </contour>
    </TTGlyph>
    <TTGlyph name="fl" xMin="-233" yMin="-513" xMax="1287" yMax="1670">
      <contour>
        <pt x="113" y="996" on="1"/>
        <pt x="131" y="1087" on="1"/>
        <pt x="273" y="1150" on="1"/>
        <pt x="285" y="1225" on="1"/>
        <pt x="306" y="1349" on="0"/>
        <pt x="430" y="1552" on="0"/>
        <pt x="617" y="1670" on="0"/>
        <pt x="729" y="1670" on="1"/>
        <pt x="834" y="1670" on="0"/>
        <pt x="894" y="1644" on="1"/>
        <pt x="833" y="1470" on="1"/>
        <pt x="805" y="1491" on="0"/>
        <pt x="746" y="1518" on="0"/>
        <pt x="703" y="1518" on="1"/>
        <pt x="653" y="1518" on="0"/>
        <pt x="594" y="1467" on="0"/>
        <pt x="563" y="1367" on="0"/>
        <pt x="550" y="1278" on="1"/>
        <pt x="534" y="1155" on="1"/>
        <pt x="735" y="1155" on="1"/>
        <pt x="711" y="996" on="1"/>
        <pt x="512" y="996" on="1"/>
        <pt x="392" y="21" on="1"/>
        <pt x="374" y="-120" on="0"/>
        <pt x="260" y="-363" on="0"/>
        <pt x="71" y="-513" on="0"/>
        <pt x="-54" y="-513" on="1"/>
        <pt x="-103" y="-513" on="0"/>
        <pt x="-205" y="-501" on="0"/>
        <pt x="-233" y="-494" on="1"/>
        <pt x="-177" y="-317" on="1"/>
        <pt x="-155" y="-327" on="0"/>
        <pt x="-50" y="-361" on="0"/>
        <pt x="-19" y="-361" on="1"/>
        <pt x="29" y="-361" on="0"/>
        <pt x="92" y="-251" on="0"/>
        <pt x="106" y="-147" on="1"/>
        <pt x="244" y="996" on="1"/>
      </contour>
      <contour>
        <pt x="1002" y="1482" on="1"/>
        <pt x="874" y="1525" on="1"/>
        <pt x="894" y="1608" on="1"/>
        <pt x="1237" y="1650" on="1"/>
        <pt x="1287" y="1623" on="1"/>
        <pt x="1095" y="209" on="1"/>
        <pt x="1093" y="199" on="0"/>
        <pt x="1093" y="181" on="1"/>
        <pt x="1093" y="133" on="0"/>
        <pt x="1124" y="133" on="1"/>
        <pt x="1140" y="133" on="0"/>
        <pt x="1184" y="156" on="0"/>
        <pt x="1223" y="188" on="1"/>
        <pt x="1252" y="124" on="1"/>
        <pt x="1236" y="101" on="0"/>
        <pt x="1165" y="35" on="0"/>
        <pt x="1054" y="-20" on="0"/>
        <pt x="989" y="-20" on="1"/>
        <pt x="912" y="-20" on="0"/>
        <pt x="819" y="45" on="0"/>
        <pt x="818" y="115" on="1"/>
        <pt x="818" y="145" on="0"/>
        <pt x="825" y="192" on="1"/>
      </contour>
    </TTGlyph>
    <TTGlyph name="florin" xMin="171" yMin="-356" xMax="1052" yMax="1690">
      <contour>
        <pt x="171" y="982" on="1"/>
        <pt x="181" y="1091" on="1"/>
        <pt x="391" y="1148" on="1"/>
        <pt x="399" y="1203" on="1"/>
        <pt x="415" y="1343" on="0"/>
        <pt x="574" y="1566" on="0"/>
        <pt x="788" y="1690" on="0"/>
        <pt x="880" y="1690" on="1"/>
        <pt x="1011" y="1690" on="0"/>
        <pt x="1052" y="1673" on="1"/>
        <pt x="1038" y="1464" on="1"/>
        <pt x="1034" y="1466" on="0"/>
        <pt x="991" y="1486" on="0"/>
        <pt x="910" y="1500" on="0"/>
        <pt x="857" y="1500" on="1"/>
        <pt x="804" y="1500" on="0"/>
        <pt x="723" y="1469" on="0"/>
        <pt x="663" y="1375" on="0"/>
        <pt x="654" y="1285" on="1"/>
        <pt x="638" y="1148" on="1"/>
        <pt x="915" y="1148" on="1"/>
        <pt x="902" y="982" on="1"/>
        <pt x="617" y="982" on="1"/>
        <pt x="451" y="-356" on="1"/>
        <pt x="205" y="-356" on="1"/>
        <pt x="376" y="982" on="1"/>
      </contour>
    </TTGlyph>
    <TTGlyph name="four" xMin="-6" yMin="-375" xMax="1158" yMax="1256">
      <contour>
        <pt x="133" y="264" on="0"/>
        <pt x="524" y="945" on="0"/>
        <pt x="668" y="1256" on="1"/>
        <pt x="707" y="1256" on="1"/>
        <pt x="950" y="1140" on="1"/>
        <pt x="873" y="1002" on="0"/>
        <pt x="494" y="448" on="0"/>
        <pt x="346" y="249" on="1"/>
        <pt x="229" y="115" on="1"/>
        <pt x="679" y="147" on="1"/>
        <pt x="727" y="510" on="1"/>
        <pt x="987" y="579" on="1"/>
        <pt x="939" y="167" on="1"/>
        <pt x="1158" y="182" on="1"/>
        <pt x="1133" y="0" on="1"/>
        <pt x="911" y="0" on="1"/>
        <pt x="864" y="-375" on="1"/>
        <pt x="608" y="-375" on="1"/>
        <pt x="657" y="0" on="1"/>
        <pt x="47" y="0" on="1"/>
        <pt x="-6" y="88" on="1"/>
      </contour>
    </TTGlyph>
</ttFont>
